{"glyphs":{"0":{"ha":833,"x_min":54,"x_max":818,"o":"m 354 -14 q 183 24 251 -14 q 84 131 114 63 q 68 292 54 200 l 136 722 q 203 883 151 814 q 335 990 254 951 q 518 1028 417 1028 q 690 990 621 1028 q 788 883 758 951 q 803 722 818 814 l 735 292 q 669 131 721 200 q 536 24 617 63 q 354 -14 456 -14 m 382 167 q 489 200 447 167 q 540 292 531 233 l 608 722 q 587 814 618 781 q 490 847 556 847 q 383 814 425 847 q 331 722 340 781 l 263 292 q 285 200 253 233 q 382 167 318 167 m 433 411 q 363 439 390 411 q 336 511 336 467 q 363 582 336 556 q 433 608 390 608 q 504 582 478 608 q 531 511 531 556 q 504 439 531 467 q 433 411 478 411 z "},"1":{"ha":833,"x_min":50,"x_max":746,"o":"m 50 0 l 79 181 l 335 181 l 436 824 l 147 632 l 182 847 l 446 1014 l 675 1014 l 543 181 l 746 181 l 717 0 l 50 0 z "},"2":{"ha":833,"x_min":36,"x_max":811,"o":"m 36 0 l 67 196 l 439 507 q 540 610 504 563 q 585 713 576 657 q 567 807 594 774 q 483 840 540 840 q 380 803 421 840 q 328 701 339 767 l 119 701 q 190 874 136 801 q 327 988 243 947 q 517 1028 411 1028 q 683 991 615 1028 q 781 889 750 954 q 797 735 811 824 q 716 538 782 633 q 535 353 650 443 l 322 188 l 721 188 l 692 0 l 36 0 z "},"3":{"ha":833,"x_min":42,"x_max":808,"o":"m 347 -14 q 173 22 243 -14 q 72 123 103 57 q 56 278 42 189 l 264 278 q 283 191 254 222 q 375 160 313 160 q 478 190 439 160 q 525 278 517 221 l 538 361 q 517 449 546 418 q 426 481 489 481 l 307 481 l 335 660 l 564 840 l 193 840 l 221 1014 l 808 1014 l 779 835 l 440 568 l 454 657 q 688 578 611 657 q 746 363 765 499 l 733 278 q 669 123 721 189 q 534 22 617 57 q 347 -14 451 -14 z "},"4":{"ha":833,"x_min":44,"x_max":793,"o":"m 460 0 l 489 186 l 44 186 l 90 476 l 557 1014 l 793 1014 l 276 417 l 268 367 l 518 367 l 553 583 l 761 583 l 668 0 l 460 0 z "},"5":{"ha":833,"x_min":47,"x_max":813,"o":"m 351 -14 q 124 61 200 -14 q 64 264 47 136 l 272 264 q 295 192 267 218 q 381 167 324 167 q 479 198 442 167 q 525 285 517 229 l 542 383 q 523 470 550 440 q 433 500 496 500 q 367 490 396 500 q 319 458 339 479 l 118 458 l 214 1014 l 813 1014 l 782 826 l 379 826 l 335 563 l 378 563 l 328 528 q 394 628 339 592 q 533 665 449 665 q 714 591 657 665 q 750 383 771 517 l 733 285 q 610 66 711 146 q 351 -14 508 -14 z "},"6":{"ha":833,"x_min":38,"x_max":775,"o":"m 353 -14 q 174 30 247 -14 q 69 153 101 74 q 54 336 38 232 q 104 488 65 406 q 199 642 143 571 l 486 1014 l 718 1014 l 343 533 l 351 528 q 437 597 390 574 q 543 619 483 619 q 676 581 622 619 q 752 474 729 543 q 760 314 775 406 q 688 142 744 215 q 546 27 632 68 q 353 -14 460 -14 m 381 160 q 497 201 449 160 q 556 311 546 243 q 532 423 567 381 q 429 465 497 465 q 313 423 361 465 q 253 311 264 381 q 278 201 243 243 q 381 160 313 160 z "},"7":{"ha":833,"x_min":108,"x_max":864,"o":"m 125 0 l 619 819 l 339 819 l 317 674 l 108 674 l 163 1014 l 864 1014 l 832 819 l 350 0 l 125 0 z "},"8":{"ha":833,"x_min":33,"x_max":815,"o":"m 353 -14 q 114 63 194 -14 q 53 267 33 140 q 132 426 68 361 q 300 533 196 492 l 481 607 q 558 662 526 626 q 596 742 589 697 q 575 822 603 792 q 490 853 547 853 q 394 822 433 853 q 349 742 356 792 q 362 663 342 699 q 422 608 382 628 l 581 533 q 719 420 681 486 q 742 267 757 354 q 676 117 729 181 q 541 20 624 54 q 353 -14 458 -14 m 381 161 q 487 196 443 161 q 539 283 531 231 q 524 365 546 325 q 461 425 503 406 l 286 510 q 170 609 210 547 q 144 756 131 671 q 207 894 157 832 q 337 992 257 956 q 518 1028 417 1028 q 687 992 619 1028 q 785 894 754 956 q 803 756 815 832 q 732 606 789 667 q 588 510 675 546 l 383 425 q 302 366 336 406 q 261 285 268 326 q 285 196 253 231 q 381 161 318 161 z "},"9":{"ha":833,"x_min":99,"x_max":833,"o":"m 154 0 l 539 481 l 529 486 q 441 418 493 442 q 329 394 389 394 q 197 433 250 394 q 121 540 143 471 q 113 700 99 608 q 183 872 128 799 q 326 987 239 946 q 518 1028 413 1028 q 697 984 625 1028 q 801 862 769 940 q 817 678 833 783 q 767 526 807 610 q 672 372 728 443 l 386 0 l 154 0 m 443 549 q 560 591 511 549 q 618 703 608 633 q 594 813 629 771 q 490 854 558 854 q 374 813 422 854 q 315 703 326 771 q 340 591 306 633 q 443 549 375 549 z "},"A":{"ha":833,"x_min":-26,"x_max":738,"o":"m -26 0 l 383 1014 l 647 1014 l 738 0 l 531 0 l 518 229 l 276 229 l 192 0 l -26 0 m 338 396 l 508 396 l 499 640 q 494 745 497 693 q 489 826 490 797 q 463 746 479 797 q 428 642 447 694 l 338 396 z "},"Á":{"ha":833,"x_min":-26,"x_max":815,"o":"m -26 0 l 383 1014 l 647 1014 l 738 0 l 531 0 l 518 229 l 276 229 l 192 0 l -26 0 m 338 396 l 508 396 l 499 640 q 494 745 497 693 q 489 826 490 797 q 463 746 479 797 q 428 642 447 694 l 338 396 m 407 1125 l 583 1319 l 815 1319 l 622 1125 l 407 1125 z "},"Ă":{"ha":833,"x_min":-26,"x_max":821,"o":"m -26 0 l 383 1014 l 647 1014 l 738 0 l 531 0 l 518 229 l 276 229 l 192 0 l -26 0 m 338 396 l 508 396 l 499 640 q 494 745 497 693 q 489 826 490 797 q 463 746 479 797 q 428 642 447 694 l 338 396 m 532 1111 q 356 1169 418 1111 q 308 1319 294 1226 l 465 1319 q 482 1256 460 1281 q 547 1232 504 1232 q 622 1256 592 1232 q 658 1319 653 1281 l 821 1319 q 727 1169 807 1226 q 532 1111 647 1111 z "},"Ắ":{"ha":833,"x_min":-26,"x_max":835,"o":"m -26 0 l 383 1014 l 647 1014 l 738 0 l 531 0 l 518 229 l 276 229 l 192 0 l -26 0 m 338 396 l 508 396 l 499 640 q 494 745 497 693 q 489 826 490 797 q 463 746 479 797 q 428 642 447 694 l 338 396 m 453 1257 l 624 1417 l 813 1417 l 628 1257 l 453 1257 m 478 1083 q 318 1134 372 1083 q 278 1271 264 1185 l 410 1271 q 426 1215 404 1236 q 494 1194 447 1194 l 593 1194 q 668 1215 639 1194 q 703 1271 697 1236 l 835 1271 q 751 1134 821 1185 q 576 1083 682 1083 l 478 1083 z "},"Ặ":{"ha":833,"x_min":-26,"x_max":821,"o":"m 532 1111 q 356 1169 418 1111 q 308 1319 294 1226 l 465 1319 q 482 1256 460 1281 q 547 1232 504 1232 q 622 1256 592 1232 q 658 1319 653 1281 l 821 1319 q 727 1169 807 1226 q 532 1111 647 1111 m -26 0 l 383 1014 l 647 1014 l 738 0 l 531 0 l 518 229 l 276 229 l 192 0 l -26 0 m 338 396 l 508 396 l 499 640 q 494 745 497 693 q 489 826 490 797 q 463 746 479 797 q 428 642 447 694 l 338 396 m 318 -324 q 232 -294 261 -324 q 210 -215 203 -265 q 257 -136 218 -165 q 353 -107 296 -107 q 439 -136 410 -107 q 460 -215 468 -165 q 414 -294 453 -265 q 318 -324 375 -324 z "},"Ằ":{"ha":833,"x_min":-26,"x_max":835,"o":"m -26 0 l 383 1014 l 647 1014 l 738 0 l 531 0 l 518 229 l 276 229 l 192 0 l -26 0 m 338 396 l 508 396 l 499 640 q 494 745 497 693 q 489 826 490 797 q 463 746 479 797 q 428 642 447 694 l 338 396 m 478 1083 q 318 1134 372 1083 q 278 1271 264 1185 l 410 1271 q 426 1215 404 1236 q 494 1194 447 1194 l 593 1194 q 668 1215 639 1194 q 703 1271 697 1236 l 835 1271 q 751 1134 821 1185 q 576 1083 682 1083 l 478 1083 m 499 1257 l 393 1417 l 551 1417 l 643 1257 l 499 1257 z "},"Ẳ":{"ha":833,"x_min":-26,"x_max":835,"o":"m -26 0 l 383 1014 l 647 1014 l 738 0 l 531 0 l 518 229 l 276 229 l 192 0 l -26 0 m 338 396 l 508 396 l 499 640 q 494 745 497 693 q 489 826 490 797 q 463 746 479 797 q 428 642 447 694 l 338 396 m 476 1236 l 518 1278 q 529 1291 525 1285 q 535 1303 533 1297 q 517 1318 538 1318 l 425 1318 l 442 1417 l 581 1417 q 664 1392 638 1417 q 683 1325 690 1368 q 667 1284 679 1301 q 642 1251 656 1267 l 628 1236 l 476 1236 m 478 1083 q 318 1134 372 1083 q 278 1271 264 1185 l 410 1271 q 426 1215 404 1236 q 494 1194 447 1194 l 593 1194 q 668 1215 639 1194 q 703 1271 697 1236 l 835 1271 q 751 1134 821 1185 q 576 1083 682 1083 l 478 1083 z "},"Ẵ":{"ha":833,"x_min":-26,"x_max":829,"o":"m -26 0 l 383 1014 l 647 1014 l 738 0 l 531 0 l 518 229 l 276 229 l 192 0 l -26 0 m 338 396 l 508 396 l 499 640 q 494 745 497 693 q 489 826 490 797 q 463 746 479 797 q 428 642 447 694 l 338 396 m 468 1083 q 335 1124 381 1083 q 301 1236 290 1164 l 433 1236 q 442 1206 431 1218 q 476 1194 454 1194 l 614 1194 q 651 1206 636 1194 q 669 1236 667 1218 l 801 1236 q 733 1124 790 1164 q 590 1083 676 1083 l 468 1083 m 667 1264 q 603 1272 631 1264 q 554 1288 576 1279 q 511 1305 532 1297 q 467 1313 490 1313 q 426 1278 433 1313 l 425 1271 l 307 1271 l 308 1278 q 363 1378 321 1340 q 469 1417 406 1417 q 533 1409 506 1417 q 582 1392 560 1401 q 625 1376 604 1383 q 669 1368 646 1368 q 696 1378 685 1368 q 710 1403 707 1388 l 711 1410 l 829 1410 l 828 1403 q 773 1301 815 1339 q 667 1264 731 1264 z "},"Ǎ":{"ha":833,"x_min":-26,"x_max":849,"o":"m -26 0 l 383 1014 l 647 1014 l 738 0 l 531 0 l 518 229 l 276 229 l 192 0 l -26 0 m 338 396 l 508 396 l 499 640 q 494 745 497 693 q 489 826 490 797 q 463 746 479 797 q 428 642 447 694 l 338 396 m 436 1125 l 279 1319 l 463 1319 l 547 1222 l 656 1319 l 849 1319 l 631 1125 l 436 1125 z "},"Â":{"ha":833,"x_min":-26,"x_max":818,"o":"m -26 0 l 383 1014 l 647 1014 l 738 0 l 531 0 l 518 229 l 276 229 l 192 0 l -26 0 m 338 396 l 508 396 l 499 640 q 494 745 497 693 q 489 826 490 797 q 463 746 479 797 q 428 642 447 694 l 338 396 m 249 1125 l 467 1319 l 661 1319 l 818 1125 l 635 1125 l 550 1222 l 442 1125 l 249 1125 z "},"Ấ":{"ha":833,"x_min":-26,"x_max":1099,"o":"m 717 1257 l 889 1417 l 1099 1417 l 913 1257 l 717 1257 m 243 1083 l 461 1278 l 656 1278 l 813 1083 l 631 1083 l 550 1181 l 439 1083 l 243 1083 m -26 0 l 383 1014 l 647 1014 l 738 0 l 531 0 l 518 229 l 276 229 l 192 0 l -26 0 m 338 396 l 508 396 l 499 640 q 494 745 497 693 q 489 826 490 797 q 463 746 479 797 q 428 642 447 694 l 338 396 z "},"Ậ":{"ha":833,"x_min":-26,"x_max":818,"o":"m 249 1125 l 467 1319 l 661 1319 l 818 1125 l 635 1125 l 550 1222 l 442 1125 l 249 1125 m -26 0 l 383 1014 l 647 1014 l 738 0 l 531 0 l 518 229 l 276 229 l 192 0 l -26 0 m 338 396 l 508 396 l 499 640 q 494 745 497 693 q 489 826 490 797 q 463 746 479 797 q 428 642 447 694 l 338 396 m 318 -324 q 232 -294 261 -324 q 210 -215 203 -265 q 257 -136 218 -165 q 353 -107 296 -107 q 439 -136 410 -107 q 460 -215 468 -165 q 414 -294 453 -265 q 318 -324 375 -324 z "},"Ầ":{"ha":833,"x_min":-26,"x_max":951,"o":"m -26 0 l 383 1014 l 647 1014 l 738 0 l 531 0 l 518 229 l 276 229 l 192 0 l -26 0 m 338 396 l 508 396 l 499 640 q 494 745 497 693 q 489 826 490 797 q 463 746 479 797 q 428 642 447 694 l 338 396 m 774 1257 l 640 1417 l 832 1417 l 951 1257 l 774 1257 m 243 1083 l 461 1278 l 656 1278 l 813 1083 l 631 1083 l 550 1181 l 439 1083 l 243 1083 z "},"Ẩ":{"ha":833,"x_min":-26,"x_max":975,"o":"m 736 1208 l 790 1256 q 808 1274 803 1267 q 814 1288 813 1281 q 783 1311 818 1311 l 689 1311 l 706 1417 l 838 1417 q 940 1388 904 1417 q 967 1303 975 1358 q 951 1264 964 1285 q 921 1231 938 1243 l 892 1208 l 736 1208 m 243 1083 l 461 1278 l 656 1278 l 813 1083 l 631 1083 l 550 1181 l 439 1083 l 243 1083 m -26 0 l 383 1014 l 647 1014 l 738 0 l 531 0 l 518 229 l 276 229 l 192 0 l -26 0 m 338 396 l 508 396 l 499 640 q 494 745 497 693 q 489 826 490 797 q 463 746 479 797 q 428 642 447 694 l 338 396 z "},"Ẫ":{"ha":833,"x_min":-26,"x_max":829,"o":"m -26 0 l 383 1014 l 647 1014 l 738 0 l 531 0 l 518 229 l 276 229 l 192 0 l -26 0 m 338 396 l 508 396 l 499 640 q 494 745 497 693 q 489 826 490 797 q 463 746 479 797 q 428 642 447 694 l 338 396 m 667 1264 q 603 1272 631 1264 q 554 1288 576 1279 q 511 1305 532 1297 q 467 1313 490 1313 q 426 1278 433 1313 l 425 1271 l 307 1271 l 308 1278 q 363 1378 321 1340 q 469 1417 406 1417 q 533 1409 506 1417 q 582 1392 560 1401 q 625 1376 604 1383 q 669 1368 646 1368 q 696 1378 685 1368 q 710 1403 707 1388 l 711 1410 l 829 1410 l 828 1403 q 773 1301 815 1339 q 667 1264 731 1264 m 243 1083 l 397 1228 l 703 1228 l 813 1083 l 624 1083 l 543 1188 l 432 1083 l 243 1083 z "},"Ä":{"ha":833,"x_min":-26,"x_max":838,"o":"m -26 0 l 383 1014 l 647 1014 l 738 0 l 531 0 l 518 229 l 276 229 l 192 0 l -26 0 m 338 396 l 508 396 l 499 640 q 494 745 497 693 q 489 826 490 797 q 463 746 479 797 q 428 642 447 694 l 338 396 m 701 1114 q 625 1143 650 1114 q 607 1222 600 1172 q 650 1301 615 1272 q 736 1331 685 1331 q 813 1301 788 1331 q 829 1222 838 1272 q 788 1143 822 1172 q 701 1114 753 1114 m 363 1114 q 286 1143 311 1114 q 268 1222 261 1172 q 311 1301 276 1272 q 397 1331 346 1331 q 474 1301 449 1331 q 490 1222 499 1272 q 449 1143 483 1172 q 363 1114 414 1114 z "},"Ạ":{"ha":833,"x_min":-26,"x_max":738,"o":"m -26 0 l 383 1014 l 647 1014 l 738 0 l 531 0 l 518 229 l 276 229 l 192 0 l -26 0 m 338 396 l 508 396 l 499 640 q 494 745 497 693 q 489 826 490 797 q 463 746 479 797 q 428 642 447 694 l 338 396 m 318 -324 q 232 -294 261 -324 q 210 -215 203 -265 q 257 -136 218 -165 q 353 -107 296 -107 q 439 -136 410 -107 q 460 -215 468 -165 q 414 -294 453 -265 q 318 -324 375 -324 z "},"À":{"ha":833,"x_min":-26,"x_max":738,"o":"m -26 0 l 383 1014 l 647 1014 l 738 0 l 531 0 l 518 229 l 276 229 l 192 0 l -26 0 m 338 396 l 508 396 l 499 640 q 494 745 497 693 q 489 826 490 797 q 463 746 479 797 q 428 642 447 694 l 338 396 m 450 1125 l 318 1319 l 539 1319 l 654 1125 l 450 1125 z "},"Ả":{"ha":833,"x_min":-26,"x_max":738,"o":"m -26 0 l 383 1014 l 647 1014 l 738 0 l 531 0 l 518 229 l 276 229 l 192 0 l -26 0 m 338 396 l 508 396 l 499 640 q 494 745 497 693 q 489 826 490 797 q 463 746 479 797 q 428 642 447 694 l 338 396 m 431 1132 l 511 1213 q 531 1235 525 1226 q 539 1253 538 1244 q 506 1276 543 1276 l 403 1276 l 421 1394 l 567 1394 q 667 1362 632 1394 q 693 1275 703 1329 q 679 1231 690 1253 q 650 1190 668 1208 l 592 1132 l 431 1132 z "},"Ā":{"ha":833,"x_min":-26,"x_max":810,"o":"m -26 0 l 383 1014 l 647 1014 l 738 0 l 531 0 l 518 229 l 276 229 l 192 0 l -26 0 m 338 396 l 508 396 l 499 640 q 494 745 497 693 q 489 826 490 797 q 463 746 479 797 q 428 642 447 694 l 338 396 m 286 1139 l 310 1292 l 810 1292 l 786 1139 l 286 1139 z "},"Ą":{"ha":833,"x_min":-26,"x_max":738,"o":"m 533 -312 q 407 -270 449 -312 q 376 -160 365 -228 q 433 -63 383 -111 q 558 15 482 -15 l 678 15 l 626 -25 q 577 -74 596 -50 q 556 -115 558 -97 q 567 -151 553 -136 q 611 -167 581 -167 l 707 -167 l 683 -312 l 533 -312 m -26 0 l 383 1014 l 647 1014 l 738 0 l 531 0 l 518 229 l 276 229 l 192 0 l -26 0 m 338 396 l 508 396 l 499 640 q 494 745 497 693 q 489 826 490 797 q 463 746 479 797 q 428 642 447 694 l 338 396 z "},"Å":{"ha":833,"x_min":-26,"x_max":756,"o":"m -26 0 l 383 1014 l 647 1014 l 738 0 l 531 0 l 518 229 l 276 229 l 192 0 l -26 0 m 338 396 l 508 396 l 499 640 q 494 745 497 693 q 489 826 490 797 q 463 746 479 797 q 428 642 447 694 l 338 396 m 521 1046 q 388 1094 433 1046 q 354 1222 342 1143 q 428 1350 367 1301 q 576 1399 489 1399 q 710 1350 664 1399 q 743 1222 756 1301 q 669 1094 731 1143 q 521 1046 608 1046 m 536 1143 q 600 1165 574 1143 q 632 1224 626 1188 q 619 1280 639 1258 q 561 1301 599 1301 q 498 1280 524 1301 q 465 1222 472 1258 q 479 1165 460 1188 q 536 1143 499 1143 z "},"Ã":{"ha":833,"x_min":-26,"x_max":815,"o":"m -26 0 l 383 1014 l 647 1014 l 738 0 l 531 0 l 518 229 l 276 229 l 192 0 l -26 0 m 338 396 l 508 396 l 499 640 q 494 745 497 693 q 489 826 490 797 q 463 746 479 797 q 428 642 447 694 l 338 396 m 629 1111 q 559 1124 585 1111 q 518 1153 533 1136 q 489 1182 503 1169 q 454 1194 475 1194 q 422 1182 436 1194 q 406 1149 408 1169 l 400 1118 l 282 1118 l 290 1167 q 351 1286 301 1239 q 469 1333 401 1333 q 540 1321 514 1333 q 581 1292 565 1308 q 610 1263 596 1275 q 644 1250 624 1250 q 676 1260 664 1250 q 692 1289 689 1271 l 697 1326 l 815 1326 l 808 1278 q 748 1158 797 1206 q 629 1111 699 1111 z "},"Æ":{"ha":833,"x_min":-61,"x_max":906,"o":"m -61 0 l 290 1014 l 906 1014 l 878 840 l 650 840 l 613 606 l 806 606 l 776 424 l 583 424 l 544 175 l 772 175 l 744 0 l 343 0 l 379 229 l 210 229 l 138 0 l -61 0 m 257 375 l 403 375 l 476 840 l 408 840 l 257 375 z "},"Ǽ":{"ha":833,"x_min":-61,"x_max":906,"o":"m -61 0 l 290 1014 l 906 1014 l 878 840 l 650 840 l 613 606 l 806 606 l 776 424 l 583 424 l 544 175 l 772 175 l 744 0 l 343 0 l 379 229 l 210 229 l 138 0 l -61 0 m 257 375 l 403 375 l 476 840 l 408 840 l 257 375 m 414 1125 l 590 1319 l 822 1319 l 629 1125 l 414 1125 z "},"B":{"ha":833,"x_min":31,"x_max":833,"o":"m 31 0 l 192 1014 l 518 1014 q 753 944 672 1014 q 814 754 833 874 q 765 638 804 688 q 669 560 725 588 q 551 532 613 532 l 550 528 q 670 503 618 529 q 749 424 722 476 q 763 293 775 371 q 696 138 749 204 q 560 36 643 72 q 369 0 476 0 l 31 0 m 258 168 l 388 168 q 501 204 456 168 q 556 304 546 240 q 532 405 565 368 q 431 442 499 442 l 301 442 l 258 168 m 328 606 l 450 606 q 551 638 511 606 q 600 726 590 671 q 578 815 608 783 q 488 846 549 846 l 365 846 l 328 606 z "},"C":{"ha":833,"x_min":54,"x_max":829,"o":"m 358 -14 q 186 24 257 -14 q 85 131 115 63 q 68 292 54 200 l 136 722 q 204 883 151 815 q 340 990 257 951 q 524 1028 422 1028 q 696 990 626 1028 q 797 883 765 951 q 814 722 829 815 l 606 722 q 588 815 617 783 q 496 847 558 847 q 394 815 433 847 q 344 722 356 783 l 276 292 q 296 199 267 232 q 388 167 325 167 q 489 199 450 167 q 538 292 528 232 l 746 292 q 678 131 732 200 q 543 24 625 63 q 358 -14 461 -14 z "},"Ć":{"ha":833,"x_min":54,"x_max":829,"o":"m 358 -14 q 186 24 257 -14 q 85 131 115 63 q 68 292 54 200 l 136 722 q 204 883 151 815 q 340 990 257 951 q 524 1028 422 1028 q 696 990 626 1028 q 797 883 765 951 q 814 722 829 815 l 606 722 q 588 815 617 783 q 496 847 558 847 q 394 815 433 847 q 344 722 356 783 l 276 292 q 296 199 267 232 q 388 167 325 167 q 489 199 450 167 q 538 292 528 232 l 746 292 q 678 131 732 200 q 543 24 625 63 q 358 -14 461 -14 m 414 1125 l 590 1319 l 822 1319 l 629 1125 l 414 1125 z "},"Č":{"ha":833,"x_min":54,"x_max":856,"o":"m 358 -14 q 186 24 257 -14 q 85 131 115 63 q 68 292 54 200 l 136 722 q 204 883 151 815 q 340 990 257 951 q 524 1028 422 1028 q 696 990 626 1028 q 797 883 765 951 q 814 722 829 815 l 606 722 q 588 815 617 783 q 496 847 558 847 q 394 815 433 847 q 344 722 356 783 l 276 292 q 296 199 267 232 q 388 167 325 167 q 489 199 450 167 q 538 292 528 232 l 746 292 q 678 131 732 200 q 543 24 625 63 q 358 -14 461 -14 m 443 1125 l 286 1319 l 469 1319 l 554 1222 l 663 1319 l 856 1319 l 638 1125 l 443 1125 z "},"Ç":{"ha":833,"x_min":54,"x_max":829,"o":"m 167 -312 l 182 -215 l 293 -215 q 352 -199 328 -215 q 378 -165 376 -182 q 344 -115 383 -133 q 228 -96 304 -96 l 296 22 l 397 22 l 358 -54 q 444 -72 400 -57 q 515 -114 488 -86 q 535 -185 542 -142 q 467 -274 526 -236 q 319 -312 407 -312 l 167 -312 m 358 -14 q 186 24 257 -14 q 85 131 115 63 q 68 292 54 200 l 136 722 q 204 883 151 815 q 340 990 257 951 q 524 1028 422 1028 q 696 990 626 1028 q 797 883 765 951 q 814 722 829 815 l 606 722 q 588 815 617 783 q 496 847 558 847 q 394 815 433 847 q 344 722 356 783 l 276 292 q 296 199 267 232 q 388 167 325 167 q 489 199 450 167 q 538 292 528 232 l 746 292 q 678 131 732 200 q 543 24 625 63 q 358 -14 461 -14 z "},"Ĉ":{"ha":833,"x_min":54,"x_max":829,"o":"m 358 -14 q 186 24 257 -14 q 85 131 115 63 q 68 292 54 200 l 136 722 q 204 883 151 815 q 340 990 257 951 q 524 1028 422 1028 q 696 990 626 1028 q 797 883 765 951 q 814 722 829 815 l 606 722 q 588 815 617 783 q 496 847 558 847 q 394 815 433 847 q 344 722 356 783 l 276 292 q 296 199 267 232 q 388 167 325 167 q 489 199 450 167 q 538 292 528 232 l 746 292 q 678 131 732 200 q 543 24 625 63 q 358 -14 461 -14 m 256 1125 l 474 1319 l 668 1319 l 825 1125 l 642 1125 l 557 1222 l 449 1125 l 256 1125 z "},"Ċ":{"ha":833,"x_min":54,"x_max":829,"o":"m 358 -14 q 186 24 257 -14 q 85 131 115 63 q 68 292 54 200 l 136 722 q 204 883 151 815 q 340 990 257 951 q 524 1028 422 1028 q 696 990 626 1028 q 797 883 765 951 q 814 722 829 815 l 606 722 q 588 815 617 783 q 496 847 558 847 q 394 815 433 847 q 344 722 356 783 l 276 292 q 296 199 267 232 q 388 167 325 167 q 489 199 450 167 q 538 292 528 232 l 746 292 q 678 131 732 200 q 543 24 625 63 q 358 -14 461 -14 m 539 1114 q 453 1143 482 1114 q 431 1222 424 1172 q 478 1301 439 1272 q 574 1331 517 1331 q 660 1301 631 1331 q 681 1222 689 1272 q 635 1143 674 1172 q 539 1114 596 1114 z "},"D":{"ha":833,"x_min":26,"x_max":831,"o":"m 26 0 l 188 1014 l 517 1014 q 694 974 622 1014 q 799 860 767 933 q 815 689 831 788 l 757 326 q 686 156 742 229 q 546 41 631 82 q 356 0 461 0 l 26 0 m 265 194 l 386 194 q 494 231 450 194 q 549 326 539 267 l 607 689 q 582 783 615 747 q 485 819 549 819 l 364 819 l 265 194 z "},"Ð":{"ha":833,"x_min":14,"x_max":831,"o":"m 14 451 l 14 583 l 403 583 l 403 451 l 14 451 m 26 0 l 188 1014 l 517 1014 q 694 974 622 1014 q 799 860 767 933 q 815 689 831 788 l 757 326 q 686 156 742 229 q 546 41 631 82 q 356 0 461 0 l 26 0 m 265 194 l 386 194 q 494 231 450 194 q 549 326 539 267 l 607 689 q 582 783 615 747 q 485 819 549 819 l 364 819 l 265 194 z "},"Ď":{"ha":833,"x_min":26,"x_max":849,"o":"m 26 0 l 188 1014 l 517 1014 q 694 974 622 1014 q 799 860 767 933 q 815 689 831 788 l 757 326 q 686 156 742 229 q 546 41 631 82 q 356 0 461 0 l 26 0 m 265 194 l 386 194 q 494 231 450 194 q 549 326 539 267 l 607 689 q 582 783 615 747 q 485 819 549 819 l 364 819 l 265 194 m 436 1125 l 279 1319 l 463 1319 l 547 1222 l 656 1319 l 849 1319 l 631 1125 l 436 1125 z "},"Đ":{"ha":833,"x_min":14,"x_max":831,"o":"m 14 451 l 14 583 l 403 583 l 403 451 l 14 451 m 26 0 l 188 1014 l 517 1014 q 694 974 622 1014 q 799 860 767 933 q 815 689 831 788 l 757 326 q 686 156 742 229 q 546 41 631 82 q 356 0 461 0 l 26 0 m 265 194 l 386 194 q 494 231 450 194 q 549 326 539 267 l 607 689 q 582 783 615 747 q 485 819 549 819 l 364 819 l 265 194 z "},"E":{"ha":833,"x_min":50,"x_max":836,"o":"m 50 0 l 211 1014 l 836 1014 l 807 836 l 386 836 l 350 608 l 722 608 l 694 431 l 322 431 l 282 178 l 703 178 l 675 0 l 50 0 z "},"É":{"ha":833,"x_min":50,"x_max":843,"o":"m 50 0 l 211 1014 l 836 1014 l 807 836 l 386 836 l 350 608 l 722 608 l 694 431 l 322 431 l 282 178 l 703 178 l 675 0 l 50 0 m 435 1125 l 611 1319 l 843 1319 l 650 1125 l 435 1125 z "},"Ĕ":{"ha":833,"x_min":50,"x_max":849,"o":"m 50 0 l 211 1014 l 836 1014 l 807 836 l 386 836 l 350 608 l 722 608 l 694 431 l 322 431 l 282 178 l 703 178 l 675 0 l 50 0 m 560 1111 q 384 1169 446 1111 q 336 1319 322 1226 l 493 1319 q 510 1256 488 1281 q 575 1232 532 1232 q 650 1256 619 1232 q 686 1319 681 1281 l 849 1319 q 755 1169 835 1226 q 560 1111 675 1111 z "},"Ě":{"ha":833,"x_min":50,"x_max":876,"o":"m 50 0 l 211 1014 l 836 1014 l 807 836 l 386 836 l 350 608 l 722 608 l 694 431 l 322 431 l 282 178 l 703 178 l 675 0 l 50 0 m 464 1125 l 307 1319 l 490 1319 l 575 1222 l 683 1319 l 876 1319 l 658 1125 l 464 1125 z "},"Ê":{"ha":833,"x_min":50,"x_max":846,"o":"m 50 0 l 211 1014 l 836 1014 l 807 836 l 386 836 l 350 608 l 722 608 l 694 431 l 322 431 l 282 178 l 703 178 l 675 0 l 50 0 m 276 1125 l 494 1319 l 689 1319 l 846 1125 l 663 1125 l 578 1222 l 469 1125 l 276 1125 z "},"Ế":{"ha":833,"x_min":50,"x_max":1099,"o":"m 50 0 l 211 1014 l 836 1014 l 807 836 l 386 836 l 350 608 l 722 608 l 694 431 l 322 431 l 282 178 l 703 178 l 675 0 l 50 0 m 717 1257 l 889 1417 l 1099 1417 l 913 1257 l 717 1257 m 243 1083 l 461 1278 l 656 1278 l 813 1083 l 631 1083 l 550 1181 l 439 1083 l 243 1083 z "},"Ệ":{"ha":833,"x_min":50,"x_max":836,"o":"m 249 1125 l 467 1319 l 661 1319 l 818 1125 l 635 1125 l 550 1222 l 442 1125 l 249 1125 m 50 0 l 211 1014 l 836 1014 l 807 836 l 386 836 l 350 608 l 722 608 l 694 431 l 322 431 l 282 178 l 703 178 l 675 0 l 50 0 m 332 -324 q 246 -294 275 -324 q 224 -215 217 -265 q 271 -136 232 -165 q 367 -107 310 -107 q 453 -136 424 -107 q 474 -215 482 -165 q 428 -294 467 -265 q 332 -324 389 -324 z "},"Ề":{"ha":833,"x_min":50,"x_max":951,"o":"m 50 0 l 211 1014 l 836 1014 l 807 836 l 386 836 l 350 608 l 722 608 l 694 431 l 322 431 l 282 178 l 703 178 l 675 0 l 50 0 m 774 1257 l 640 1417 l 832 1417 l 951 1257 l 774 1257 m 243 1083 l 461 1278 l 656 1278 l 813 1083 l 631 1083 l 550 1181 l 439 1083 l 243 1083 z "},"Ể":{"ha":833,"x_min":50,"x_max":975,"o":"m 50 0 l 211 1014 l 836 1014 l 807 836 l 386 836 l 350 608 l 722 608 l 694 431 l 322 431 l 282 178 l 703 178 l 675 0 l 50 0 m 736 1208 l 790 1256 q 808 1274 803 1267 q 814 1288 813 1281 q 783 1311 818 1311 l 689 1311 l 706 1417 l 838 1417 q 940 1388 904 1417 q 967 1303 975 1358 q 951 1264 964 1285 q 921 1231 938 1243 l 892 1208 l 736 1208 m 243 1083 l 461 1278 l 656 1278 l 813 1083 l 631 1083 l 550 1181 l 439 1083 l 243 1083 z "},"Ễ":{"ha":833,"x_min":50,"x_max":836,"o":"m 50 0 l 211 1014 l 836 1014 l 807 836 l 386 836 l 350 608 l 722 608 l 694 431 l 322 431 l 282 178 l 703 178 l 675 0 l 50 0 m 667 1264 q 603 1272 631 1264 q 554 1288 576 1279 q 511 1305 532 1297 q 467 1313 490 1313 q 426 1278 433 1313 l 425 1271 l 307 1271 l 308 1278 q 363 1378 321 1340 q 469 1417 406 1417 q 533 1409 506 1417 q 582 1392 560 1401 q 625 1376 604 1383 q 669 1368 646 1368 q 696 1378 685 1368 q 710 1403 707 1388 l 711 1410 l 829 1410 l 828 1403 q 773 1301 815 1339 q 667 1264 731 1264 m 243 1083 l 397 1228 l 703 1228 l 813 1083 l 624 1083 l 543 1188 l 432 1083 l 243 1083 z "},"Ë":{"ha":833,"x_min":50,"x_max":865,"o":"m 50 0 l 211 1014 l 836 1014 l 807 836 l 386 836 l 350 608 l 722 608 l 694 431 l 322 431 l 282 178 l 703 178 l 675 0 l 50 0 m 729 1114 q 653 1143 678 1114 q 635 1222 628 1172 q 678 1301 643 1272 q 764 1331 713 1331 q 840 1301 815 1331 q 857 1222 865 1272 q 815 1143 850 1172 q 729 1114 781 1114 m 390 1114 q 314 1143 339 1114 q 296 1222 289 1172 q 339 1301 304 1272 q 425 1331 374 1331 q 501 1301 476 1331 q 518 1222 526 1272 q 476 1143 511 1172 q 390 1114 442 1114 z "},"Ė":{"ha":833,"x_min":50,"x_max":836,"o":"m 50 0 l 211 1014 l 836 1014 l 807 836 l 386 836 l 350 608 l 722 608 l 694 431 l 322 431 l 282 178 l 703 178 l 675 0 l 50 0 m 560 1114 q 474 1143 503 1114 q 451 1222 444 1172 q 499 1301 460 1272 q 594 1331 538 1331 q 681 1301 651 1331 q 701 1222 710 1272 q 656 1143 694 1172 q 560 1114 617 1114 z "},"Ẹ":{"ha":833,"x_min":50,"x_max":836,"o":"m 50 0 l 211 1014 l 836 1014 l 807 836 l 386 836 l 350 608 l 722 608 l 694 431 l 322 431 l 282 178 l 703 178 l 675 0 l 50 0 m 332 -324 q 246 -294 275 -324 q 224 -215 217 -265 q 271 -136 232 -165 q 367 -107 310 -107 q 453 -136 424 -107 q 474 -215 482 -165 q 428 -294 467 -265 q 332 -324 389 -324 z "},"È":{"ha":833,"x_min":50,"x_max":836,"o":"m 50 0 l 211 1014 l 836 1014 l 807 836 l 386 836 l 350 608 l 722 608 l 694 431 l 322 431 l 282 178 l 703 178 l 675 0 l 50 0 m 478 1125 l 346 1319 l 567 1319 l 682 1125 l 478 1125 z "},"Ẻ":{"ha":833,"x_min":50,"x_max":836,"o":"m 50 0 l 211 1014 l 836 1014 l 807 836 l 386 836 l 350 608 l 722 608 l 694 431 l 322 431 l 282 178 l 703 178 l 675 0 l 50 0 m 443 1106 l 524 1186 q 544 1209 538 1200 q 551 1226 550 1218 q 518 1250 556 1250 l 415 1250 l 433 1368 l 579 1368 q 680 1335 644 1368 q 706 1249 715 1303 q 692 1204 703 1226 q 663 1164 681 1182 l 604 1106 l 443 1106 z "},"Ē":{"ha":833,"x_min":50,"x_max":838,"o":"m 50 0 l 211 1014 l 836 1014 l 807 836 l 386 836 l 350 608 l 722 608 l 694 431 l 322 431 l 282 178 l 703 178 l 675 0 l 50 0 m 314 1139 l 338 1292 l 838 1292 l 814 1139 l 314 1139 z "},"Ę":{"ha":833,"x_min":50,"x_max":836,"o":"m 481 -312 q 354 -270 396 -312 q 324 -160 313 -228 q 380 -63 331 -111 q 506 15 429 -15 l 625 15 l 574 -25 q 524 -74 543 -50 q 503 -115 506 -97 q 514 -151 500 -136 q 558 -167 528 -167 l 654 -167 l 631 -312 l 481 -312 m 50 0 l 211 1014 l 836 1014 l 807 836 l 386 836 l 350 608 l 722 608 l 694 431 l 322 431 l 282 178 l 703 178 l 675 0 l 50 0 z "},"Ẽ":{"ha":833,"x_min":50,"x_max":843,"o":"m 50 0 l 211 1014 l 836 1014 l 807 836 l 386 836 l 350 608 l 722 608 l 694 431 l 322 431 l 282 178 l 703 178 l 675 0 l 50 0 m 657 1111 q 587 1124 613 1111 q 546 1153 561 1136 q 517 1182 531 1169 q 482 1194 503 1194 q 450 1182 464 1194 q 433 1149 436 1169 l 428 1118 l 310 1118 l 318 1167 q 379 1286 329 1239 q 497 1333 429 1333 q 567 1321 542 1333 q 608 1292 593 1308 q 638 1263 624 1275 q 672 1250 651 1250 q 704 1260 692 1250 q 719 1289 717 1271 l 725 1326 l 843 1326 l 836 1278 q 776 1158 825 1206 q 657 1111 726 1111 z "},"F":{"ha":833,"x_min":36,"x_max":850,"o":"m 36 0 l 197 1014 l 850 1014 l 818 819 l 371 819 l 336 594 l 747 594 l 717 400 l 308 400 l 244 0 l 36 0 z "},"G":{"ha":833,"x_min":54,"x_max":829,"o":"m 358 -14 q 186 24 257 -14 q 85 131 115 63 q 68 292 54 200 l 136 722 q 204 883 151 815 q 340 990 257 951 q 524 1028 422 1028 q 696 990 626 1028 q 797 883 765 951 q 814 722 829 815 l 606 722 q 588 815 617 783 q 496 847 558 847 q 394 815 433 847 q 344 722 356 783 l 276 292 q 296 199 267 232 q 388 167 325 167 q 489 199 450 167 q 538 292 528 232 l 551 379 l 401 379 l 429 556 l 788 556 l 746 292 q 678 131 732 200 q 543 24 625 63 q 358 -14 461 -14 z "},"Ǵ":{"ha":833,"x_min":54,"x_max":829,"o":"m 358 -14 q 186 24 257 -14 q 85 131 115 63 q 68 292 54 200 l 136 722 q 204 883 151 815 q 340 990 257 951 q 524 1028 422 1028 q 696 990 626 1028 q 797 883 765 951 q 814 722 829 815 l 606 722 q 588 815 617 783 q 496 847 558 847 q 394 815 433 847 q 344 722 356 783 l 276 292 q 296 199 267 232 q 388 167 325 167 q 489 199 450 167 q 538 292 528 232 l 551 379 l 401 379 l 429 556 l 788 556 l 746 292 q 678 131 732 200 q 543 24 625 63 q 358 -14 461 -14 m 407 1125 l 583 1319 l 815 1319 l 622 1125 l 407 1125 z "},"Ğ":{"ha":833,"x_min":54,"x_max":829,"o":"m 358 -14 q 186 24 257 -14 q 85 131 115 63 q 68 292 54 200 l 136 722 q 204 883 151 815 q 340 990 257 951 q 524 1028 422 1028 q 696 990 626 1028 q 797 883 765 951 q 814 722 829 815 l 606 722 q 588 815 617 783 q 496 847 558 847 q 394 815 433 847 q 344 722 356 783 l 276 292 q 296 199 267 232 q 388 167 325 167 q 489 199 450 167 q 538 292 528 232 l 551 379 l 401 379 l 429 556 l 788 556 l 746 292 q 678 131 732 200 q 543 24 625 63 q 358 -14 461 -14 m 532 1111 q 356 1169 418 1111 q 308 1319 294 1226 l 465 1319 q 482 1256 460 1281 q 547 1232 504 1232 q 622 1256 592 1232 q 658 1319 653 1281 l 821 1319 q 727 1169 807 1226 q 532 1111 647 1111 z "},"Ǧ":{"ha":833,"x_min":54,"x_max":849,"o":"m 358 -14 q 186 24 257 -14 q 85 131 115 63 q 68 292 54 200 l 136 722 q 204 883 151 815 q 340 990 257 951 q 524 1028 422 1028 q 696 990 626 1028 q 797 883 765 951 q 814 722 829 815 l 606 722 q 588 815 617 783 q 496 847 558 847 q 394 815 433 847 q 344 722 356 783 l 276 292 q 296 199 267 232 q 388 167 325 167 q 489 199 450 167 q 538 292 528 232 l 551 379 l 401 379 l 429 556 l 788 556 l 746 292 q 678 131 732 200 q 543 24 625 63 q 358 -14 461 -14 m 436 1125 l 279 1319 l 463 1319 l 547 1222 l 656 1319 l 849 1319 l 631 1125 l 436 1125 z "},"Ĝ":{"ha":833,"x_min":54,"x_max":829,"o":"m 358 -14 q 186 24 257 -14 q 85 131 115 63 q 68 292 54 200 l 136 722 q 204 883 151 815 q 340 990 257 951 q 524 1028 422 1028 q 696 990 626 1028 q 797 883 765 951 q 814 722 829 815 l 606 722 q 588 815 617 783 q 496 847 558 847 q 394 815 433 847 q 344 722 356 783 l 276 292 q 296 199 267 232 q 388 167 325 167 q 489 199 450 167 q 538 292 528 232 l 551 379 l 401 379 l 429 556 l 788 556 l 746 292 q 678 131 732 200 q 543 24 625 63 q 358 -14 461 -14 m 249 1125 l 467 1319 l 661 1319 l 818 1125 l 635 1125 l 550 1222 l 442 1125 l 249 1125 z "},"Ģ":{"ha":833,"x_min":54,"x_max":829,"o":"m 358 -14 q 186 24 257 -14 q 85 131 115 63 q 68 292 54 200 l 136 722 q 204 883 151 815 q 340 990 257 951 q 524 1028 422 1028 q 696 990 626 1028 q 797 883 765 951 q 814 722 829 815 l 606 722 q 588 815 617 783 q 496 847 558 847 q 394 815 433 847 q 344 722 356 783 l 276 292 q 296 199 267 232 q 388 167 325 167 q 489 199 450 167 q 538 292 528 232 l 551 379 l 401 379 l 429 556 l 788 556 l 746 292 q 678 131 732 200 q 543 24 625 63 q 358 -14 461 -14 m 131 -333 l 294 -132 l 511 -132 l 319 -333 l 131 -333 z "},"Ġ":{"ha":833,"x_min":54,"x_max":829,"o":"m 358 -14 q 186 24 257 -14 q 85 131 115 63 q 68 292 54 200 l 136 722 q 204 883 151 815 q 340 990 257 951 q 524 1028 422 1028 q 696 990 626 1028 q 797 883 765 951 q 814 722 829 815 l 606 722 q 588 815 617 783 q 496 847 558 847 q 394 815 433 847 q 344 722 356 783 l 276 292 q 296 199 267 232 q 388 167 325 167 q 489 199 450 167 q 538 292 528 232 l 551 379 l 401 379 l 429 556 l 788 556 l 746 292 q 678 131 732 200 q 543 24 625 63 q 358 -14 461 -14 m 532 1114 q 446 1143 475 1114 q 424 1222 417 1172 q 471 1301 432 1272 q 567 1331 510 1331 q 653 1301 624 1331 q 674 1222 682 1272 q 628 1143 667 1172 q 532 1114 589 1114 z "},"H":{"ha":833,"x_min":31,"x_max":842,"o":"m 31 0 l 192 1014 l 400 1014 l 338 625 l 571 625 l 633 1014 l 842 1014 l 681 0 l 472 0 l 540 431 l 307 431 l 239 0 l 31 0 z "},"Ħ":{"ha":833,"x_min":31,"x_max":896,"o":"m 69 729 l 90 861 l 896 861 l 875 729 l 69 729 m 31 0 l 192 1014 l 400 1014 l 338 625 l 571 625 l 633 1014 l 842 1014 l 681 0 l 472 0 l 540 431 l 307 431 l 239 0 l 31 0 z "},"Ĥ":{"ha":833,"x_min":31,"x_max":842,"o":"m 31 0 l 192 1014 l 400 1014 l 338 625 l 571 625 l 633 1014 l 842 1014 l 681 0 l 472 0 l 540 431 l 307 431 l 239 0 l 31 0 m 249 1125 l 467 1319 l 661 1319 l 818 1125 l 635 1125 l 550 1222 l 442 1125 l 249 1125 z "},"I":{"ha":833,"x_min":50,"x_max":822,"o":"m 50 0 l 79 181 l 281 181 l 383 833 l 182 833 l 211 1014 l 822 1014 l 793 833 l 592 833 l 489 181 l 690 181 l 661 0 l 50 0 z "},"Í":{"ha":833,"x_min":50,"x_max":822,"o":"m 50 0 l 79 181 l 281 181 l 383 833 l 182 833 l 211 1014 l 822 1014 l 793 833 l 592 833 l 489 181 l 690 181 l 661 0 l 50 0 m 407 1125 l 583 1319 l 815 1319 l 622 1125 l 407 1125 z "},"Ĭ":{"ha":833,"x_min":50,"x_max":822,"o":"m 50 0 l 79 181 l 281 181 l 383 833 l 182 833 l 211 1014 l 822 1014 l 793 833 l 592 833 l 489 181 l 690 181 l 661 0 l 50 0 m 532 1111 q 356 1169 418 1111 q 308 1319 294 1226 l 465 1319 q 482 1256 460 1281 q 547 1232 504 1232 q 622 1256 592 1232 q 658 1319 653 1281 l 821 1319 q 727 1169 807 1226 q 532 1111 647 1111 z "},"Î":{"ha":833,"x_min":50,"x_max":822,"o":"m 50 0 l 79 181 l 281 181 l 383 833 l 182 833 l 211 1014 l 822 1014 l 793 833 l 592 833 l 489 181 l 690 181 l 661 0 l 50 0 m 249 1125 l 467 1319 l 661 1319 l 818 1125 l 635 1125 l 550 1222 l 442 1125 l 249 1125 z "},"Ï":{"ha":833,"x_min":50,"x_max":838,"o":"m 50 0 l 79 181 l 281 181 l 383 833 l 182 833 l 211 1014 l 822 1014 l 793 833 l 592 833 l 489 181 l 690 181 l 661 0 l 50 0 m 701 1114 q 625 1143 650 1114 q 607 1222 600 1172 q 650 1301 615 1272 q 736 1331 685 1331 q 813 1301 788 1331 q 829 1222 838 1272 q 788 1143 822 1172 q 701 1114 753 1114 m 363 1114 q 286 1143 311 1114 q 268 1222 261 1172 q 311 1301 276 1272 q 397 1331 346 1331 q 474 1301 449 1331 q 490 1222 499 1272 q 449 1143 483 1172 q 363 1114 414 1114 z "},"İ":{"ha":833,"x_min":50,"x_max":822,"o":"m 50 0 l 79 181 l 281 181 l 383 833 l 182 833 l 211 1014 l 822 1014 l 793 833 l 592 833 l 489 181 l 690 181 l 661 0 l 50 0 m 532 1114 q 446 1143 475 1114 q 424 1222 417 1172 q 471 1301 432 1272 q 567 1331 510 1331 q 653 1301 624 1331 q 674 1222 682 1272 q 628 1143 667 1172 q 532 1114 589 1114 z "},"Ị":{"ha":833,"x_min":50,"x_max":822,"o":"m 50 0 l 79 181 l 281 181 l 383 833 l 182 833 l 211 1014 l 822 1014 l 793 833 l 592 833 l 489 181 l 690 181 l 661 0 l 50 0 m 318 -324 q 232 -294 261 -324 q 210 -215 203 -265 q 257 -136 218 -165 q 353 -107 296 -107 q 439 -136 410 -107 q 460 -215 468 -165 q 414 -294 453 -265 q 318 -324 375 -324 z "},"Ì":{"ha":833,"x_min":50,"x_max":822,"o":"m 50 0 l 79 181 l 281 181 l 383 833 l 182 833 l 211 1014 l 822 1014 l 793 833 l 592 833 l 489 181 l 690 181 l 661 0 l 50 0 m 450 1125 l 318 1319 l 539 1319 l 654 1125 l 450 1125 z "},"Ỉ":{"ha":833,"x_min":50,"x_max":822,"o":"m 50 0 l 79 181 l 281 181 l 383 833 l 182 833 l 211 1014 l 822 1014 l 793 833 l 592 833 l 489 181 l 690 181 l 661 0 l 50 0 m 464 1106 l 544 1186 q 565 1209 558 1200 q 572 1226 571 1218 q 539 1250 576 1250 l 436 1250 l 454 1368 l 600 1368 q 701 1335 665 1368 q 726 1249 736 1303 q 713 1204 724 1226 q 683 1164 701 1182 l 625 1106 l 464 1106 z "},"Ī":{"ha":833,"x_min":50,"x_max":822,"o":"m 50 0 l 79 181 l 281 181 l 383 833 l 182 833 l 211 1014 l 822 1014 l 793 833 l 592 833 l 489 181 l 690 181 l 661 0 l 50 0 m 286 1139 l 310 1292 l 810 1292 l 786 1139 l 286 1139 z "},"Į":{"ha":833,"x_min":50,"x_max":822,"o":"m 300 -312 q 174 -270 215 -312 q 143 -160 132 -228 q 199 -63 150 -111 q 325 15 249 -15 l 444 15 l 393 -25 q 344 -74 363 -50 q 322 -115 325 -97 q 333 -151 319 -136 q 378 -167 347 -167 l 474 -167 l 450 -312 l 300 -312 m 50 0 l 79 181 l 281 181 l 383 833 l 182 833 l 211 1014 l 822 1014 l 793 833 l 592 833 l 489 181 l 690 181 l 661 0 l 50 0 z "},"Ĩ":{"ha":833,"x_min":50,"x_max":822,"o":"m 50 0 l 79 181 l 281 181 l 383 833 l 182 833 l 211 1014 l 822 1014 l 793 833 l 592 833 l 489 181 l 690 181 l 661 0 l 50 0 m 629 1111 q 559 1124 585 1111 q 518 1153 533 1136 q 489 1182 503 1169 q 454 1194 475 1194 q 422 1182 436 1194 q 406 1149 408 1169 l 400 1118 l 282 1118 l 290 1167 q 351 1286 301 1239 q 469 1333 401 1333 q 540 1321 514 1333 q 581 1292 565 1308 q 610 1263 596 1275 q 644 1250 624 1250 q 676 1260 664 1250 q 692 1289 689 1271 l 697 1326 l 815 1326 l 808 1278 q 748 1158 797 1206 q 629 1111 699 1111 z "},"J":{"ha":833,"x_min":-8,"x_max":822,"o":"m 311 -15 q 72 72 151 -15 q 15 306 -8 158 l 224 306 q 245 203 214 242 q 340 165 276 165 q 448 202 404 165 q 501 303 492 239 l 582 819 l 353 819 l 385 1014 l 822 1014 l 710 303 q 640 134 694 206 q 502 24 586 63 q 311 -15 418 -15 z "},"Ĵ":{"ha":833,"x_min":-8,"x_max":901,"o":"m 311 -15 q 72 72 151 -15 q 15 306 -8 158 l 224 306 q 245 203 214 242 q 340 165 276 165 q 448 202 404 165 q 501 303 492 239 l 582 819 l 353 819 l 385 1014 l 822 1014 l 710 303 q 640 134 694 206 q 502 24 586 63 q 311 -15 418 -15 m 332 1125 l 550 1319 l 744 1319 l 901 1125 l 718 1125 l 633 1222 l 525 1125 l 332 1125 z "},"K":{"ha":833,"x_min":29,"x_max":890,"o":"m 29 0 l 190 1014 l 399 1014 l 336 621 l 431 621 l 664 1014 l 890 1014 l 596 517 l 738 0 l 517 0 l 411 429 l 306 429 l 238 0 l 29 0 z "},"Ķ":{"ha":833,"x_min":29,"x_max":890,"o":"m 29 0 l 190 1014 l 399 1014 l 336 621 l 431 621 l 664 1014 l 890 1014 l 596 517 l 738 0 l 517 0 l 411 429 l 306 429 l 238 0 l 29 0 m 125 -333 l 289 -132 l 506 -132 l 314 -333 l 125 -333 z "},"L":{"ha":833,"x_min":71,"x_max":719,"o":"m 71 0 l 232 1014 l 440 1014 l 310 194 l 719 194 l 689 0 l 71 0 z "},"Ĺ":{"ha":833,"x_min":71,"x_max":719,"o":"m 71 0 l 232 1014 l 440 1014 l 310 194 l 719 194 l 689 0 l 71 0 m 226 1125 l 403 1319 l 635 1319 l 442 1125 l 226 1125 z "},"Ľ":{"ha":833,"x_min":71,"x_max":788,"o":"m 71 0 l 232 1014 l 440 1014 l 310 194 l 719 194 l 689 0 l 71 0 m 539 764 l 593 1014 l 788 1014 l 719 764 l 539 764 z "},"Ļ":{"ha":833,"x_min":71,"x_max":719,"o":"m 71 0 l 232 1014 l 440 1014 l 310 194 l 719 194 l 689 0 l 71 0 m 153 -333 l 317 -132 l 533 -132 l 342 -333 l 153 -333 z "},"Ŀ":{"ha":833,"x_min":71,"x_max":761,"o":"m 71 0 l 232 1014 l 440 1014 l 310 194 l 719 194 l 689 0 l 71 0 z "},"Ł":{"ha":833,"x_min":17,"x_max":733,"o":"m 17 313 l 49 514 l 618 785 l 588 583 l 17 313 m 85 0 l 246 1014 l 454 1014 l 324 194 l 733 194 l 703 0 l 85 0 z "},"M":{"ha":833,"x_min":-3,"x_max":875,"o":"m -3 0 l 158 1014 l 389 1014 l 431 694 q 440 607 438 644 q 440 554 442 569 q 458 607 444 569 q 493 694 471 644 l 636 1014 l 875 1014 l 714 0 l 524 0 l 568 278 q 597 438 581 354 q 633 606 614 522 q 669 762 651 689 q 701 889 688 835 l 513 431 l 336 431 l 286 889 q 281 766 285 838 q 271 612 278 694 q 254 443 264 529 q 232 278 244 357 l 188 0 l -3 0 z "},"N":{"ha":833,"x_min":22,"x_max":850,"o":"m 22 0 l 183 1014 l 424 1014 l 564 229 q 574 348 568 281 q 586 483 579 415 q 600 597 593 550 l 667 1014 l 850 1014 l 689 0 l 449 0 l 310 785 q 302 679 307 740 q 291 556 297 618 q 276 444 285 493 l 206 0 l 22 0 z "},"Ń":{"ha":833,"x_min":22,"x_max":850,"o":"m 22 0 l 183 1014 l 424 1014 l 564 229 q 574 348 568 281 q 586 483 579 415 q 600 597 593 550 l 667 1014 l 850 1014 l 689 0 l 449 0 l 310 785 q 302 679 307 740 q 291 556 297 618 q 276 444 285 493 l 206 0 l 22 0 m 407 1125 l 583 1319 l 815 1319 l 622 1125 l 407 1125 z "},"Ň":{"ha":833,"x_min":22,"x_max":850,"o":"m 22 0 l 183 1014 l 424 1014 l 564 229 q 574 348 568 281 q 586 483 579 415 q 600 597 593 550 l 667 1014 l 850 1014 l 689 0 l 449 0 l 310 785 q 302 679 307 740 q 291 556 297 618 q 276 444 285 493 l 206 0 l 22 0 m 436 1125 l 279 1319 l 463 1319 l 547 1222 l 656 1319 l 849 1319 l 631 1125 l 436 1125 z "},"Ņ":{"ha":833,"x_min":22,"x_max":850,"o":"m 22 0 l 183 1014 l 424 1014 l 564 229 q 574 348 568 281 q 586 483 579 415 q 600 597 593 550 l 667 1014 l 850 1014 l 689 0 l 449 0 l 310 785 q 302 679 307 740 q 291 556 297 618 q 276 444 285 493 l 206 0 l 22 0 m 129 -333 l 293 -132 l 501 -132 l 310 -333 l 129 -333 z "},"Ŋ":{"ha":833,"x_min":22,"x_max":850,"o":"m 246 -250 l 278 -49 l 361 -49 q 448 -21 414 -49 q 489 57 482 7 l 310 785 q 302 679 307 740 q 291 556 297 618 q 276 444 285 493 l 206 0 l 22 0 l 183 1014 l 419 1014 l 586 357 q 595 477 590 408 q 607 615 600 546 q 621 731 614 683 l 667 1014 l 850 1014 l 694 35 q 628 -113 682 -49 q 494 -214 575 -178 q 315 -250 414 -250 l 246 -250 z "},"Ñ":{"ha":833,"x_min":22,"x_max":850,"o":"m 22 0 l 183 1014 l 424 1014 l 564 229 q 574 348 568 281 q 586 483 579 415 q 600 597 593 550 l 667 1014 l 850 1014 l 689 0 l 449 0 l 310 785 q 302 679 307 740 q 291 556 297 618 q 276 444 285 493 l 206 0 l 22 0 m 629 1111 q 559 1124 585 1111 q 518 1153 533 1136 q 489 1182 503 1169 q 454 1194 475 1194 q 422 1182 436 1194 q 406 1149 408 1169 l 400 1118 l 282 1118 l 290 1167 q 351 1286 301 1239 q 469 1333 401 1333 q 540 1321 514 1333 q 581 1292 565 1308 q 610 1263 596 1275 q 644 1250 624 1250 q 676 1260 664 1250 q 692 1289 689 1271 l 697 1326 l 815 1326 l 808 1278 q 748 1158 797 1206 q 629 1111 699 1111 z "},"O":{"ha":833,"x_min":54,"x_max":818,"o":"m 353 -14 q 183 24 251 -14 q 84 131 114 63 q 68 292 54 200 l 136 722 q 203 883 151 814 q 335 990 254 951 q 518 1028 417 1028 q 690 990 621 1028 q 788 883 758 951 q 803 722 818 814 l 735 292 q 669 131 721 200 q 536 24 617 63 q 353 -14 456 -14 m 382 167 q 481 199 444 167 q 526 292 517 232 l 594 722 q 580 815 606 783 q 490 847 554 847 q 391 815 426 847 q 344 722 356 783 l 276 292 q 293 199 267 232 q 382 167 319 167 z "},"Ó":{"ha":833,"x_min":54,"x_max":818,"o":"m 353 -14 q 183 24 251 -14 q 84 131 114 63 q 68 292 54 200 l 136 722 q 203 883 151 814 q 335 990 254 951 q 518 1028 417 1028 q 690 990 621 1028 q 788 883 758 951 q 803 722 818 814 l 735 292 q 669 131 721 200 q 536 24 617 63 q 353 -14 456 -14 m 382 167 q 481 199 444 167 q 526 292 517 232 l 594 722 q 580 815 606 783 q 490 847 554 847 q 391 815 426 847 q 344 722 356 783 l 276 292 q 293 199 267 232 q 382 167 319 167 m 407 1125 l 583 1319 l 815 1319 l 622 1125 l 407 1125 z "},"Ŏ":{"ha":833,"x_min":54,"x_max":821,"o":"m 353 -14 q 183 24 251 -14 q 84 131 114 63 q 68 292 54 200 l 136 722 q 203 883 151 814 q 335 990 254 951 q 518 1028 417 1028 q 690 990 621 1028 q 788 883 758 951 q 803 722 818 814 l 735 292 q 669 131 721 200 q 536 24 617 63 q 353 -14 456 -14 m 382 167 q 481 199 444 167 q 526 292 517 232 l 594 722 q 580 815 606 783 q 490 847 554 847 q 391 815 426 847 q 344 722 356 783 l 276 292 q 293 199 267 232 q 382 167 319 167 m 532 1111 q 356 1169 418 1111 q 308 1319 294 1226 l 465 1319 q 482 1256 460 1281 q 547 1232 504 1232 q 622 1256 592 1232 q 658 1319 653 1281 l 821 1319 q 727 1169 807 1226 q 532 1111 647 1111 z "},"Ô":{"ha":833,"x_min":54,"x_max":818,"o":"m 353 -14 q 183 24 251 -14 q 84 131 114 63 q 68 292 54 200 l 136 722 q 203 883 151 814 q 335 990 254 951 q 518 1028 417 1028 q 690 990 621 1028 q 788 883 758 951 q 803 722 818 814 l 735 292 q 669 131 721 200 q 536 24 617 63 q 353 -14 456 -14 m 382 167 q 481 199 444 167 q 526 292 517 232 l 594 722 q 580 815 606 783 q 490 847 554 847 q 391 815 426 847 q 344 722 356 783 l 276 292 q 293 199 267 232 q 382 167 319 167 m 249 1125 l 467 1319 l 661 1319 l 818 1125 l 635 1125 l 550 1222 l 442 1125 l 249 1125 z "},"Ố":{"ha":833,"x_min":54,"x_max":1099,"o":"m 353 -14 q 183 24 251 -14 q 84 131 114 63 q 68 292 54 200 l 136 722 q 203 883 151 814 q 335 990 254 951 q 518 1028 417 1028 q 690 990 621 1028 q 788 883 758 951 q 803 722 818 814 l 735 292 q 669 131 721 200 q 536 24 617 63 q 353 -14 456 -14 m 382 167 q 481 199 444 167 q 526 292 517 232 l 594 722 q 580 815 606 783 q 490 847 554 847 q 391 815 426 847 q 344 722 356 783 l 276 292 q 293 199 267 232 q 382 167 319 167 m 717 1257 l 889 1417 l 1099 1417 l 913 1257 l 717 1257 m 243 1083 l 461 1278 l 656 1278 l 813 1083 l 631 1083 l 550 1181 l 439 1083 l 243 1083 z "},"Ộ":{"ha":833,"x_min":54,"x_max":818,"o":"m 249 1125 l 467 1319 l 661 1319 l 818 1125 l 635 1125 l 550 1222 l 442 1125 l 249 1125 m 353 -14 q 183 24 251 -14 q 84 131 114 63 q 68 292 54 200 l 136 722 q 203 883 151 814 q 335 990 254 951 q 518 1028 417 1028 q 690 990 621 1028 q 788 883 758 951 q 803 722 818 814 l 735 292 q 669 131 721 200 q 536 24 617 63 q 353 -14 456 -14 m 382 167 q 481 199 444 167 q 526 292 517 232 l 594 722 q 580 815 606 783 q 490 847 554 847 q 391 815 426 847 q 344 722 356 783 l 276 292 q 293 199 267 232 q 382 167 319 167 m 304 -324 q 218 -294 247 -324 q 196 -215 189 -265 q 243 -136 204 -165 q 339 -107 282 -107 q 425 -136 396 -107 q 446 -215 454 -165 q 400 -294 439 -265 q 304 -324 361 -324 z "},"Ồ":{"ha":833,"x_min":54,"x_max":951,"o":"m 353 -14 q 183 24 251 -14 q 84 131 114 63 q 68 292 54 200 l 136 722 q 203 883 151 814 q 335 990 254 951 q 518 1028 417 1028 q 690 990 621 1028 q 788 883 758 951 q 803 722 818 814 l 735 292 q 669 131 721 200 q 536 24 617 63 q 353 -14 456 -14 m 382 167 q 481 199 444 167 q 526 292 517 232 l 594 722 q 580 815 606 783 q 490 847 554 847 q 391 815 426 847 q 344 722 356 783 l 276 292 q 293 199 267 232 q 382 167 319 167 m 774 1257 l 640 1417 l 832 1417 l 951 1257 l 774 1257 m 243 1083 l 461 1278 l 656 1278 l 813 1083 l 631 1083 l 550 1181 l 439 1083 l 243 1083 z "},"Ổ":{"ha":833,"x_min":54,"x_max":975,"o":"m 353 -14 q 183 24 251 -14 q 84 131 114 63 q 68 292 54 200 l 136 722 q 203 883 151 814 q 335 990 254 951 q 518 1028 417 1028 q 690 990 621 1028 q 788 883 758 951 q 803 722 818 814 l 735 292 q 669 131 721 200 q 536 24 617 63 q 353 -14 456 -14 m 382 167 q 481 199 444 167 q 526 292 517 232 l 594 722 q 580 815 606 783 q 490 847 554 847 q 391 815 426 847 q 344 722 356 783 l 276 292 q 293 199 267 232 q 382 167 319 167 m 736 1208 l 790 1256 q 808 1274 803 1267 q 814 1288 813 1281 q 783 1311 818 1311 l 689 1311 l 706 1417 l 838 1417 q 940 1388 904 1417 q 967 1303 975 1358 q 951 1264 964 1285 q 921 1231 938 1243 l 892 1208 l 736 1208 m 243 1083 l 461 1278 l 656 1278 l 813 1083 l 631 1083 l 550 1181 l 439 1083 l 243 1083 z "},"Ỗ":{"ha":833,"x_min":54,"x_max":829,"o":"m 353 -14 q 183 24 251 -14 q 84 131 114 63 q 68 292 54 200 l 136 722 q 203 883 151 814 q 335 990 254 951 q 518 1028 417 1028 q 690 990 621 1028 q 788 883 758 951 q 803 722 818 814 l 735 292 q 669 131 721 200 q 536 24 617 63 q 353 -14 456 -14 m 382 167 q 481 199 444 167 q 526 292 517 232 l 594 722 q 580 815 606 783 q 490 847 554 847 q 391 815 426 847 q 344 722 356 783 l 276 292 q 293 199 267 232 q 382 167 319 167 m 667 1264 q 603 1272 631 1264 q 554 1288 576 1279 q 511 1305 532 1297 q 467 1313 490 1313 q 426 1278 433 1313 l 425 1271 l 307 1271 l 308 1278 q 363 1378 321 1340 q 469 1417 406 1417 q 533 1409 506 1417 q 582 1392 560 1401 q 625 1376 604 1383 q 669 1368 646 1368 q 696 1378 685 1368 q 710 1403 707 1388 l 711 1410 l 829 1410 l 828 1403 q 773 1301 815 1339 q 667 1264 731 1264 m 243 1083 l 397 1228 l 703 1228 l 813 1083 l 624 1083 l 543 1188 l 432 1083 l 243 1083 z "},"Ö":{"ha":833,"x_min":54,"x_max":838,"o":"m 353 -14 q 183 24 251 -14 q 84 131 114 63 q 68 292 54 200 l 136 722 q 203 883 151 814 q 335 990 254 951 q 518 1028 417 1028 q 690 990 621 1028 q 788 883 758 951 q 803 722 818 814 l 735 292 q 669 131 721 200 q 536 24 617 63 q 353 -14 456 -14 m 382 167 q 481 199 444 167 q 526 292 517 232 l 594 722 q 580 815 606 783 q 490 847 554 847 q 391 815 426 847 q 344 722 356 783 l 276 292 q 293 199 267 232 q 382 167 319 167 m 701 1114 q 625 1143 650 1114 q 607 1222 600 1172 q 650 1301 615 1272 q 736 1331 685 1331 q 813 1301 788 1331 q 829 1222 838 1272 q 788 1143 822 1172 q 701 1114 753 1114 m 363 1114 q 286 1143 311 1114 q 268 1222 261 1172 q 311 1301 276 1272 q 397 1331 346 1331 q 474 1301 449 1331 q 490 1222 499 1272 q 449 1143 483 1172 q 363 1114 414 1114 z "},"Ọ":{"ha":833,"x_min":54,"x_max":818,"o":"m 353 -14 q 183 24 251 -14 q 84 131 114 63 q 68 292 54 200 l 136 722 q 203 883 151 814 q 335 990 254 951 q 518 1028 417 1028 q 690 990 621 1028 q 788 883 758 951 q 803 722 818 814 l 735 292 q 669 131 721 200 q 536 24 617 63 q 353 -14 456 -14 m 382 167 q 481 199 444 167 q 526 292 517 232 l 594 722 q 580 815 606 783 q 490 847 554 847 q 391 815 426 847 q 344 722 356 783 l 276 292 q 293 199 267 232 q 382 167 319 167 m 318 -324 q 232 -294 261 -324 q 210 -215 203 -265 q 257 -136 218 -165 q 353 -107 296 -107 q 439 -136 410 -107 q 460 -215 468 -165 q 414 -294 453 -265 q 318 -324 375 -324 z "},"Ò":{"ha":833,"x_min":54,"x_max":818,"o":"m 353 -14 q 183 24 251 -14 q 84 131 114 63 q 68 292 54 200 l 136 722 q 203 883 151 814 q 335 990 254 951 q 518 1028 417 1028 q 690 990 621 1028 q 788 883 758 951 q 803 722 818 814 l 735 292 q 669 131 721 200 q 536 24 617 63 q 353 -14 456 -14 m 382 167 q 481 199 444 167 q 526 292 517 232 l 594 722 q 580 815 606 783 q 490 847 554 847 q 391 815 426 847 q 344 722 356 783 l 276 292 q 293 199 267 232 q 382 167 319 167 m 450 1125 l 318 1319 l 539 1319 l 654 1125 l 450 1125 z "},"Ỏ":{"ha":833,"x_min":54,"x_max":818,"o":"m 353 -14 q 183 24 251 -14 q 84 131 114 63 q 68 292 54 200 l 136 722 q 203 883 151 814 q 335 990 254 951 q 518 1028 417 1028 q 690 990 621 1028 q 788 883 758 951 q 803 722 818 814 l 735 292 q 669 131 721 200 q 536 24 617 63 q 353 -14 456 -14 m 382 167 q 481 199 444 167 q 526 292 517 232 l 594 722 q 580 815 606 783 q 490 847 554 847 q 391 815 426 847 q 344 722 356 783 l 276 292 q 293 199 267 232 q 382 167 319 167 m 464 1106 l 544 1186 q 565 1209 558 1200 q 572 1226 571 1218 q 539 1250 576 1250 l 436 1250 l 454 1368 l 600 1368 q 701 1335 665 1368 q 726 1249 736 1303 q 713 1204 724 1226 q 683 1164 701 1182 l 625 1106 l 464 1106 z "},"Ơ":{"ha":833,"x_min":54,"x_max":931,"o":"m 600 833 l 622 972 l 692 972 q 730 985 715 972 q 747 1021 744 999 l 764 1125 l 931 1125 l 914 1021 q 838 885 901 936 q 683 833 774 833 l 600 833 m 353 -14 q 183 24 251 -14 q 84 131 114 63 q 68 292 54 200 l 136 722 q 203 883 151 814 q 335 990 254 951 q 518 1028 417 1028 q 690 990 621 1028 q 788 883 758 951 q 803 722 818 814 l 735 292 q 669 131 721 200 q 536 24 617 63 q 353 -14 456 -14 m 382 167 q 481 199 444 167 q 526 292 517 232 l 594 722 q 580 815 606 783 q 490 847 554 847 q 391 815 426 847 q 344 722 356 783 l 276 292 q 293 199 267 232 q 382 167 319 167 z "},"Ớ":{"ha":833,"x_min":54,"x_max":931,"o":"m 600 833 l 622 972 l 692 972 q 730 985 715 972 q 747 1021 744 999 l 764 1125 l 931 1125 l 914 1021 q 838 885 901 936 q 683 833 774 833 l 600 833 m 353 -14 q 183 24 251 -14 q 84 131 114 63 q 68 292 54 200 l 136 722 q 203 883 151 814 q 335 990 254 951 q 518 1028 417 1028 q 690 990 621 1028 q 788 883 758 951 q 803 722 818 814 l 735 292 q 669 131 721 200 q 536 24 617 63 q 353 -14 456 -14 m 382 167 q 481 199 444 167 q 526 292 517 232 l 594 722 q 580 815 606 783 q 490 847 554 847 q 391 815 426 847 q 344 722 356 783 l 276 292 q 293 199 267 232 q 382 167 319 167 m 393 1125 l 569 1319 l 801 1319 l 608 1125 l 393 1125 z "},"Ợ":{"ha":833,"x_min":54,"x_max":931,"o":"m 600 833 l 622 972 l 692 972 q 730 985 715 972 q 747 1021 744 999 l 764 1125 l 931 1125 l 914 1021 q 838 885 901 936 q 683 833 774 833 l 600 833 m 353 -14 q 183 24 251 -14 q 84 131 114 63 q 68 292 54 200 l 136 722 q 203 883 151 814 q 335 990 254 951 q 518 1028 417 1028 q 690 990 621 1028 q 788 883 758 951 q 803 722 818 814 l 735 292 q 669 131 721 200 q 536 24 617 63 q 353 -14 456 -14 m 382 167 q 481 199 444 167 q 526 292 517 232 l 594 722 q 580 815 606 783 q 490 847 554 847 q 391 815 426 847 q 344 722 356 783 l 276 292 q 293 199 267 232 q 382 167 319 167 m 318 -324 q 232 -294 261 -324 q 210 -215 203 -265 q 257 -136 218 -165 q 353 -107 296 -107 q 439 -136 410 -107 q 460 -215 468 -165 q 414 -294 453 -265 q 318 -324 375 -324 z "},"Ờ":{"ha":833,"x_min":54,"x_max":931,"o":"m 600 833 l 622 972 l 692 972 q 730 985 715 972 q 747 1021 744 999 l 764 1125 l 931 1125 l 914 1021 q 838 885 901 936 q 683 833 774 833 l 600 833 m 353 -14 q 183 24 251 -14 q 84 131 114 63 q 68 292 54 200 l 136 722 q 203 883 151 814 q 335 990 254 951 q 518 1028 417 1028 q 690 990 621 1028 q 788 883 758 951 q 803 722 818 814 l 735 292 q 669 131 721 200 q 536 24 617 63 q 353 -14 456 -14 m 382 167 q 481 199 444 167 q 526 292 517 232 l 594 722 q 580 815 606 783 q 490 847 554 847 q 391 815 426 847 q 344 722 356 783 l 276 292 q 293 199 267 232 q 382 167 319 167 m 436 1125 l 304 1319 l 525 1319 l 640 1125 l 436 1125 z "},"Ở":{"ha":833,"x_min":54,"x_max":931,"o":"m 600 833 l 622 972 l 692 972 q 730 985 715 972 q 747 1021 744 999 l 764 1125 l 931 1125 l 914 1021 q 838 885 901 936 q 683 833 774 833 l 600 833 m 353 -14 q 183 24 251 -14 q 84 131 114 63 q 68 292 54 200 l 136 722 q 203 883 151 814 q 335 990 254 951 q 518 1028 417 1028 q 690 990 621 1028 q 788 883 758 951 q 803 722 818 814 l 735 292 q 669 131 721 200 q 536 24 617 63 q 353 -14 456 -14 m 382 167 q 481 199 444 167 q 526 292 517 232 l 594 722 q 580 815 606 783 q 490 847 554 847 q 391 815 426 847 q 344 722 356 783 l 276 292 q 293 199 267 232 q 382 167 319 167 m 443 1106 l 524 1186 q 544 1209 538 1200 q 551 1226 550 1218 q 518 1250 556 1250 l 415 1250 l 433 1368 l 579 1368 q 680 1335 644 1368 q 706 1249 715 1303 q 692 1204 703 1226 q 663 1164 681 1182 l 604 1106 l 443 1106 z "},"Ỡ":{"ha":833,"x_min":54,"x_max":931,"o":"m 600 833 l 622 972 l 692 972 q 730 985 715 972 q 747 1021 744 999 l 764 1125 l 931 1125 l 914 1021 q 838 885 901 936 q 683 833 774 833 l 600 833 m 353 -14 q 183 24 251 -14 q 84 131 114 63 q 68 292 54 200 l 136 722 q 203 883 151 814 q 335 990 254 951 q 518 1028 417 1028 q 690 990 621 1028 q 788 883 758 951 q 803 722 818 814 l 735 292 q 669 131 721 200 q 536 24 617 63 q 353 -14 456 -14 m 382 167 q 481 199 444 167 q 526 292 517 232 l 594 722 q 580 815 606 783 q 490 847 554 847 q 391 815 426 847 q 344 722 356 783 l 276 292 q 293 199 267 232 q 382 167 319 167 m 615 1111 q 545 1124 571 1111 q 504 1153 519 1136 q 475 1182 489 1169 q 440 1194 461 1194 q 408 1182 422 1194 q 392 1149 394 1169 l 386 1118 l 268 1118 l 276 1167 q 338 1286 288 1239 q 456 1333 388 1333 q 526 1321 500 1333 q 567 1292 551 1308 q 596 1263 582 1275 q 631 1250 610 1250 q 663 1260 650 1250 q 678 1289 675 1271 l 683 1326 l 801 1326 l 794 1278 q 734 1158 783 1206 q 615 1111 685 1111 z "},"Ő":{"ha":833,"x_min":54,"x_max":943,"o":"m 353 -14 q 183 24 251 -14 q 84 131 114 63 q 68 292 54 200 l 136 722 q 203 883 151 814 q 335 990 254 951 q 518 1028 417 1028 q 690 990 621 1028 q 788 883 758 951 q 803 722 818 814 l 735 292 q 669 131 721 200 q 536 24 617 63 q 353 -14 456 -14 m 382 167 q 481 199 444 167 q 526 292 517 232 l 594 722 q 580 815 606 783 q 490 847 554 847 q 391 815 426 847 q 344 722 356 783 l 276 292 q 293 199 267 232 q 382 167 319 167 m 564 1125 l 740 1319 l 943 1319 l 753 1125 l 564 1125 m 258 1125 l 435 1319 l 638 1319 l 447 1125 l 258 1125 z "},"Ō":{"ha":833,"x_min":54,"x_max":818,"o":"m 353 -14 q 183 24 251 -14 q 84 131 114 63 q 68 292 54 200 l 136 722 q 203 883 151 814 q 335 990 254 951 q 518 1028 417 1028 q 690 990 621 1028 q 788 883 758 951 q 803 722 818 814 l 735 292 q 669 131 721 200 q 536 24 617 63 q 353 -14 456 -14 m 382 167 q 481 199 444 167 q 526 292 517 232 l 594 722 q 580 815 606 783 q 490 847 554 847 q 391 815 426 847 q 344 722 356 783 l 276 292 q 293 199 267 232 q 382 167 319 167 m 286 1139 l 310 1292 l 810 1292 l 786 1139 l 286 1139 z "},"Ǫ":{"ha":833,"x_min":56,"x_max":819,"o":"m 382 -312 q 256 -270 297 -312 q 225 -160 214 -228 q 260 -91 231 -126 q 333 -24 289 -56 q 428 29 378 8 q 408 3 426 19 q 354 -14 389 -14 q 184 24 253 -14 q 85 131 115 63 q 69 292 56 200 l 138 722 q 204 883 153 814 q 337 990 256 951 q 519 1028 418 1028 q 691 990 622 1028 q 790 883 760 951 q 804 722 819 814 l 736 292 q 672 137 722 206 q 547 29 621 68 l 472 -24 q 424 -71 442 -46 q 404 -114 407 -96 q 415 -151 401 -136 q 460 -167 429 -167 l 556 -167 l 532 -312 l 382 -312 m 383 167 q 482 199 446 167 q 528 292 518 232 l 596 722 q 581 815 607 783 q 492 847 556 847 q 392 815 428 847 q 346 722 357 783 l 278 292 q 294 199 268 232 q 383 167 321 167 z "},"Ø":{"ha":833,"x_min":-49,"x_max":917,"o":"m -49 -56 l 753 1042 l 917 1042 l 115 -56 l -49 -56 m 353 -14 q 183 24 251 -14 q 84 131 114 63 q 68 292 54 200 l 136 722 q 203 883 151 814 q 335 990 254 951 q 518 1028 417 1028 q 690 990 621 1028 q 788 883 758 951 q 803 722 818 814 l 735 292 q 669 131 721 200 q 536 24 617 63 q 353 -14 456 -14 m 382 167 q 485 199 446 167 q 533 292 524 232 l 601 722 q 583 815 613 783 q 490 847 554 847 q 388 815 426 847 q 338 722 349 783 l 269 292 q 289 199 260 232 q 382 167 318 167 z "},"Ǿ":{"ha":833,"x_min":-49,"x_max":917,"o":"m -49 -56 l 753 1042 l 917 1042 l 115 -56 l -49 -56 m 353 -14 q 183 24 251 -14 q 84 131 114 63 q 68 292 54 200 l 136 722 q 203 883 151 814 q 335 990 254 951 q 518 1028 417 1028 q 690 990 621 1028 q 788 883 758 951 q 803 722 818 814 l 735 292 q 669 131 721 200 q 536 24 617 63 q 353 -14 456 -14 m 382 167 q 485 199 446 167 q 533 292 524 232 l 601 722 q 583 815 613 783 q 490 847 554 847 q 388 815 426 847 q 338 722 349 783 l 269 292 q 289 199 260 232 q 382 167 318 167 m 407 1125 l 583 1319 l 815 1319 l 622 1125 l 407 1125 z "},"Õ":{"ha":833,"x_min":54,"x_max":818,"o":"m 353 -14 q 183 24 251 -14 q 84 131 114 63 q 68 292 54 200 l 136 722 q 203 883 151 814 q 335 990 254 951 q 518 1028 417 1028 q 690 990 621 1028 q 788 883 758 951 q 803 722 818 814 l 735 292 q 669 131 721 200 q 536 24 617 63 q 353 -14 456 -14 m 382 167 q 481 199 444 167 q 526 292 517 232 l 594 722 q 580 815 606 783 q 490 847 554 847 q 391 815 426 847 q 344 722 356 783 l 276 292 q 293 199 267 232 q 382 167 319 167 m 629 1111 q 559 1124 585 1111 q 518 1153 533 1136 q 489 1182 503 1169 q 454 1194 475 1194 q 422 1182 436 1194 q 406 1149 408 1169 l 400 1118 l 282 1118 l 290 1167 q 351 1286 301 1239 q 469 1333 401 1333 q 540 1321 514 1333 q 581 1292 565 1308 q 610 1263 596 1275 q 644 1250 624 1250 q 676 1260 664 1250 q 692 1289 689 1271 l 697 1326 l 815 1326 l 808 1278 q 748 1158 797 1206 q 629 1111 699 1111 z "},"Œ":{"ha":833,"x_min":10,"x_max":906,"o":"m 181 -6 q 78 27 118 -6 q 24 122 38 60 q 24 271 10 185 l 100 751 q 147 901 114 839 q 231 995 181 963 q 344 1028 282 1028 q 424 1008 394 1028 q 466 959 453 988 q 478 903 479 931 l 485 903 l 503 1014 l 906 1014 l 878 840 l 654 840 l 617 607 l 806 607 l 778 432 l 589 432 l 549 175 l 772 175 l 744 0 l 342 0 l 361 119 l 354 119 q 324 64 346 93 q 267 15 303 35 q 181 -6 231 -6 m 281 168 q 343 195 318 168 q 376 271 368 222 l 453 751 q 443 827 460 800 q 389 854 426 854 q 327 827 353 854 q 294 751 301 800 l 218 271 q 228 196 211 224 q 281 168 244 168 z "},"P":{"ha":833,"x_min":31,"x_max":856,"o":"m 31 0 l 192 1014 l 538 1014 q 717 974 644 1014 q 823 861 790 933 q 840 692 856 789 q 769 523 825 596 q 628 410 714 450 q 435 369 542 369 l 297 369 l 239 0 l 31 0 m 328 557 l 465 557 q 577 594 532 557 q 632 692 622 631 q 608 790 642 753 q 507 826 574 826 l 369 826 l 328 557 z "},"Þ":{"ha":833,"x_min":36,"x_max":838,"o":"m 36 0 l 197 1014 l 406 1014 l 375 826 l 542 826 q 765 747 692 826 q 814 528 838 668 q 751 368 800 435 q 624 265 701 301 q 447 229 547 229 l 281 229 l 244 0 l 36 0 m 308 403 l 440 403 q 553 435 511 403 q 606 528 596 468 q 583 621 615 589 q 479 653 550 653 l 347 653 l 308 403 z "},"Q":{"ha":833,"x_min":54,"x_max":818,"o":"m 461 -250 l 347 6 l 381 -12 q 367 -13 375 -12 q 353 -14 360 -14 q 184 24 253 -14 q 85 132 115 63 q 68 292 54 201 l 136 722 q 203 883 151 815 q 337 990 256 951 q 518 1028 418 1028 q 687 990 618 1028 q 787 883 756 951 q 803 722 818 814 l 735 292 q 652 108 718 183 q 479 4 586 32 l 503 107 l 665 -250 l 461 -250 m 382 168 q 482 200 447 168 q 526 292 517 232 l 594 722 q 578 815 604 783 q 490 847 551 847 q 392 815 431 847 q 344 722 354 783 l 276 292 q 292 200 267 232 q 382 168 318 168 z "},"R":{"ha":833,"x_min":29,"x_max":836,"o":"m 29 0 l 190 1014 l 517 1014 q 698 976 625 1014 q 803 869 771 939 q 821 706 836 800 q 769 563 810 628 q 669 456 729 499 q 535 399 608 413 l 561 501 l 724 0 l 508 0 l 394 383 l 297 383 l 236 0 l 29 0 m 325 564 l 444 564 q 558 599 514 564 q 611 696 601 633 q 590 797 622 761 q 488 833 557 833 l 368 833 l 325 564 z "},"Ŕ":{"ha":833,"x_min":29,"x_max":836,"o":"m 29 0 l 190 1014 l 517 1014 q 698 976 625 1014 q 803 869 771 939 q 821 706 836 800 q 769 563 810 628 q 669 456 729 499 q 535 399 608 413 l 561 501 l 724 0 l 508 0 l 394 383 l 297 383 l 236 0 l 29 0 m 325 564 l 444 564 q 558 599 514 564 q 611 696 601 633 q 590 797 622 761 q 488 833 557 833 l 368 833 l 325 564 m 407 1125 l 583 1319 l 815 1319 l 622 1125 l 407 1125 z "},"Ř":{"ha":833,"x_min":29,"x_max":849,"o":"m 29 0 l 190 1014 l 517 1014 q 698 976 625 1014 q 803 869 771 939 q 821 706 836 800 q 769 563 810 628 q 669 456 729 499 q 535 399 608 413 l 561 501 l 724 0 l 508 0 l 394 383 l 297 383 l 236 0 l 29 0 m 325 564 l 444 564 q 558 599 514 564 q 611 696 601 633 q 590 797 622 761 q 488 833 557 833 l 368 833 l 325 564 m 436 1125 l 279 1319 l 463 1319 l 547 1222 l 656 1319 l 849 1319 l 631 1125 l 436 1125 z "},"Ŗ":{"ha":833,"x_min":29,"x_max":836,"o":"m 29 0 l 190 1014 l 517 1014 q 698 976 625 1014 q 803 869 771 939 q 821 706 836 800 q 769 563 810 628 q 669 456 729 499 q 535 399 608 413 l 561 501 l 724 0 l 508 0 l 394 383 l 297 383 l 236 0 l 29 0 m 325 564 l 444 564 q 558 599 514 564 q 611 696 601 633 q 590 797 622 761 q 488 833 557 833 l 368 833 l 325 564 m 129 -333 l 293 -132 l 501 -132 l 310 -333 l 129 -333 z "},"S":{"ha":833,"x_min":26,"x_max":829,"o":"m 353 -14 q 110 65 193 -14 q 49 278 26 144 l 257 278 q 283 197 249 226 q 386 167 318 167 q 493 196 451 167 q 543 276 535 225 q 528 357 550 324 q 460 401 507 390 l 361 425 q 176 538 236 456 q 135 735 117 619 q 200 890 149 824 q 332 992 251 956 q 515 1028 413 1028 q 750 951 671 1028 q 808 743 829 874 l 600 743 q 578 819 607 792 q 485 847 549 847 q 388 820 425 847 q 344 743 351 793 q 356 663 336 696 q 419 619 375 631 l 524 594 q 711 484 651 564 q 753 286 771 404 q 683 127 738 194 q 545 23 629 60 q 353 -14 461 -14 z "},"Ś":{"ha":833,"x_min":26,"x_max":829,"o":"m 353 -14 q 110 65 193 -14 q 49 278 26 144 l 257 278 q 283 197 249 226 q 386 167 318 167 q 493 196 451 167 q 543 276 535 225 q 528 357 550 324 q 460 401 507 390 l 361 425 q 176 538 236 456 q 135 735 117 619 q 200 890 149 824 q 332 992 251 956 q 515 1028 413 1028 q 750 951 671 1028 q 808 743 829 874 l 600 743 q 578 819 607 792 q 485 847 549 847 q 388 820 425 847 q 344 743 351 793 q 356 663 336 696 q 419 619 375 631 l 524 594 q 711 484 651 564 q 753 286 771 404 q 683 127 738 194 q 545 23 629 60 q 353 -14 461 -14 m 407 1125 l 583 1319 l 815 1319 l 622 1125 l 407 1125 z "},"Š":{"ha":833,"x_min":26,"x_max":849,"o":"m 353 -14 q 110 65 193 -14 q 49 278 26 144 l 257 278 q 283 197 249 226 q 386 167 318 167 q 493 196 451 167 q 543 276 535 225 q 528 357 550 324 q 460 401 507 390 l 361 425 q 176 538 236 456 q 135 735 117 619 q 200 890 149 824 q 332 992 251 956 q 515 1028 413 1028 q 750 951 671 1028 q 808 743 829 874 l 600 743 q 578 819 607 792 q 485 847 549 847 q 388 820 425 847 q 344 743 351 793 q 356 663 336 696 q 419 619 375 631 l 524 594 q 711 484 651 564 q 753 286 771 404 q 683 127 738 194 q 545 23 629 60 q 353 -14 461 -14 m 436 1125 l 279 1319 l 463 1319 l 547 1222 l 656 1319 l 849 1319 l 631 1125 l 436 1125 z "},"Ş":{"ha":833,"x_min":26,"x_max":829,"o":"m 160 -312 l 175 -215 l 286 -215 q 345 -199 321 -215 q 371 -165 369 -182 q 337 -115 376 -133 q 221 -96 297 -96 l 289 22 l 390 22 l 351 -54 q 437 -72 393 -57 q 508 -114 481 -86 q 528 -185 535 -142 q 460 -274 519 -236 q 313 -312 400 -312 l 160 -312 m 353 -14 q 110 65 193 -14 q 49 278 26 144 l 257 278 q 283 197 249 226 q 386 167 318 167 q 493 196 451 167 q 543 276 535 225 q 528 357 550 324 q 460 401 507 390 l 361 425 q 176 538 236 456 q 135 735 117 619 q 200 890 149 824 q 332 992 251 956 q 515 1028 413 1028 q 750 951 671 1028 q 808 743 829 874 l 600 743 q 578 819 607 792 q 485 847 549 847 q 388 820 425 847 q 344 743 351 793 q 356 663 336 696 q 419 619 375 631 l 524 594 q 711 484 651 564 q 753 286 771 404 q 683 127 738 194 q 545 23 629 60 q 353 -14 461 -14 z "},"Ŝ":{"ha":833,"x_min":26,"x_max":829,"o":"m 353 -14 q 110 65 193 -14 q 49 278 26 144 l 257 278 q 283 197 249 226 q 386 167 318 167 q 493 196 451 167 q 543 276 535 225 q 528 357 550 324 q 460 401 507 390 l 361 425 q 176 538 236 456 q 135 735 117 619 q 200 890 149 824 q 332 992 251 956 q 515 1028 413 1028 q 750 951 671 1028 q 808 743 829 874 l 600 743 q 578 819 607 792 q 485 847 549 847 q 388 820 425 847 q 344 743 351 793 q 356 663 336 696 q 419 619 375 631 l 524 594 q 711 484 651 564 q 753 286 771 404 q 683 127 738 194 q 545 23 629 60 q 353 -14 461 -14 m 249 1125 l 467 1319 l 661 1319 l 818 1125 l 635 1125 l 550 1222 l 442 1125 l 249 1125 z "},"Ș":{"ha":833,"x_min":26,"x_max":829,"o":"m 353 -14 q 110 65 193 -14 q 49 278 26 144 l 257 278 q 283 197 249 226 q 386 167 318 167 q 493 196 451 167 q 543 276 535 225 q 528 357 550 324 q 460 401 507 390 l 361 425 q 176 538 236 456 q 135 735 117 619 q 200 890 149 824 q 332 992 251 956 q 515 1028 413 1028 q 750 951 671 1028 q 808 743 829 874 l 600 743 q 578 819 607 792 q 485 847 549 847 q 388 820 425 847 q 344 743 351 793 q 356 663 336 696 q 419 619 375 631 l 524 594 q 711 484 651 564 q 753 286 771 404 q 683 127 738 194 q 545 23 629 60 q 353 -14 461 -14 m 129 -333 l 293 -132 l 501 -132 l 310 -333 l 129 -333 z "},"ẞ":{"ha":833,"x_min":22,"x_max":858,"o":"m 22 0 l 135 710 q 201 871 150 803 q 333 976 253 939 q 511 1014 413 1014 l 858 1014 l 826 818 l 506 514 l 499 590 q 712 513 640 593 q 763 299 783 433 q 695 141 749 208 q 559 37 642 74 q 371 0 476 0 l 299 0 l 326 174 l 392 174 q 502 213 458 174 q 556 315 546 253 q 533 417 565 378 q 436 456 501 456 l 371 456 l 394 608 l 639 840 l 482 840 q 375 805 418 840 q 322 710 332 769 l 210 0 l 22 0 z "},"Ə":{"ha":833,"x_min":54,"x_max":825,"o":"m 354 -14 q 183 24 253 -14 q 84 131 114 63 q 68 292 54 200 l 114 578 l 572 578 l 594 722 q 580 815 606 783 q 492 847 554 847 q 394 815 429 847 q 347 722 358 783 l 139 722 q 206 884 154 815 q 338 990 257 953 q 519 1028 418 1028 q 749 944 672 1028 q 803 722 825 861 l 735 292 q 669 131 721 200 q 538 24 618 63 q 354 -14 457 -14 m 381 146 q 483 183 450 146 q 526 292 515 221 l 547 425 l 283 425 l 300 439 l 276 292 q 291 181 265 217 q 381 146 317 146 z "},"T":{"ha":833,"x_min":124,"x_max":878,"o":"m 251 0 l 381 819 l 124 819 l 156 1014 l 878 1014 l 846 819 l 589 819 l 460 0 l 251 0 z "},"Ŧ":{"ha":833,"x_min":124,"x_max":878,"o":"m 139 382 l 164 542 l 719 542 l 694 382 l 139 382 m 251 0 l 381 819 l 124 819 l 156 1014 l 878 1014 l 846 819 l 589 819 l 460 0 l 251 0 z "},"Ť":{"ha":833,"x_min":124,"x_max":878,"o":"m 251 0 l 381 819 l 124 819 l 156 1014 l 878 1014 l 846 819 l 589 819 l 460 0 l 251 0 m 436 1125 l 279 1319 l 463 1319 l 547 1222 l 656 1319 l 849 1319 l 631 1125 l 436 1125 z "},"Ţ":{"ha":833,"x_min":124,"x_max":878,"o":"m 242 -312 l 257 -215 l 368 -215 q 427 -199 403 -215 q 453 -165 451 -182 q 419 -115 458 -133 q 303 -96 379 -96 l 371 22 l 460 0 l 433 -54 q 519 -72 475 -57 q 590 -114 563 -86 q 610 -185 617 -142 q 542 -274 601 -236 q 394 -312 482 -312 l 242 -312 m 251 0 l 381 819 l 124 819 l 156 1014 l 878 1014 l 846 819 l 589 819 l 460 0 l 251 0 z "},"Ț":{"ha":833,"x_min":74,"x_max":878,"o":"m 251 0 l 381 819 l 124 819 l 156 1014 l 878 1014 l 846 819 l 589 819 l 460 0 l 251 0 m 74 -333 l 238 -132 l 446 -132 l 254 -333 l 74 -333 z "},"U":{"ha":833,"x_min":47,"x_max":850,"o":"m 353 -14 q 123 69 199 -14 q 69 297 47 153 l 183 1014 l 392 1014 l 278 299 q 295 201 268 235 q 382 167 322 167 q 479 201 440 167 q 528 299 518 235 l 642 1014 l 850 1014 l 736 297 q 669 131 721 201 q 537 24 618 61 q 353 -14 456 -14 z "},"Ú":{"ha":833,"x_min":47,"x_max":850,"o":"m 353 -14 q 123 69 199 -14 q 69 297 47 153 l 183 1014 l 392 1014 l 278 299 q 295 201 268 235 q 382 167 322 167 q 479 201 440 167 q 528 299 518 235 l 642 1014 l 850 1014 l 736 297 q 669 131 721 201 q 537 24 618 61 q 353 -14 456 -14 m 407 1125 l 583 1319 l 815 1319 l 622 1125 l 407 1125 z "},"Ŭ":{"ha":833,"x_min":47,"x_max":850,"o":"m 353 -14 q 123 69 199 -14 q 69 297 47 153 l 183 1014 l 392 1014 l 278 299 q 295 201 268 235 q 382 167 322 167 q 479 201 440 167 q 528 299 518 235 l 642 1014 l 850 1014 l 736 297 q 669 131 721 201 q 537 24 618 61 q 353 -14 456 -14 m 532 1111 q 356 1169 418 1111 q 308 1319 294 1226 l 465 1319 q 482 1256 460 1281 q 547 1232 504 1232 q 622 1256 592 1232 q 658 1319 653 1281 l 821 1319 q 727 1169 807 1226 q 532 1111 647 1111 z "},"Û":{"ha":833,"x_min":47,"x_max":850,"o":"m 353 -14 q 123 69 199 -14 q 69 297 47 153 l 183 1014 l 392 1014 l 278 299 q 295 201 268 235 q 382 167 322 167 q 479 201 440 167 q 528 299 518 235 l 642 1014 l 850 1014 l 736 297 q 669 131 721 201 q 537 24 618 61 q 353 -14 456 -14 m 249 1125 l 467 1319 l 661 1319 l 818 1125 l 635 1125 l 550 1222 l 442 1125 l 249 1125 z "},"Ü":{"ha":833,"x_min":47,"x_max":850,"o":"m 353 -14 q 123 69 199 -14 q 69 297 47 153 l 183 1014 l 392 1014 l 278 299 q 295 201 268 235 q 382 167 322 167 q 479 201 440 167 q 528 299 518 235 l 642 1014 l 850 1014 l 736 297 q 669 131 721 201 q 537 24 618 61 q 353 -14 456 -14 m 701 1114 q 625 1143 650 1114 q 607 1222 600 1172 q 650 1301 615 1272 q 736 1331 685 1331 q 813 1301 788 1331 q 829 1222 838 1272 q 788 1143 822 1172 q 701 1114 753 1114 m 363 1114 q 286 1143 311 1114 q 268 1222 261 1172 q 311 1301 276 1272 q 397 1331 346 1331 q 474 1301 449 1331 q 490 1222 499 1272 q 449 1143 483 1172 q 363 1114 414 1114 z "},"Ụ":{"ha":833,"x_min":47,"x_max":850,"o":"m 353 -14 q 123 69 199 -14 q 69 297 47 153 l 183 1014 l 392 1014 l 278 299 q 295 201 268 235 q 382 167 322 167 q 479 201 440 167 q 528 299 518 235 l 642 1014 l 850 1014 l 736 297 q 669 131 721 201 q 537 24 618 61 q 353 -14 456 -14 m 304 -324 q 218 -294 247 -324 q 196 -215 189 -265 q 243 -136 204 -165 q 339 -107 282 -107 q 425 -136 396 -107 q 446 -215 454 -165 q 400 -294 439 -265 q 304 -324 361 -324 z "},"Ù":{"ha":833,"x_min":47,"x_max":850,"o":"m 353 -14 q 123 69 199 -14 q 69 297 47 153 l 183 1014 l 392 1014 l 278 299 q 295 201 268 235 q 382 167 322 167 q 479 201 440 167 q 528 299 518 235 l 642 1014 l 850 1014 l 736 297 q 669 131 721 201 q 537 24 618 61 q 353 -14 456 -14 m 450 1125 l 318 1319 l 539 1319 l 654 1125 l 450 1125 z "},"Ủ":{"ha":833,"x_min":47,"x_max":850,"o":"m 353 -14 q 123 69 199 -14 q 69 297 47 153 l 183 1014 l 392 1014 l 278 299 q 295 201 268 235 q 382 167 322 167 q 479 201 440 167 q 528 299 518 235 l 642 1014 l 850 1014 l 736 297 q 669 131 721 201 q 537 24 618 61 q 353 -14 456 -14 m 443 1106 l 524 1186 q 544 1209 538 1200 q 551 1226 550 1218 q 518 1250 556 1250 l 415 1250 l 433 1368 l 579 1368 q 680 1335 644 1368 q 706 1249 715 1303 q 692 1204 703 1226 q 663 1164 681 1182 l 604 1106 l 443 1106 z "},"Ư":{"ha":833,"x_min":47,"x_max":1028,"o":"m 697 875 l 719 1014 l 789 1014 q 827 1027 813 1014 q 844 1063 842 1040 l 861 1167 l 1028 1167 l 1011 1063 q 934 926 997 978 q 781 875 871 875 l 697 875 m 353 -14 q 123 69 199 -14 q 69 297 47 153 l 183 1014 l 392 1014 l 278 299 q 295 201 268 235 q 382 167 322 167 q 479 201 440 167 q 528 299 518 235 l 642 1014 l 850 1014 l 736 297 q 669 131 721 201 q 537 24 618 61 q 353 -14 456 -14 z "},"Ứ":{"ha":833,"x_min":47,"x_max":1028,"o":"m 697 875 l 719 1014 l 789 1014 q 827 1027 813 1014 q 844 1063 842 1040 l 861 1167 l 1028 1167 l 1011 1063 q 934 926 997 978 q 781 875 871 875 l 697 875 m 353 -14 q 123 69 199 -14 q 69 297 47 153 l 183 1014 l 392 1014 l 278 299 q 295 201 268 235 q 382 167 322 167 q 479 201 440 167 q 528 299 518 235 l 642 1014 l 850 1014 l 736 297 q 669 131 721 201 q 537 24 618 61 q 353 -14 456 -14 m 407 1125 l 583 1319 l 815 1319 l 622 1125 l 407 1125 z "},"Ự":{"ha":833,"x_min":47,"x_max":1028,"o":"m 318 -324 q 232 -294 261 -324 q 210 -215 203 -265 q 257 -136 218 -165 q 353 -107 296 -107 q 439 -136 410 -107 q 460 -215 468 -165 q 414 -294 453 -265 q 318 -324 375 -324 m 697 875 l 719 1014 l 789 1014 q 827 1027 813 1014 q 844 1063 842 1040 l 861 1167 l 1028 1167 l 1011 1063 q 934 926 997 978 q 781 875 871 875 l 697 875 m 353 -14 q 123 69 199 -14 q 69 297 47 153 l 183 1014 l 392 1014 l 278 299 q 295 201 268 235 q 382 167 322 167 q 479 201 440 167 q 528 299 518 235 l 642 1014 l 850 1014 l 736 297 q 669 131 721 201 q 537 24 618 61 q 353 -14 456 -14 z "},"Ừ":{"ha":833,"x_min":47,"x_max":1028,"o":"m 697 875 l 719 1014 l 789 1014 q 827 1027 813 1014 q 844 1063 842 1040 l 861 1167 l 1028 1167 l 1011 1063 q 934 926 997 978 q 781 875 871 875 l 697 875 m 353 -14 q 123 69 199 -14 q 69 297 47 153 l 183 1014 l 392 1014 l 278 299 q 295 201 268 235 q 382 167 322 167 q 479 201 440 167 q 528 299 518 235 l 642 1014 l 850 1014 l 736 297 q 669 131 721 201 q 537 24 618 61 q 353 -14 456 -14 m 450 1125 l 318 1319 l 539 1319 l 654 1125 l 450 1125 z "},"Ử":{"ha":833,"x_min":47,"x_max":1028,"o":"m 697 875 l 719 1014 l 789 1014 q 827 1027 813 1014 q 844 1063 842 1040 l 861 1167 l 1028 1167 l 1011 1063 q 934 926 997 978 q 781 875 871 875 l 697 875 m 353 -14 q 123 69 199 -14 q 69 297 47 153 l 183 1014 l 392 1014 l 278 299 q 295 201 268 235 q 382 167 322 167 q 479 201 440 167 q 528 299 518 235 l 642 1014 l 850 1014 l 736 297 q 669 131 721 201 q 537 24 618 61 q 353 -14 456 -14 m 443 1106 l 524 1186 q 544 1209 538 1200 q 551 1226 550 1218 q 518 1250 556 1250 l 415 1250 l 433 1368 l 579 1368 q 680 1335 644 1368 q 706 1249 715 1303 q 692 1204 703 1226 q 663 1164 681 1182 l 604 1106 l 443 1106 z "},"Ữ":{"ha":833,"x_min":47,"x_max":1028,"o":"m 697 875 l 719 1014 l 789 1014 q 827 1027 813 1014 q 844 1063 842 1040 l 861 1167 l 1028 1167 l 1011 1063 q 934 926 997 978 q 781 875 871 875 l 697 875 m 353 -14 q 123 69 199 -14 q 69 297 47 153 l 183 1014 l 392 1014 l 278 299 q 295 201 268 235 q 382 167 322 167 q 479 201 440 167 q 528 299 518 235 l 642 1014 l 850 1014 l 736 297 q 669 131 721 201 q 537 24 618 61 q 353 -14 456 -14 m 629 1111 q 559 1124 585 1111 q 518 1153 533 1136 q 489 1182 503 1169 q 454 1194 475 1194 q 422 1182 436 1194 q 406 1149 408 1169 l 400 1118 l 282 1118 l 290 1167 q 351 1286 301 1239 q 469 1333 401 1333 q 540 1321 514 1333 q 581 1292 565 1308 q 610 1263 596 1275 q 644 1250 624 1250 q 676 1260 664 1250 q 692 1289 689 1271 l 697 1326 l 815 1326 l 808 1278 q 748 1158 797 1206 q 629 1111 699 1111 z "},"Ű":{"ha":833,"x_min":47,"x_max":943,"o":"m 353 -14 q 123 69 199 -14 q 69 297 47 153 l 183 1014 l 392 1014 l 278 299 q 295 201 268 235 q 382 167 322 167 q 479 201 440 167 q 528 299 518 235 l 642 1014 l 850 1014 l 736 297 q 669 131 721 201 q 537 24 618 61 q 353 -14 456 -14 m 564 1125 l 740 1319 l 943 1319 l 753 1125 l 564 1125 m 258 1125 l 435 1319 l 638 1319 l 447 1125 l 258 1125 z "},"Ū":{"ha":833,"x_min":47,"x_max":850,"o":"m 353 -14 q 123 69 199 -14 q 69 297 47 153 l 183 1014 l 392 1014 l 278 299 q 295 201 268 235 q 382 167 322 167 q 479 201 440 167 q 528 299 518 235 l 642 1014 l 850 1014 l 736 297 q 669 131 721 201 q 537 24 618 61 q 353 -14 456 -14 m 286 1139 l 310 1292 l 810 1292 l 786 1139 l 286 1139 z "},"Ų":{"ha":833,"x_min":54,"x_max":850,"o":"m 381 -312 q 254 -270 296 -312 q 224 -160 213 -228 q 258 -91 229 -126 q 332 -24 288 -56 q 426 29 376 8 q 406 3 425 19 q 353 -14 388 -14 q 183 24 251 -14 q 84 131 114 63 q 68 292 54 200 l 183 1014 l 392 1014 l 276 292 q 293 199 267 232 q 382 167 319 167 q 481 199 444 167 q 526 292 517 232 l 642 1014 l 850 1014 l 735 292 q 670 137 721 206 q 546 29 619 68 l 471 -24 q 423 -71 440 -46 q 403 -114 406 -96 q 414 -151 400 -136 q 458 -167 428 -167 l 554 -167 l 531 -312 l 381 -312 z "},"Ů":{"ha":833,"x_min":47,"x_max":850,"o":"m 353 -14 q 123 69 199 -14 q 69 297 47 153 l 183 1014 l 392 1014 l 278 299 q 295 201 268 235 q 382 167 322 167 q 479 201 440 167 q 528 299 518 235 l 642 1014 l 850 1014 l 736 297 q 669 131 721 201 q 537 24 618 61 q 353 -14 456 -14 m 521 1046 q 388 1094 433 1046 q 354 1222 342 1143 q 428 1350 367 1301 q 576 1399 489 1399 q 710 1350 664 1399 q 743 1222 756 1301 q 669 1094 731 1143 q 521 1046 608 1046 m 536 1143 q 600 1165 574 1143 q 632 1224 626 1188 q 619 1280 639 1258 q 561 1301 599 1301 q 498 1280 524 1301 q 465 1222 472 1258 q 479 1165 460 1188 q 536 1143 499 1143 z "},"Ũ":{"ha":833,"x_min":47,"x_max":850,"o":"m 353 -14 q 123 69 199 -14 q 69 297 47 153 l 183 1014 l 392 1014 l 278 299 q 295 201 268 235 q 382 167 322 167 q 479 201 440 167 q 528 299 518 235 l 642 1014 l 850 1014 l 736 297 q 669 131 721 201 q 537 24 618 61 q 353 -14 456 -14 m 629 1111 q 559 1124 585 1111 q 518 1153 533 1136 q 489 1182 503 1169 q 454 1194 475 1194 q 422 1182 436 1194 q 406 1149 408 1169 l 400 1118 l 282 1118 l 290 1167 q 351 1286 301 1239 q 469 1333 401 1333 q 540 1321 514 1333 q 581 1292 565 1308 q 610 1263 596 1275 q 644 1250 624 1250 q 676 1260 664 1250 q 692 1289 689 1271 l 697 1326 l 815 1326 l 808 1278 q 748 1158 797 1206 q 629 1111 699 1111 z "},"V":{"ha":833,"x_min":135,"x_max":899,"o":"m 225 0 l 135 1014 l 346 1014 l 385 374 q 389 288 388 340 q 392 200 390 236 q 419 288 403 236 q 447 375 435 340 l 685 1014 l 899 1014 l 489 0 l 225 0 z "},"W":{"ha":833,"x_min":47,"x_max":919,"o":"m 47 0 l 114 1014 l 281 1014 l 224 336 q 219 281 222 317 q 210 208 215 246 q 201 139 206 169 q 219 208 210 169 q 237 281 228 246 q 251 336 246 317 l 435 1014 l 597 1014 l 561 336 q 558 281 560 317 q 556 208 557 246 q 553 139 554 169 q 565 208 558 169 q 580 281 572 246 q 592 336 588 317 l 747 1014 l 919 1014 l 657 0 l 440 0 l 478 674 q 482 735 479 697 q 488 815 485 774 q 494 889 492 857 q 478 815 488 857 q 461 735 469 774 q 446 674 453 697 l 265 0 l 47 0 z "},"Ẃ":{"ha":833,"x_min":47,"x_max":919,"o":"m 47 0 l 114 1014 l 281 1014 l 224 336 q 219 281 222 317 q 210 208 215 246 q 201 139 206 169 q 219 208 210 169 q 237 281 228 246 q 251 336 246 317 l 435 1014 l 597 1014 l 561 336 q 558 281 560 317 q 556 208 557 246 q 553 139 554 169 q 565 208 558 169 q 580 281 572 246 q 592 336 588 317 l 747 1014 l 919 1014 l 657 0 l 440 0 l 478 674 q 482 735 479 697 q 488 815 485 774 q 494 889 492 857 q 478 815 488 857 q 461 735 469 774 q 446 674 453 697 l 265 0 l 47 0 m 407 1125 l 583 1319 l 815 1319 l 622 1125 l 407 1125 z "},"Ŵ":{"ha":833,"x_min":47,"x_max":919,"o":"m 47 0 l 114 1014 l 281 1014 l 224 336 q 219 281 222 317 q 210 208 215 246 q 201 139 206 169 q 219 208 210 169 q 237 281 228 246 q 251 336 246 317 l 435 1014 l 597 1014 l 561 336 q 558 281 560 317 q 556 208 557 246 q 553 139 554 169 q 565 208 558 169 q 580 281 572 246 q 592 336 588 317 l 747 1014 l 919 1014 l 657 0 l 440 0 l 478 674 q 482 735 479 697 q 488 815 485 774 q 494 889 492 857 q 478 815 488 857 q 461 735 469 774 q 446 674 453 697 l 265 0 l 47 0 m 249 1125 l 467 1319 l 661 1319 l 818 1125 l 635 1125 l 550 1222 l 442 1125 l 249 1125 z "},"Ẅ":{"ha":833,"x_min":47,"x_max":919,"o":"m 47 0 l 114 1014 l 281 1014 l 224 336 q 219 281 222 317 q 210 208 215 246 q 201 139 206 169 q 219 208 210 169 q 237 281 228 246 q 251 336 246 317 l 435 1014 l 597 1014 l 561 336 q 558 281 560 317 q 556 208 557 246 q 553 139 554 169 q 565 208 558 169 q 580 281 572 246 q 592 336 588 317 l 747 1014 l 919 1014 l 657 0 l 440 0 l 478 674 q 482 735 479 697 q 488 815 485 774 q 494 889 492 857 q 478 815 488 857 q 461 735 469 774 q 446 674 453 697 l 265 0 l 47 0 m 701 1114 q 625 1143 650 1114 q 607 1222 600 1172 q 650 1301 615 1272 q 736 1331 685 1331 q 813 1301 788 1331 q 829 1222 838 1272 q 788 1143 822 1172 q 701 1114 753 1114 m 363 1114 q 286 1143 311 1114 q 268 1222 261 1172 q 311 1301 276 1272 q 397 1331 346 1331 q 474 1301 449 1331 q 490 1222 499 1272 q 449 1143 483 1172 q 363 1114 414 1114 z "},"Ẁ":{"ha":833,"x_min":47,"x_max":919,"o":"m 47 0 l 114 1014 l 281 1014 l 224 336 q 219 281 222 317 q 210 208 215 246 q 201 139 206 169 q 219 208 210 169 q 237 281 228 246 q 251 336 246 317 l 435 1014 l 597 1014 l 561 336 q 558 281 560 317 q 556 208 557 246 q 553 139 554 169 q 565 208 558 169 q 580 281 572 246 q 592 336 588 317 l 747 1014 l 919 1014 l 657 0 l 440 0 l 478 674 q 482 735 479 697 q 488 815 485 774 q 494 889 492 857 q 478 815 488 857 q 461 735 469 774 q 446 674 453 697 l 265 0 l 47 0 m 450 1125 l 318 1319 l 539 1319 l 654 1125 l 450 1125 z "},"X":{"ha":833,"x_min":-33,"x_max":888,"o":"m -33 0 l 322 529 l 146 1014 l 368 1014 l 438 792 q 455 736 447 761 q 464 700 463 711 q 481 736 469 711 q 513 792 493 761 l 657 1014 l 888 1014 l 556 518 l 744 0 l 522 0 l 440 250 q 423 307 431 281 q 413 347 415 333 q 393 307 407 333 q 360 250 379 281 l 197 0 l -33 0 z "},"Y":{"ha":833,"x_min":121,"x_max":913,"o":"m 251 0 l 308 361 l 121 1014 l 333 1014 l 413 708 q 431 611 424 663 q 439 528 438 560 q 471 611 450 560 q 518 708 492 663 l 690 1014 l 913 1014 l 517 361 l 460 0 l 251 0 z "},"Ý":{"ha":833,"x_min":121,"x_max":913,"o":"m 251 0 l 308 361 l 121 1014 l 333 1014 l 413 708 q 431 611 424 663 q 439 528 438 560 q 471 611 450 560 q 518 708 492 663 l 690 1014 l 913 1014 l 517 361 l 460 0 l 251 0 m 407 1125 l 583 1319 l 815 1319 l 622 1125 l 407 1125 z "},"Ŷ":{"ha":833,"x_min":121,"x_max":913,"o":"m 251 0 l 308 361 l 121 1014 l 333 1014 l 413 708 q 431 611 424 663 q 439 528 438 560 q 471 611 450 560 q 518 708 492 663 l 690 1014 l 913 1014 l 517 361 l 460 0 l 251 0 m 249 1125 l 467 1319 l 661 1319 l 818 1125 l 635 1125 l 550 1222 l 442 1125 l 249 1125 z "},"Ÿ":{"ha":833,"x_min":121,"x_max":913,"o":"m 251 0 l 308 361 l 121 1014 l 333 1014 l 413 708 q 431 611 424 663 q 439 528 438 560 q 471 611 450 560 q 518 708 492 663 l 690 1014 l 913 1014 l 517 361 l 460 0 l 251 0 m 701 1114 q 625 1143 650 1114 q 607 1222 600 1172 q 650 1301 615 1272 q 736 1331 685 1331 q 813 1301 788 1331 q 829 1222 838 1272 q 788 1143 822 1172 q 701 1114 753 1114 m 363 1114 q 286 1143 311 1114 q 268 1222 261 1172 q 311 1301 276 1272 q 397 1331 346 1331 q 474 1301 449 1331 q 490 1222 499 1272 q 449 1143 483 1172 q 363 1114 414 1114 z "},"Ỵ":{"ha":833,"x_min":121,"x_max":913,"o":"m 251 0 l 308 361 l 121 1014 l 333 1014 l 413 708 q 431 611 424 663 q 439 528 438 560 q 471 611 450 560 q 518 708 492 663 l 690 1014 l 913 1014 l 517 361 l 460 0 l 251 0 m 318 -324 q 232 -294 261 -324 q 210 -215 203 -265 q 257 -136 218 -165 q 353 -107 296 -107 q 439 -136 410 -107 q 460 -215 468 -165 q 414 -294 453 -265 q 318 -324 375 -324 z "},"Ỳ":{"ha":833,"x_min":121,"x_max":913,"o":"m 251 0 l 308 361 l 121 1014 l 333 1014 l 413 708 q 431 611 424 663 q 439 528 438 560 q 471 611 450 560 q 518 708 492 663 l 690 1014 l 913 1014 l 517 361 l 460 0 l 251 0 m 450 1125 l 318 1319 l 539 1319 l 654 1125 l 450 1125 z "},"Ỷ":{"ha":833,"x_min":121,"x_max":913,"o":"m 251 0 l 308 361 l 121 1014 l 333 1014 l 413 708 q 431 611 424 663 q 439 528 438 560 q 471 611 450 560 q 518 708 492 663 l 690 1014 l 913 1014 l 517 361 l 460 0 l 251 0 m 443 1106 l 524 1186 q 544 1209 538 1200 q 551 1226 550 1218 q 518 1250 556 1250 l 415 1250 l 433 1368 l 579 1368 q 680 1335 644 1368 q 706 1249 715 1303 q 692 1204 703 1226 q 663 1164 681 1182 l 604 1106 l 443 1106 z "},"Ȳ":{"ha":833,"x_min":121,"x_max":913,"o":"m 251 0 l 308 361 l 121 1014 l 333 1014 l 413 708 q 431 611 424 663 q 439 528 438 560 q 471 611 450 560 q 518 708 492 663 l 690 1014 l 913 1014 l 517 361 l 460 0 l 251 0 m 286 1139 l 310 1292 l 810 1292 l 786 1139 l 286 1139 z "},"Ỹ":{"ha":833,"x_min":121,"x_max":913,"o":"m 251 0 l 308 361 l 121 1014 l 333 1014 l 413 708 q 431 611 424 663 q 439 528 438 560 q 471 611 450 560 q 518 708 492 663 l 690 1014 l 913 1014 l 517 361 l 460 0 l 251 0 m 629 1111 q 559 1124 585 1111 q 518 1153 533 1136 q 489 1182 503 1169 q 454 1194 475 1194 q 422 1182 436 1194 q 406 1149 408 1169 l 400 1118 l 282 1118 l 290 1167 q 351 1286 301 1239 q 469 1333 401 1333 q 540 1321 514 1333 q 581 1292 565 1308 q 610 1263 596 1275 q 644 1250 624 1250 q 676 1260 664 1250 q 692 1289 689 1271 l 697 1326 l 815 1326 l 808 1278 q 748 1158 797 1206 q 629 1111 699 1111 z "},"Z":{"ha":833,"x_min":44,"x_max":814,"o":"m 44 0 l 75 194 l 539 819 l 183 819 l 215 1014 l 814 1014 l 782 819 l 317 194 l 699 194 l 668 0 l 44 0 z "},"Ź":{"ha":833,"x_min":44,"x_max":815,"o":"m 44 0 l 75 194 l 539 819 l 183 819 l 215 1014 l 814 1014 l 782 819 l 317 194 l 699 194 l 668 0 l 44 0 m 407 1125 l 583 1319 l 815 1319 l 622 1125 l 407 1125 z "},"Ž":{"ha":833,"x_min":44,"x_max":849,"o":"m 44 0 l 75 194 l 539 819 l 183 819 l 215 1014 l 814 1014 l 782 819 l 317 194 l 699 194 l 668 0 l 44 0 m 436 1125 l 279 1319 l 463 1319 l 547 1222 l 656 1319 l 849 1319 l 631 1125 l 436 1125 z "},"Ż":{"ha":833,"x_min":44,"x_max":814,"o":"m 44 0 l 75 194 l 539 819 l 183 819 l 215 1014 l 814 1014 l 782 819 l 317 194 l 699 194 l 668 0 l 44 0 m 532 1114 q 446 1143 475 1114 q 424 1222 417 1172 q 471 1301 432 1272 q 567 1331 510 1331 q 653 1301 624 1331 q 674 1222 682 1272 q 628 1143 667 1172 q 532 1114 589 1114 z "},"a":{"ha":833,"x_min":44,"x_max":801,"o":"m 274 -14 q 101 67 158 -14 q 67 285 44 147 l 99 479 q 156 638 114 571 q 260 741 197 704 q 400 778 324 778 q 540 723 494 778 q 569 569 585 668 l 528 618 l 576 618 l 594 764 l 801 764 l 681 0 l 479 0 l 503 146 l 454 146 l 510 194 q 431 41 494 96 q 274 -14 368 -14 m 378 167 q 472 199 435 167 q 518 292 508 232 l 547 472 q 530 565 557 532 q 446 597 503 597 q 351 565 388 597 q 306 472 315 532 l 276 292 q 293 199 267 232 q 378 167 319 167 z "},"á":{"ha":833,"x_min":44,"x_max":801,"o":"m 274 -14 q 101 67 158 -14 q 67 285 44 147 l 99 479 q 156 638 114 571 q 260 741 197 704 q 400 778 324 778 q 540 723 494 778 q 569 569 585 668 l 528 618 l 576 618 l 594 764 l 801 764 l 681 0 l 479 0 l 503 146 l 454 146 l 510 194 q 431 41 494 96 q 274 -14 368 -14 m 378 167 q 472 199 435 167 q 518 292 508 232 l 547 472 q 530 565 557 532 q 446 597 503 597 q 351 565 388 597 q 306 472 315 532 l 276 292 q 293 199 267 232 q 378 167 319 167 m 378 896 l 554 1090 l 786 1090 l 593 896 l 378 896 z "},"ă":{"ha":833,"x_min":44,"x_max":801,"o":"m 274 -14 q 101 67 158 -14 q 67 285 44 147 l 99 479 q 156 638 114 571 q 260 741 197 704 q 400 778 324 778 q 540 723 494 778 q 569 569 585 668 l 528 618 l 576 618 l 594 764 l 801 764 l 681 0 l 479 0 l 503 146 l 454 146 l 510 194 q 431 41 494 96 q 274 -14 368 -14 m 378 167 q 472 199 435 167 q 518 292 508 232 l 547 472 q 530 565 557 532 q 446 597 503 597 q 351 565 388 597 q 306 472 315 532 l 276 292 q 293 199 267 232 q 378 167 319 167 m 503 882 q 326 940 389 882 q 278 1090 264 997 l 435 1090 q 452 1027 429 1051 q 518 1003 475 1003 q 593 1027 563 1003 q 629 1090 624 1051 l 792 1090 q 698 940 778 997 q 503 882 618 882 z "},"ắ":{"ha":833,"x_min":44,"x_max":811,"o":"m 274 -14 q 101 67 158 -14 q 67 285 44 147 l 99 479 q 156 638 114 571 q 260 741 197 704 q 400 778 324 778 q 540 723 494 778 q 569 569 585 668 l 528 618 l 576 618 l 594 764 l 801 764 l 681 0 l 479 0 l 503 146 l 454 146 l 510 194 q 431 41 494 96 q 274 -14 368 -14 m 378 167 q 472 199 435 167 q 518 292 508 232 l 547 472 q 530 565 557 532 q 446 597 503 597 q 351 565 388 597 q 306 472 315 532 l 276 292 q 293 199 267 232 q 378 167 319 167 m 496 882 q 319 935 383 882 q 269 1076 256 989 l 419 1076 q 438 1025 414 1043 q 511 1007 463 1007 q 592 1025 563 1007 q 628 1076 622 1043 l 783 1076 q 734 974 774 1018 q 633 906 694 931 q 496 882 571 882 m 436 1090 l 628 1285 l 811 1285 l 606 1090 l 436 1090 z "},"ặ":{"ha":833,"x_min":44,"x_max":801,"o":"m 511 882 q 335 940 397 882 q 286 1090 272 997 l 443 1090 q 460 1027 438 1051 q 526 1003 483 1003 q 601 1027 571 1003 q 638 1090 632 1051 l 800 1090 q 706 940 786 997 q 511 882 626 882 m 274 -14 q 101 67 158 -14 q 67 285 44 147 l 99 479 q 156 638 114 571 q 260 741 197 704 q 400 778 324 778 q 540 723 494 778 q 569 569 585 668 l 528 618 l 576 618 l 594 764 l 801 764 l 681 0 l 479 0 l 503 146 l 454 146 l 510 194 q 431 41 494 96 q 274 -14 368 -14 m 378 167 q 472 199 435 167 q 518 292 508 232 l 547 472 q 530 565 557 532 q 446 597 503 597 q 351 565 388 597 q 306 472 315 532 l 276 292 q 293 199 267 232 q 378 167 319 167 m 311 -324 q 225 -294 254 -324 q 203 -215 196 -265 q 250 -136 211 -165 q 346 -107 289 -107 q 432 -136 403 -107 q 453 -215 461 -165 q 407 -294 446 -265 q 311 -324 368 -324 z "},"ằ":{"ha":833,"x_min":44,"x_max":801,"o":"m 274 -14 q 101 67 158 -14 q 67 285 44 147 l 99 479 q 156 638 114 571 q 260 741 197 704 q 400 778 324 778 q 540 723 494 778 q 569 569 585 668 l 528 618 l 576 618 l 594 764 l 801 764 l 681 0 l 479 0 l 503 146 l 454 146 l 510 194 q 431 41 494 96 q 274 -14 368 -14 m 378 167 q 472 199 435 167 q 518 292 508 232 l 547 472 q 530 565 557 532 q 446 597 503 597 q 351 565 388 597 q 306 472 315 532 l 276 292 q 293 199 267 232 q 378 167 319 167 m 496 882 q 319 935 383 882 q 269 1076 256 989 l 419 1076 q 438 1025 414 1043 q 511 1007 463 1007 q 592 1025 563 1007 q 628 1076 622 1043 l 783 1076 q 734 974 774 1018 q 633 906 694 931 q 496 882 571 882 m 453 1090 l 311 1285 l 489 1285 l 617 1090 l 453 1090 z "},"ẳ":{"ha":833,"x_min":44,"x_max":801,"o":"m 274 -14 q 101 67 158 -14 q 67 285 44 147 l 99 479 q 156 638 114 571 q 260 741 197 704 q 400 778 324 778 q 540 723 494 778 q 569 569 585 668 l 528 618 l 576 618 l 594 764 l 801 764 l 681 0 l 479 0 l 503 146 l 454 146 l 510 194 q 431 41 494 96 q 274 -14 368 -14 m 378 167 q 472 199 435 167 q 518 292 508 232 l 547 472 q 530 565 557 532 q 446 597 503 597 q 351 565 388 597 q 306 472 315 532 l 276 292 q 293 199 267 232 q 378 167 319 167 m 496 882 q 319 935 383 882 q 269 1076 256 989 l 419 1076 q 438 1025 414 1043 q 511 1007 463 1007 q 592 1025 563 1007 q 628 1076 622 1043 l 783 1076 q 734 974 774 1018 q 633 906 694 931 q 496 882 571 882 m 439 1083 l 519 1164 q 546 1204 544 1189 q 514 1229 550 1229 l 411 1229 l 431 1347 l 575 1347 q 676 1314 640 1347 q 703 1228 711 1281 q 688 1183 700 1206 q 657 1142 675 1161 l 600 1083 l 439 1083 z "},"ẵ":{"ha":833,"x_min":44,"x_max":814,"o":"m 274 -14 q 101 67 158 -14 q 67 285 44 147 l 99 479 q 156 638 114 571 q 260 741 197 704 q 400 778 324 778 q 540 723 494 778 q 569 569 585 668 l 528 618 l 576 618 l 594 764 l 801 764 l 681 0 l 479 0 l 503 146 l 454 146 l 510 194 q 431 41 494 96 q 274 -14 368 -14 m 378 167 q 472 199 435 167 q 518 292 508 232 l 547 472 q 530 565 557 532 q 446 597 503 597 q 351 565 388 597 q 306 472 315 532 l 276 292 q 293 199 267 232 q 378 167 319 167 m 496 882 q 319 935 383 882 q 269 1076 256 989 l 419 1076 q 438 1025 414 1043 q 511 1007 463 1007 q 592 1025 563 1007 q 628 1076 622 1043 l 783 1076 q 734 974 774 1018 q 633 906 694 931 q 496 882 571 882 m 629 1111 q 560 1126 585 1111 q 519 1160 535 1140 q 491 1194 504 1179 q 457 1208 478 1208 q 408 1163 418 1208 l 400 1118 l 282 1118 l 290 1167 q 351 1283 303 1239 q 468 1326 400 1326 q 538 1312 513 1326 q 578 1278 563 1297 q 606 1244 593 1258 q 640 1229 619 1229 q 674 1240 660 1229 q 689 1268 688 1250 l 696 1319 l 814 1319 l 807 1271 q 748 1155 797 1199 q 629 1111 699 1111 z "},"ǎ":{"ha":833,"x_min":44,"x_max":821,"o":"m 274 -14 q 101 67 158 -14 q 67 285 44 147 l 99 479 q 156 638 114 571 q 260 741 197 704 q 400 778 324 778 q 540 723 494 778 q 569 569 585 668 l 528 618 l 576 618 l 594 764 l 801 764 l 681 0 l 479 0 l 503 146 l 454 146 l 510 194 q 431 41 494 96 q 274 -14 368 -14 m 378 167 q 472 199 435 167 q 518 292 508 232 l 547 472 q 530 565 557 532 q 446 597 503 597 q 351 565 388 597 q 306 472 315 532 l 276 292 q 293 199 267 232 q 378 167 319 167 m 408 896 l 251 1090 l 435 1090 l 519 993 l 628 1090 l 821 1090 l 603 896 l 408 896 z "},"â":{"ha":833,"x_min":44,"x_max":801,"o":"m 274 -14 q 101 67 158 -14 q 67 285 44 147 l 99 479 q 156 638 114 571 q 260 741 197 704 q 400 778 324 778 q 540 723 494 778 q 569 569 585 668 l 528 618 l 576 618 l 594 764 l 801 764 l 681 0 l 479 0 l 503 146 l 454 146 l 510 194 q 431 41 494 96 q 274 -14 368 -14 m 378 167 q 472 199 435 167 q 518 292 508 232 l 547 472 q 530 565 557 532 q 446 597 503 597 q 351 565 388 597 q 306 472 315 532 l 276 292 q 293 199 267 232 q 378 167 319 167 m 219 896 l 438 1090 l 632 1090 l 789 896 l 606 896 l 521 993 l 413 896 l 219 896 z "},"ấ":{"ha":833,"x_min":44,"x_max":1090,"o":"m 274 -14 q 101 67 158 -14 q 67 285 44 147 l 99 479 q 156 638 114 571 q 260 741 197 704 q 400 778 324 778 q 540 723 494 778 q 569 569 585 668 l 528 618 l 576 618 l 594 764 l 801 764 l 681 0 l 479 0 l 503 146 l 454 146 l 510 194 q 431 41 494 96 q 274 -14 368 -14 m 378 167 q 472 199 435 167 q 518 292 508 232 l 547 472 q 530 565 557 532 q 446 597 503 597 q 351 565 388 597 q 306 472 315 532 l 276 292 q 293 199 267 232 q 378 167 319 167 m 689 1049 l 886 1243 l 1090 1243 l 879 1049 l 689 1049 m 213 896 l 431 1090 l 625 1090 l 782 896 l 597 896 l 513 993 l 404 896 l 213 896 z "},"ậ":{"ha":833,"x_min":44,"x_max":801,"o":"m 219 896 l 438 1090 l 632 1090 l 789 896 l 606 896 l 521 993 l 413 896 l 219 896 m 274 -14 q 101 67 158 -14 q 67 285 44 147 l 99 479 q 156 638 114 571 q 260 741 197 704 q 400 778 324 778 q 540 723 494 778 q 569 569 585 668 l 528 618 l 576 618 l 594 764 l 801 764 l 681 0 l 479 0 l 503 146 l 454 146 l 510 194 q 431 41 494 96 q 274 -14 368 -14 m 378 167 q 472 199 435 167 q 518 292 508 232 l 547 472 q 530 565 557 532 q 446 597 503 597 q 351 565 388 597 q 306 472 315 532 l 276 292 q 293 199 267 232 q 378 167 319 167 m 311 -324 q 225 -294 254 -324 q 203 -215 196 -265 q 250 -136 211 -165 q 346 -107 289 -107 q 432 -136 403 -107 q 453 -215 461 -165 q 407 -294 446 -265 q 311 -324 368 -324 z "},"ầ":{"ha":833,"x_min":44,"x_max":938,"o":"m 274 -14 q 101 67 158 -14 q 67 285 44 147 l 99 479 q 156 638 114 571 q 260 741 197 704 q 400 778 324 778 q 540 723 494 778 q 569 569 585 668 l 528 618 l 576 618 l 594 764 l 801 764 l 681 0 l 479 0 l 503 146 l 454 146 l 510 194 q 431 41 494 96 q 274 -14 368 -14 m 378 167 q 472 199 435 167 q 518 292 508 232 l 547 472 q 530 565 557 532 q 446 597 503 597 q 351 565 388 597 q 306 472 315 532 l 276 292 q 293 199 267 232 q 378 167 319 167 m 753 1049 l 603 1243 l 801 1243 l 938 1049 l 753 1049 m 213 896 l 431 1090 l 625 1090 l 782 896 l 597 896 l 513 993 l 404 896 l 213 896 z "},"ẩ":{"ha":833,"x_min":44,"x_max":976,"o":"m 274 -14 q 101 67 158 -14 q 67 285 44 147 l 99 479 q 156 638 114 571 q 260 741 197 704 q 400 778 324 778 q 540 723 494 778 q 569 569 585 668 l 528 618 l 576 618 l 594 764 l 801 764 l 681 0 l 479 0 l 503 146 l 454 146 l 510 194 q 431 41 494 96 q 274 -14 368 -14 m 378 167 q 472 199 435 167 q 518 292 508 232 l 547 472 q 530 565 557 532 q 446 597 503 597 q 351 565 388 597 q 306 472 315 532 l 276 292 q 293 199 267 232 q 378 167 319 167 m 707 1049 l 788 1129 q 814 1169 813 1154 q 781 1193 818 1193 l 676 1193 l 696 1311 l 842 1311 q 942 1278 907 1311 q 968 1192 976 1246 q 924 1107 960 1143 l 867 1049 l 707 1049 m 213 896 l 431 1090 l 625 1090 l 782 896 l 597 896 l 513 993 l 404 896 l 213 896 z "},"ẫ":{"ha":833,"x_min":44,"x_max":818,"o":"m 274 -14 q 101 67 158 -14 q 67 285 44 147 l 99 479 q 156 638 114 571 q 260 741 197 704 q 400 778 324 778 q 540 723 494 778 q 569 569 585 668 l 528 618 l 576 618 l 594 764 l 801 764 l 681 0 l 479 0 l 503 146 l 454 146 l 510 194 q 431 41 494 96 q 274 -14 368 -14 m 378 167 q 472 199 435 167 q 518 292 508 232 l 547 472 q 530 565 557 532 q 446 597 503 597 q 351 565 388 597 q 306 472 315 532 l 276 292 q 293 199 267 232 q 378 167 319 167 m 635 1147 q 565 1160 590 1147 q 524 1188 539 1172 q 494 1217 508 1204 q 460 1229 481 1229 q 411 1183 421 1229 l 406 1153 l 288 1153 l 293 1188 q 354 1303 304 1260 q 472 1347 404 1347 q 542 1335 517 1347 q 582 1306 567 1322 q 611 1278 597 1290 q 646 1265 625 1265 q 694 1304 688 1265 l 700 1339 l 818 1339 l 813 1307 q 752 1191 800 1235 q 635 1147 704 1147 m 213 896 l 431 1090 l 625 1090 l 782 896 l 597 896 l 513 993 l 404 896 l 213 896 z "},"ä":{"ha":833,"x_min":44,"x_max":808,"o":"m 274 -14 q 101 67 158 -14 q 67 285 44 147 l 99 479 q 156 638 114 571 q 260 741 197 704 q 400 778 324 778 q 540 723 494 778 q 569 569 585 668 l 528 618 l 576 618 l 594 764 l 801 764 l 681 0 l 479 0 l 503 146 l 454 146 l 510 194 q 431 41 494 96 q 274 -14 368 -14 m 378 167 q 472 199 435 167 q 518 292 508 232 l 547 472 q 530 565 557 532 q 446 597 503 597 q 351 565 388 597 q 306 472 315 532 l 276 292 q 293 199 267 232 q 378 167 319 167 m 672 885 q 596 914 621 885 q 578 993 571 943 q 621 1072 586 1043 q 707 1101 656 1101 q 783 1072 758 1101 q 800 993 808 1043 q 758 914 793 943 q 672 885 724 885 m 333 885 q 257 914 282 885 q 239 993 232 943 q 282 1072 247 1043 q 368 1101 317 1101 q 444 1072 419 1101 q 461 993 469 1043 q 419 914 454 943 q 333 885 385 885 z "},"ạ":{"ha":833,"x_min":44,"x_max":801,"o":"m 274 -14 q 101 67 158 -14 q 67 285 44 147 l 99 479 q 156 638 114 571 q 260 741 197 704 q 400 778 324 778 q 540 723 494 778 q 569 569 585 668 l 528 618 l 576 618 l 594 764 l 801 764 l 681 0 l 479 0 l 503 146 l 454 146 l 510 194 q 431 41 494 96 q 274 -14 368 -14 m 378 167 q 472 199 435 167 q 518 292 508 232 l 547 472 q 530 565 557 532 q 446 597 503 597 q 351 565 388 597 q 306 472 315 532 l 276 292 q 293 199 267 232 q 378 167 319 167 m 311 -324 q 225 -294 254 -324 q 203 -215 196 -265 q 250 -136 211 -165 q 346 -107 289 -107 q 432 -136 403 -107 q 453 -215 461 -165 q 407 -294 446 -265 q 311 -324 368 -324 z "},"à":{"ha":833,"x_min":44,"x_max":801,"o":"m 274 -14 q 101 67 158 -14 q 67 285 44 147 l 99 479 q 156 638 114 571 q 260 741 197 704 q 400 778 324 778 q 540 723 494 778 q 569 569 585 668 l 528 618 l 576 618 l 594 764 l 801 764 l 681 0 l 479 0 l 503 146 l 454 146 l 510 194 q 431 41 494 96 q 274 -14 368 -14 m 378 167 q 472 199 435 167 q 518 292 508 232 l 547 472 q 530 565 557 532 q 446 597 503 597 q 351 565 388 597 q 306 472 315 532 l 276 292 q 293 199 267 232 q 378 167 319 167 m 421 896 l 289 1090 l 510 1090 l 625 896 l 421 896 z "},"ả":{"ha":833,"x_min":44,"x_max":801,"o":"m 274 -14 q 101 67 158 -14 q 67 285 44 147 l 99 479 q 156 638 114 571 q 260 741 197 704 q 400 778 324 778 q 540 723 494 778 q 569 569 585 668 l 528 618 l 576 618 l 594 764 l 801 764 l 681 0 l 479 0 l 503 146 l 454 146 l 510 194 q 431 41 494 96 q 274 -14 368 -14 m 378 167 q 472 199 435 167 q 518 292 508 232 l 547 472 q 530 565 557 532 q 446 597 503 597 q 351 565 388 597 q 306 472 315 532 l 276 292 q 293 199 267 232 q 378 167 319 167 m 417 896 l 497 976 q 517 999 511 990 q 525 1017 524 1008 q 492 1040 529 1040 l 389 1040 l 407 1158 l 553 1158 q 653 1126 618 1158 q 679 1039 689 1093 q 665 994 676 1017 q 636 954 654 972 l 578 896 l 417 896 z "},"ā":{"ha":833,"x_min":44,"x_max":801,"o":"m 274 -14 q 101 67 158 -14 q 67 285 44 147 l 99 479 q 156 638 114 571 q 260 741 197 704 q 400 778 324 778 q 540 723 494 778 q 569 569 585 668 l 528 618 l 576 618 l 594 764 l 801 764 l 681 0 l 479 0 l 503 146 l 454 146 l 510 194 q 431 41 494 96 q 274 -14 368 -14 m 378 167 q 472 199 435 167 q 518 292 508 232 l 547 472 q 530 565 557 532 q 446 597 503 597 q 351 565 388 597 q 306 472 315 532 l 276 292 q 293 199 267 232 q 378 167 319 167 m 257 910 l 281 1063 l 781 1063 l 757 910 l 257 910 z "},"ą":{"ha":833,"x_min":44,"x_max":801,"o":"m 558 -312 q 432 -270 474 -312 q 401 -160 390 -228 q 458 -63 408 -111 q 583 15 507 -15 l 683 0 q 606 -70 628 -43 q 581 -115 583 -97 q 592 -151 578 -136 q 636 -167 606 -167 l 732 -167 l 708 -312 l 558 -312 m 274 -14 q 101 67 158 -14 q 67 285 44 147 l 99 479 q 156 638 114 571 q 260 741 197 704 q 400 778 324 778 q 540 723 494 778 q 569 569 585 668 l 528 618 l 576 618 l 594 764 l 801 764 l 681 0 l 479 0 l 503 146 l 454 146 l 510 194 q 431 41 494 96 q 274 -14 368 -14 m 378 167 q 472 199 435 167 q 518 292 508 232 l 547 472 q 530 565 557 532 q 446 597 503 597 q 351 565 388 597 q 306 472 315 532 l 276 292 q 293 199 267 232 q 378 167 319 167 z "},"å":{"ha":833,"x_min":44,"x_max":801,"o":"m 274 -14 q 101 67 158 -14 q 67 285 44 147 l 99 479 q 156 638 114 571 q 260 741 197 704 q 400 778 324 778 q 540 723 494 778 q 569 569 585 668 l 528 618 l 576 618 l 594 764 l 801 764 l 681 0 l 479 0 l 503 146 l 454 146 l 510 194 q 431 41 494 96 q 274 -14 368 -14 m 378 167 q 472 199 435 167 q 518 292 508 232 l 547 472 q 530 565 557 532 q 446 597 503 597 q 351 565 388 597 q 306 472 315 532 l 276 292 q 293 199 267 232 q 378 167 319 167 m 494 832 q 361 881 407 832 q 328 1008 315 929 q 401 1136 340 1088 q 550 1185 463 1185 q 683 1136 638 1185 q 717 1008 729 1088 q 643 881 704 929 q 494 832 582 832 m 510 929 q 574 951 547 929 q 606 1008 600 974 q 592 1066 611 1044 q 535 1088 572 1088 q 471 1066 497 1088 q 439 1008 444 1044 q 453 951 433 974 q 510 929 472 929 z "},"ã":{"ha":833,"x_min":44,"x_max":801,"o":"m 274 -14 q 101 67 158 -14 q 67 285 44 147 l 99 479 q 156 638 114 571 q 260 741 197 704 q 400 778 324 778 q 540 723 494 778 q 569 569 585 668 l 528 618 l 576 618 l 594 764 l 801 764 l 681 0 l 479 0 l 503 146 l 454 146 l 510 194 q 431 41 494 96 q 274 -14 368 -14 m 378 167 q 472 199 435 167 q 518 292 508 232 l 547 472 q 530 565 557 532 q 446 597 503 597 q 351 565 388 597 q 306 472 315 532 l 276 292 q 293 199 267 232 q 378 167 319 167 m 600 882 q 530 894 556 882 q 489 924 504 907 q 460 953 474 940 q 425 965 446 965 q 393 953 407 965 q 376 919 379 940 l 371 889 l 253 889 l 261 938 q 322 1057 272 1010 q 440 1104 372 1104 q 510 1092 485 1104 q 550 1063 535 1079 q 579 1033 565 1046 q 614 1021 593 1021 q 647 1031 633 1021 q 663 1060 660 1042 l 668 1097 l 786 1097 l 779 1049 q 719 929 768 976 q 600 882 669 882 z "},"æ":{"ha":833,"x_min":4,"x_max":829,"o":"m 175 -14 q 47 44 90 -14 q 18 194 4 101 l 29 264 q 115 405 43 351 q 289 458 186 458 l 349 458 l 367 569 q 359 624 372 604 q 317 643 346 643 q 263 620 285 643 q 235 556 242 597 l 75 556 q 157 717 92 656 q 314 778 222 778 q 398 761 367 778 q 443 720 429 744 q 457 674 457 696 l 468 674 q 497 720 475 696 q 556 761 518 744 q 646 778 593 778 q 783 721 736 778 q 814 569 829 664 l 779 347 l 490 347 l 465 194 q 474 140 460 160 q 519 121 489 121 q 569 140 550 121 q 594 194 589 160 l 754 194 q 675 44 740 101 q 519 -14 610 -14 q 435 3 467 -14 q 389 44 403 19 q 375 90 375 68 l 364 90 q 333 44 357 68 q 271 3 310 19 q 175 -14 232 -14 m 235 121 q 283 140 264 121 q 307 194 301 160 l 332 347 l 272 347 q 218 326 240 347 q 189 264 196 304 l 178 194 q 188 140 172 160 q 235 121 203 121 m 507 458 l 636 458 l 654 569 q 646 624 660 606 q 601 643 632 643 q 551 624 571 643 q 525 569 531 604 l 507 458 z "},"ǽ":{"ha":833,"x_min":4,"x_max":829,"o":"m 175 -14 q 47 44 90 -14 q 18 194 4 101 l 29 264 q 115 405 43 351 q 289 458 186 458 l 349 458 l 367 569 q 359 624 372 604 q 317 643 346 643 q 263 620 285 643 q 235 556 242 597 l 75 556 q 157 717 92 656 q 314 778 222 778 q 398 761 367 778 q 443 720 429 744 q 457 674 457 696 l 468 674 q 497 720 475 696 q 556 761 518 744 q 646 778 593 778 q 783 721 736 778 q 814 569 829 664 l 779 347 l 490 347 l 465 194 q 474 140 460 160 q 519 121 489 121 q 569 140 550 121 q 594 194 589 160 l 754 194 q 675 44 740 101 q 519 -14 610 -14 q 435 3 467 -14 q 389 44 403 19 q 375 90 375 68 l 364 90 q 333 44 357 68 q 271 3 310 19 q 175 -14 232 -14 m 235 121 q 283 140 264 121 q 307 194 301 160 l 332 347 l 272 347 q 218 326 240 347 q 189 264 196 304 l 178 194 q 188 140 172 160 q 235 121 203 121 m 507 458 l 636 458 l 654 569 q 646 624 660 606 q 601 643 632 643 q 551 624 571 643 q 525 569 531 604 l 507 458 m 371 896 l 547 1090 l 779 1090 l 586 896 l 371 896 z "},"b":{"ha":833,"x_min":31,"x_max":786,"o":"m 432 -14 q 292 41 338 -14 q 263 194 247 96 l 304 146 l 256 146 l 232 0 l 31 0 l 192 1014 l 400 1014 l 367 806 l 329 618 l 378 618 l 322 569 q 401 723 338 668 q 558 778 464 778 q 730 697 674 778 q 765 479 786 615 l 733 285 q 677 126 719 193 q 572 22 635 58 q 432 -14 510 -14 m 386 167 q 481 199 444 167 q 526 292 517 232 l 556 472 q 539 565 565 532 q 454 597 513 597 q 360 565 397 597 q 314 472 324 532 l 285 292 q 302 199 275 232 q 386 167 329 167 z "},"c":{"ha":833,"x_min":54,"x_max":790,"o":"m 357 -14 q 185 24 256 -14 q 85 131 115 63 q 68 292 54 200 l 97 472 q 165 633 113 565 q 300 740 218 701 q 483 778 382 778 q 713 701 635 778 q 775 493 790 625 l 567 493 q 541 569 571 542 q 454 597 511 597 q 353 565 392 597 q 306 472 315 533 l 276 292 q 295 199 267 232 q 386 167 324 167 q 481 194 443 167 q 532 271 519 221 l 740 271 q 611 63 714 139 q 357 -14 508 -14 z "},"ć":{"ha":833,"x_min":54,"x_max":790,"o":"m 357 -14 q 185 24 256 -14 q 85 131 115 63 q 68 292 54 200 l 97 472 q 165 633 113 565 q 300 740 218 701 q 483 778 382 778 q 713 701 635 778 q 775 493 790 625 l 567 493 q 541 569 571 542 q 454 597 511 597 q 353 565 392 597 q 306 472 315 533 l 276 292 q 295 199 267 232 q 386 167 324 167 q 481 194 443 167 q 532 271 519 221 l 740 271 q 611 63 714 139 q 357 -14 508 -14 m 375 896 l 551 1090 l 783 1090 l 590 896 l 375 896 z "},"č":{"ha":833,"x_min":54,"x_max":818,"o":"m 357 -14 q 185 24 256 -14 q 85 131 115 63 q 68 292 54 200 l 97 472 q 165 633 113 565 q 300 740 218 701 q 483 778 382 778 q 713 701 635 778 q 775 493 790 625 l 567 493 q 541 569 571 542 q 454 597 511 597 q 353 565 392 597 q 306 472 315 533 l 276 292 q 295 199 267 232 q 386 167 324 167 q 481 194 443 167 q 532 271 519 221 l 740 271 q 611 63 714 139 q 357 -14 508 -14 m 406 896 l 249 1090 l 432 1090 l 517 993 l 625 1090 l 818 1090 l 600 896 l 406 896 z "},"ç":{"ha":833,"x_min":54,"x_max":790,"o":"m 157 -312 l 172 -215 l 283 -215 q 342 -199 318 -215 q 368 -165 367 -182 q 334 -115 374 -133 q 218 -96 294 -96 l 286 22 l 388 22 l 349 -54 q 434 -72 390 -57 q 505 -114 478 -86 q 525 -185 532 -142 q 457 -274 517 -236 q 310 -312 397 -312 l 157 -312 m 357 -14 q 185 24 256 -14 q 85 131 115 63 q 68 292 54 200 l 97 472 q 165 633 113 565 q 300 740 218 701 q 483 778 382 778 q 713 701 635 778 q 775 493 790 625 l 567 493 q 541 569 571 542 q 454 597 511 597 q 353 565 392 597 q 306 472 315 533 l 276 292 q 295 199 267 232 q 386 167 324 167 q 481 194 443 167 q 532 271 519 221 l 740 271 q 611 63 714 139 q 357 -14 508 -14 z "},"ĉ":{"ha":833,"x_min":54,"x_max":790,"o":"m 357 -14 q 185 24 256 -14 q 85 131 115 63 q 68 292 54 200 l 97 472 q 165 633 113 565 q 300 740 218 701 q 483 778 382 778 q 713 701 635 778 q 775 493 790 625 l 567 493 q 541 569 571 542 q 454 597 511 597 q 353 565 392 597 q 306 472 315 533 l 276 292 q 295 199 267 232 q 386 167 324 167 q 481 194 443 167 q 532 271 519 221 l 740 271 q 611 63 714 139 q 357 -14 508 -14 m 213 896 l 431 1090 l 625 1090 l 782 896 l 599 896 l 514 993 l 406 896 l 213 896 z "},"ċ":{"ha":833,"x_min":54,"x_max":790,"o":"m 357 -14 q 185 24 256 -14 q 85 131 115 63 q 68 292 54 200 l 97 472 q 165 633 113 565 q 300 740 218 701 q 483 778 382 778 q 713 701 635 778 q 775 493 790 625 l 567 493 q 541 569 571 542 q 454 597 511 597 q 353 565 392 597 q 306 472 315 533 l 276 292 q 295 199 267 232 q 386 167 324 167 q 481 194 443 167 q 532 271 519 221 l 740 271 q 611 63 714 139 q 357 -14 508 -14 m 496 885 q 410 914 439 885 q 388 993 381 943 q 435 1072 396 1043 q 531 1101 474 1101 q 617 1072 588 1101 q 638 993 646 1043 q 592 914 631 943 q 496 885 553 885 z "},"d":{"ha":833,"x_min":46,"x_max":842,"o":"m 274 -14 q 102 67 158 -14 q 67 285 46 147 l 99 479 q 155 638 113 571 q 260 741 197 704 q 400 778 324 778 q 540 723 494 778 q 569 569 585 668 l 528 618 l 576 618 l 600 806 l 633 1014 l 842 1014 l 681 0 l 479 0 l 503 146 l 454 146 l 510 194 q 431 41 494 96 q 274 -14 368 -14 m 378 167 q 472 199 435 167 q 518 292 508 232 l 547 472 q 530 565 557 532 q 446 597 503 597 q 351 565 388 597 q 306 472 315 532 l 276 292 q 293 199 267 232 q 378 167 319 167 z "},"ð":{"ha":833,"x_min":31,"x_max":788,"o":"m 356 0 q 172 41 247 0 q 64 156 97 82 q 46 328 31 229 q 107 488 61 419 q 223 595 153 557 q 376 633 293 633 q 461 615 425 633 q 522 572 497 597 q 556 521 546 546 l 564 521 q 553 563 567 526 q 492 679 540 599 l 435 775 l 199 696 l 219 844 l 363 892 l 289 1014 l 501 1014 l 536 954 l 788 1038 l 767 890 l 610 839 l 667 746 q 761 536 736 633 q 772 349 786 439 q 699 163 756 242 q 554 42 642 85 q 356 0 467 0 m 383 174 q 501 215 453 174 q 560 326 550 257 q 554 407 568 372 q 509 460 540 442 q 432 479 478 479 q 314 438 363 479 q 254 326 265 396 q 279 215 244 257 q 383 174 314 174 z "},"ď":{"ha":833,"x_min":17,"x_max":954,"o":"m 761 764 l 801 1014 l 954 1014 l 900 764 l 761 764 m 218 -14 q 65 65 114 -14 q 39 278 17 143 l 72 488 q 167 699 93 621 q 344 778 240 778 q 463 722 425 778 q 486 569 501 665 l 444 618 l 493 618 l 517 806 l 550 1014 l 744 1014 l 583 0 l 396 0 l 419 146 l 371 146 l 426 194 q 356 42 413 99 q 218 -14 299 -14 m 319 153 q 394 188 364 153 q 433 285 424 222 l 465 481 q 456 576 475 542 q 393 611 438 611 q 309 576 343 611 q 265 481 275 542 l 233 285 q 247 188 224 222 q 319 153 269 153 z "},"đ":{"ha":833,"x_min":46,"x_max":914,"o":"m 67 285 l 85 396 q 142 554 100 488 q 247 658 183 621 q 386 694 310 694 q 514 653 468 694 q 560 535 560 611 l 564 535 l 586 722 l 594 771 l 394 771 l 414 896 l 614 896 l 633 1014 l 842 1014 l 822 896 l 914 896 l 894 771 l 803 771 l 681 0 l 479 0 l 503 146 l 499 146 q 415 28 474 69 q 274 -14 356 -14 q 102 67 158 -14 q 67 285 46 147 m 276 292 q 293 199 267 232 q 378 167 319 167 q 472 199 435 167 q 518 292 508 232 l 533 389 q 517 481 543 449 q 433 514 490 514 q 338 481 375 514 q 292 389 301 449 l 276 292 z "},"e":{"ha":833,"x_min":54,"x_max":779,"o":"m 354 -14 q 183 24 253 -14 q 84 131 114 63 q 68 292 54 200 l 97 472 q 165 633 113 564 q 298 740 217 701 q 481 778 379 778 q 651 740 582 778 q 749 633 719 701 q 764 472 779 564 l 742 333 l 274 333 l 267 292 q 285 183 256 219 q 383 146 314 146 q 465 163 432 146 q 511 208 497 179 l 715 208 q 635 92 689 142 q 509 14 581 42 q 354 -14 438 -14 m 560 440 l 565 475 q 550 583 576 546 q 456 621 524 621 q 347 582 388 621 q 296 472 307 543 l 292 451 l 576 454 l 560 440 z "},"é":{"ha":833,"x_min":54,"x_max":779,"o":"m 354 -14 q 183 24 253 -14 q 84 131 114 63 q 68 292 54 200 l 97 472 q 165 633 113 564 q 298 740 217 701 q 481 778 379 778 q 651 740 582 778 q 749 633 719 701 q 764 472 779 564 l 742 333 l 274 333 l 267 292 q 285 183 256 219 q 383 146 314 146 q 465 163 432 146 q 511 208 497 179 l 715 208 q 635 92 689 142 q 509 14 581 42 q 354 -14 438 -14 m 560 440 l 565 475 q 550 583 576 546 q 456 621 524 621 q 347 582 388 621 q 296 472 307 543 l 292 451 l 576 454 l 560 440 m 371 896 l 547 1090 l 779 1090 l 586 896 l 371 896 z "},"ĕ":{"ha":833,"x_min":54,"x_max":785,"o":"m 354 -14 q 183 24 253 -14 q 84 131 114 63 q 68 292 54 200 l 97 472 q 165 633 113 564 q 298 740 217 701 q 481 778 379 778 q 651 740 582 778 q 749 633 719 701 q 764 472 779 564 l 742 333 l 274 333 l 267 292 q 285 183 256 219 q 383 146 314 146 q 465 163 432 146 q 511 208 497 179 l 715 208 q 635 92 689 142 q 509 14 581 42 q 354 -14 438 -14 m 560 440 l 565 475 q 550 583 576 546 q 456 621 524 621 q 347 582 388 621 q 296 472 307 543 l 292 451 l 576 454 l 560 440 m 496 882 q 319 940 382 882 q 271 1090 257 997 l 428 1090 q 445 1027 422 1051 q 511 1003 468 1003 q 586 1027 556 1003 q 622 1090 617 1051 l 785 1090 q 691 940 771 997 q 496 882 611 882 z "},"ě":{"ha":833,"x_min":54,"x_max":814,"o":"m 354 -14 q 183 24 253 -14 q 84 131 114 63 q 68 292 54 200 l 97 472 q 165 633 113 564 q 298 740 217 701 q 481 778 379 778 q 651 740 582 778 q 749 633 719 701 q 764 472 779 564 l 742 333 l 274 333 l 267 292 q 285 183 256 219 q 383 146 314 146 q 465 163 432 146 q 511 208 497 179 l 715 208 q 635 92 689 142 q 509 14 581 42 q 354 -14 438 -14 m 560 440 l 565 475 q 550 583 576 546 q 456 621 524 621 q 347 582 388 621 q 296 472 307 543 l 292 451 l 576 454 l 560 440 m 401 896 l 244 1090 l 428 1090 l 513 993 l 621 1090 l 814 1090 l 596 896 l 401 896 z "},"ê":{"ha":833,"x_min":54,"x_max":782,"o":"m 354 -14 q 183 24 253 -14 q 84 131 114 63 q 68 292 54 200 l 97 472 q 165 633 113 564 q 298 740 217 701 q 481 778 379 778 q 651 740 582 778 q 749 633 719 701 q 764 472 779 564 l 742 333 l 274 333 l 267 292 q 285 183 256 219 q 383 146 314 146 q 465 163 432 146 q 511 208 497 179 l 715 208 q 635 92 689 142 q 509 14 581 42 q 354 -14 438 -14 m 560 440 l 565 475 q 550 583 576 546 q 456 621 524 621 q 347 582 388 621 q 296 472 307 543 l 292 451 l 576 454 l 560 440 m 213 896 l 431 1090 l 625 1090 l 782 896 l 599 896 l 514 993 l 406 896 l 213 896 z "},"ế":{"ha":833,"x_min":54,"x_max":1090,"o":"m 354 -14 q 183 24 253 -14 q 84 131 114 63 q 68 292 54 200 l 97 472 q 165 633 113 564 q 298 740 217 701 q 481 778 379 778 q 651 740 582 778 q 749 633 719 701 q 764 472 779 564 l 742 333 l 274 333 l 267 292 q 285 183 256 219 q 383 146 314 146 q 465 163 432 146 q 511 208 497 179 l 715 208 q 635 92 689 142 q 509 14 581 42 q 354 -14 438 -14 m 560 440 l 565 475 q 550 583 576 546 q 456 621 524 621 q 347 582 388 621 q 296 472 307 543 l 292 451 l 576 454 l 560 440 m 689 1049 l 886 1243 l 1090 1243 l 879 1049 l 689 1049 m 213 896 l 431 1090 l 625 1090 l 782 896 l 597 896 l 513 993 l 404 896 l 213 896 z "},"ệ":{"ha":833,"x_min":54,"x_max":788,"o":"m 218 896 l 436 1090 l 631 1090 l 788 896 l 604 896 l 519 993 l 411 896 l 218 896 m 354 -14 q 183 24 253 -14 q 84 131 114 63 q 68 292 54 200 l 97 472 q 165 633 113 564 q 298 740 217 701 q 481 778 379 778 q 651 740 582 778 q 749 633 719 701 q 764 472 779 564 l 742 333 l 274 333 l 267 292 q 285 183 256 219 q 383 146 314 146 q 465 163 432 146 q 511 208 497 179 l 715 208 q 635 92 689 142 q 509 14 581 42 q 354 -14 438 -14 m 560 440 l 565 475 q 550 583 576 546 q 456 621 524 621 q 347 582 388 621 q 296 472 307 543 l 292 451 l 576 454 l 560 440 m 304 -324 q 218 -294 247 -324 q 196 -215 189 -265 q 243 -136 204 -165 q 339 -107 282 -107 q 425 -136 396 -107 q 446 -215 454 -165 q 400 -294 439 -265 q 304 -324 361 -324 z "},"ề":{"ha":833,"x_min":54,"x_max":938,"o":"m 354 -14 q 183 24 253 -14 q 84 131 114 63 q 68 292 54 200 l 97 472 q 165 633 113 564 q 298 740 217 701 q 481 778 379 778 q 651 740 582 778 q 749 633 719 701 q 764 472 779 564 l 742 333 l 274 333 l 267 292 q 285 183 256 219 q 383 146 314 146 q 465 163 432 146 q 511 208 497 179 l 715 208 q 635 92 689 142 q 509 14 581 42 q 354 -14 438 -14 m 560 440 l 565 475 q 550 583 576 546 q 456 621 524 621 q 347 582 388 621 q 296 472 307 543 l 292 451 l 576 454 l 560 440 m 753 1049 l 603 1243 l 801 1243 l 938 1049 l 753 1049 m 213 896 l 431 1090 l 625 1090 l 782 896 l 597 896 l 513 993 l 404 896 l 213 896 z "},"ể":{"ha":833,"x_min":54,"x_max":976,"o":"m 354 -14 q 183 24 253 -14 q 84 131 114 63 q 68 292 54 200 l 97 472 q 165 633 113 564 q 298 740 217 701 q 481 778 379 778 q 651 740 582 778 q 749 633 719 701 q 764 472 779 564 l 742 333 l 274 333 l 267 292 q 285 183 256 219 q 383 146 314 146 q 465 163 432 146 q 511 208 497 179 l 715 208 q 635 92 689 142 q 509 14 581 42 q 354 -14 438 -14 m 560 440 l 565 475 q 550 583 576 546 q 456 621 524 621 q 347 582 388 621 q 296 472 307 543 l 292 451 l 576 454 l 560 440 m 707 1049 l 788 1129 q 814 1169 813 1154 q 781 1193 818 1193 l 676 1193 l 696 1311 l 842 1311 q 942 1278 907 1311 q 968 1192 976 1246 q 924 1107 960 1143 l 867 1049 l 707 1049 m 213 896 l 431 1090 l 625 1090 l 782 896 l 597 896 l 513 993 l 404 896 l 213 896 z "},"ễ":{"ha":833,"x_min":54,"x_max":818,"o":"m 354 -14 q 183 24 253 -14 q 84 131 114 63 q 68 292 54 200 l 97 472 q 165 633 113 564 q 298 740 217 701 q 481 778 379 778 q 651 740 582 778 q 749 633 719 701 q 764 472 779 564 l 742 333 l 274 333 l 267 292 q 285 183 256 219 q 383 146 314 146 q 465 163 432 146 q 511 208 497 179 l 715 208 q 635 92 689 142 q 509 14 581 42 q 354 -14 438 -14 m 560 440 l 565 475 q 550 583 576 546 q 456 621 524 621 q 347 582 388 621 q 296 472 307 543 l 292 451 l 576 454 l 560 440 m 635 1147 q 565 1160 590 1147 q 524 1188 539 1172 q 494 1217 508 1204 q 460 1229 481 1229 q 411 1183 421 1229 l 406 1153 l 288 1153 l 293 1188 q 354 1303 304 1260 q 472 1347 404 1347 q 542 1335 517 1347 q 582 1306 567 1322 q 611 1278 597 1290 q 646 1265 625 1265 q 694 1304 688 1265 l 700 1339 l 818 1339 l 813 1307 q 752 1191 800 1235 q 635 1147 704 1147 m 213 896 l 431 1090 l 625 1090 l 782 896 l 597 896 l 513 993 l 404 896 l 213 896 z "},"ë":{"ha":833,"x_min":54,"x_max":801,"o":"m 354 -14 q 183 24 253 -14 q 84 131 114 63 q 68 292 54 200 l 97 472 q 165 633 113 564 q 298 740 217 701 q 481 778 379 778 q 651 740 582 778 q 749 633 719 701 q 764 472 779 564 l 742 333 l 274 333 l 267 292 q 285 183 256 219 q 383 146 314 146 q 465 163 432 146 q 511 208 497 179 l 715 208 q 635 92 689 142 q 509 14 581 42 q 354 -14 438 -14 m 560 440 l 565 475 q 550 583 576 546 q 456 621 524 621 q 347 582 388 621 q 296 472 307 543 l 292 451 l 576 454 l 560 440 m 665 885 q 589 914 614 885 q 571 993 564 943 q 614 1072 579 1043 q 700 1101 649 1101 q 776 1072 751 1101 q 793 993 801 1043 q 751 914 786 943 q 665 885 717 885 m 326 885 q 250 914 275 885 q 232 993 225 943 q 275 1072 240 1043 q 361 1101 310 1101 q 438 1072 413 1101 q 454 993 463 1043 q 413 914 447 943 q 326 885 378 885 z "},"ė":{"ha":833,"x_min":54,"x_max":779,"o":"m 354 -14 q 183 24 253 -14 q 84 131 114 63 q 68 292 54 200 l 97 472 q 165 633 113 564 q 298 740 217 701 q 481 778 379 778 q 651 740 582 778 q 749 633 719 701 q 764 472 779 564 l 742 333 l 274 333 l 267 292 q 285 183 256 219 q 383 146 314 146 q 465 163 432 146 q 511 208 497 179 l 715 208 q 635 92 689 142 q 509 14 581 42 q 354 -14 438 -14 m 560 440 l 565 475 q 550 583 576 546 q 456 621 524 621 q 347 582 388 621 q 296 472 307 543 l 292 451 l 576 454 l 560 440 m 496 885 q 410 914 439 885 q 388 993 381 943 q 435 1072 396 1043 q 531 1101 474 1101 q 617 1072 588 1101 q 638 993 646 1043 q 592 914 631 943 q 496 885 553 885 z "},"ẹ":{"ha":833,"x_min":54,"x_max":779,"o":"m 354 -14 q 183 24 253 -14 q 84 131 114 63 q 68 292 54 200 l 97 472 q 165 633 113 564 q 298 740 217 701 q 481 778 379 778 q 651 740 582 778 q 749 633 719 701 q 764 472 779 564 l 742 333 l 274 333 l 267 292 q 285 183 256 219 q 383 146 314 146 q 465 163 432 146 q 511 208 497 179 l 715 208 q 635 92 689 142 q 509 14 581 42 q 354 -14 438 -14 m 560 440 l 565 475 q 550 583 576 546 q 456 621 524 621 q 347 582 388 621 q 296 472 307 543 l 292 451 l 576 454 l 560 440 m 304 -324 q 218 -294 247 -324 q 196 -215 189 -265 q 243 -136 204 -165 q 339 -107 282 -107 q 425 -136 396 -107 q 446 -215 454 -165 q 400 -294 439 -265 q 304 -324 361 -324 z "},"è":{"ha":833,"x_min":54,"x_max":779,"o":"m 354 -14 q 183 24 253 -14 q 84 131 114 63 q 68 292 54 200 l 97 472 q 165 633 113 564 q 298 740 217 701 q 481 778 379 778 q 651 740 582 778 q 749 633 719 701 q 764 472 779 564 l 742 333 l 274 333 l 267 292 q 285 183 256 219 q 383 146 314 146 q 465 163 432 146 q 511 208 497 179 l 715 208 q 635 92 689 142 q 509 14 581 42 q 354 -14 438 -14 m 560 440 l 565 475 q 550 583 576 546 q 456 621 524 621 q 347 582 388 621 q 296 472 307 543 l 292 451 l 576 454 l 560 440 m 414 896 l 282 1090 l 503 1090 l 618 896 l 414 896 z "},"ẻ":{"ha":833,"x_min":54,"x_max":779,"o":"m 354 -14 q 183 24 253 -14 q 84 131 114 63 q 68 292 54 200 l 97 472 q 165 633 113 564 q 298 740 217 701 q 481 778 379 778 q 651 740 582 778 q 749 633 719 701 q 764 472 779 564 l 742 333 l 274 333 l 267 292 q 285 183 256 219 q 383 146 314 146 q 465 163 432 146 q 511 208 497 179 l 715 208 q 635 92 689 142 q 509 14 581 42 q 354 -14 438 -14 m 560 440 l 565 475 q 550 583 576 546 q 456 621 524 621 q 347 582 388 621 q 296 472 307 543 l 292 451 l 576 454 l 560 440 m 410 896 l 490 976 q 510 999 504 990 q 518 1017 517 1008 q 485 1040 522 1040 l 382 1040 l 400 1158 l 546 1158 q 647 1126 611 1158 q 672 1039 682 1093 q 658 994 669 1017 q 629 954 647 972 l 571 896 l 410 896 z "},"ē":{"ha":833,"x_min":54,"x_max":779,"o":"m 354 -14 q 183 24 253 -14 q 84 131 114 63 q 68 292 54 200 l 97 472 q 165 633 113 564 q 298 740 217 701 q 481 778 379 778 q 651 740 582 778 q 749 633 719 701 q 764 472 779 564 l 742 333 l 274 333 l 267 292 q 285 183 256 219 q 383 146 314 146 q 465 163 432 146 q 511 208 497 179 l 715 208 q 635 92 689 142 q 509 14 581 42 q 354 -14 438 -14 m 560 440 l 565 475 q 550 583 576 546 q 456 621 524 621 q 347 582 388 621 q 296 472 307 543 l 292 451 l 576 454 l 560 440 m 250 910 l 274 1063 l 774 1063 l 750 910 l 250 910 z "},"ę":{"ha":833,"x_min":54,"x_max":779,"o":"m 389 -312 q 263 -270 304 -312 q 232 -160 221 -228 q 292 -60 239 -111 q 444 40 346 -10 q 415 3 440 19 q 354 -14 390 -14 q 183 24 253 -14 q 84 131 114 63 q 68 292 54 200 l 97 472 q 165 633 113 564 q 298 740 217 701 q 481 778 379 778 q 651 740 582 778 q 749 633 719 701 q 764 472 779 564 l 742 333 l 274 333 l 267 292 q 285 183 256 219 q 383 146 314 146 q 465 163 432 146 q 511 208 497 179 l 715 208 q 653 113 693 156 q 564 40 614 71 l 482 -25 q 433 -74 451 -50 q 411 -115 414 -97 q 422 -151 408 -136 q 467 -167 436 -167 l 563 -167 l 539 -312 l 389 -312 m 560 440 l 565 475 q 550 583 576 546 q 456 621 524 621 q 347 582 388 621 q 296 472 307 543 l 292 451 l 576 454 l 560 440 z "},"ẽ":{"ha":833,"x_min":54,"x_max":779,"o":"m 354 -14 q 183 24 253 -14 q 84 131 114 63 q 68 292 54 200 l 97 472 q 165 633 113 564 q 298 740 217 701 q 481 778 379 778 q 651 740 582 778 q 749 633 719 701 q 764 472 779 564 l 742 333 l 274 333 l 267 292 q 285 183 256 219 q 383 146 314 146 q 465 163 432 146 q 511 208 497 179 l 715 208 q 635 92 689 142 q 509 14 581 42 q 354 -14 438 -14 m 560 440 l 565 475 q 550 583 576 546 q 456 621 524 621 q 347 582 388 621 q 296 472 307 543 l 292 451 l 576 454 l 560 440 m 593 882 q 523 894 549 882 q 482 924 497 907 q 453 953 467 940 q 418 965 439 965 q 386 953 400 965 q 369 919 372 940 l 364 889 l 246 889 l 254 938 q 315 1057 265 1010 q 433 1104 365 1104 q 503 1092 478 1104 q 543 1063 528 1079 q 572 1033 558 1046 q 607 1021 586 1021 q 640 1031 626 1021 q 656 1060 653 1042 l 661 1097 l 779 1097 l 772 1049 q 712 929 761 976 q 593 882 663 882 z "},"ə":{"ha":833,"x_min":54,"x_max":779,"o":"m 351 -14 q 181 24 250 -14 q 83 131 113 63 q 68 292 54 200 l 90 431 l 558 431 l 565 472 q 547 581 576 544 q 449 618 518 618 q 368 601 400 618 q 321 556 336 585 l 117 556 q 256 717 158 656 q 478 778 354 778 q 649 740 581 778 q 749 633 718 701 q 764 472 779 564 l 735 292 q 669 131 721 200 q 535 24 617 63 q 351 -14 454 -14 m 378 146 q 486 183 447 146 q 536 292 525 221 l 540 313 l 257 313 l 272 326 l 267 292 q 283 183 256 221 q 378 146 310 146 z "},"f":{"ha":833,"x_min":-83,"x_max":858,"o":"m -83 -250 l -57 -83 l 79 -83 q 170 -54 135 -83 q 214 26 206 -25 l 286 486 l 83 486 l 114 674 l 317 674 l 333 778 q 386 902 344 849 q 492 985 428 956 q 635 1014 556 1014 l 858 1014 l 829 833 l 613 833 q 565 816 585 833 q 540 771 544 799 l 525 674 l 804 674 l 774 486 l 494 486 l 421 19 q 304 -178 401 -106 q 60 -250 207 -250 l -83 -250 z "},"g":{"ha":833,"x_min":54,"x_max":801,"o":"m 100 -250 l 126 -83 l 342 -83 q 436 -54 400 -83 q 481 26 472 -25 l 485 56 l 511 201 l 463 201 l 519 250 q 440 97 503 151 q 283 42 378 42 q 111 122 168 42 q 76 340 54 203 l 99 479 q 155 638 113 571 q 260 741 197 704 q 400 778 324 778 q 540 723 494 778 q 569 569 585 668 l 528 618 l 576 618 l 593 764 l 801 764 l 683 19 q 567 -178 664 -106 q 322 -250 469 -250 l 100 -250 m 386 222 q 481 255 443 222 q 528 347 518 288 l 547 472 q 530 565 557 532 q 446 597 503 597 q 351 565 388 597 q 306 472 315 532 l 286 347 q 302 255 276 288 q 386 222 328 222 z "},"ǵ":{"ha":833,"x_min":54,"x_max":801,"o":"m 100 -250 l 126 -83 l 342 -83 q 436 -54 400 -83 q 481 26 472 -25 l 485 56 l 511 201 l 463 201 l 519 250 q 440 97 503 151 q 283 42 378 42 q 111 122 168 42 q 76 340 54 203 l 99 479 q 155 638 113 571 q 260 741 197 704 q 400 778 324 778 q 540 723 494 778 q 569 569 585 668 l 528 618 l 576 618 l 593 764 l 801 764 l 683 19 q 567 -178 664 -106 q 322 -250 469 -250 l 100 -250 m 386 222 q 481 255 443 222 q 528 347 518 288 l 547 472 q 530 565 557 532 q 446 597 503 597 q 351 565 388 597 q 306 472 315 532 l 286 347 q 302 255 276 288 q 386 222 328 222 m 378 896 l 554 1090 l 786 1090 l 593 896 l 378 896 z "},"ğ":{"ha":833,"x_min":54,"x_max":801,"o":"m 100 -250 l 126 -83 l 342 -83 q 436 -54 400 -83 q 481 26 472 -25 l 485 56 l 511 201 l 463 201 l 519 250 q 440 97 503 151 q 283 42 378 42 q 111 122 168 42 q 76 340 54 203 l 99 479 q 155 638 113 571 q 260 741 197 704 q 400 778 324 778 q 540 723 494 778 q 569 569 585 668 l 528 618 l 576 618 l 593 764 l 801 764 l 683 19 q 567 -178 664 -106 q 322 -250 469 -250 l 100 -250 m 386 222 q 481 255 443 222 q 528 347 518 288 l 547 472 q 530 565 557 532 q 446 597 503 597 q 351 565 388 597 q 306 472 315 532 l 286 347 q 302 255 276 288 q 386 222 328 222 m 492 882 q 315 940 378 882 q 267 1090 253 997 l 424 1090 q 441 1027 418 1051 q 507 1003 464 1003 q 582 1027 551 1003 q 618 1090 613 1051 l 781 1090 q 687 940 767 997 q 492 882 607 882 z "},"ǧ":{"ha":833,"x_min":54,"x_max":810,"o":"m 100 -250 l 126 -83 l 342 -83 q 436 -54 400 -83 q 481 26 472 -25 l 485 56 l 511 201 l 463 201 l 519 250 q 440 97 503 151 q 283 42 378 42 q 111 122 168 42 q 76 340 54 203 l 99 479 q 155 638 113 571 q 260 741 197 704 q 400 778 324 778 q 540 723 494 778 q 569 569 585 668 l 528 618 l 576 618 l 593 764 l 801 764 l 683 19 q 567 -178 664 -106 q 322 -250 469 -250 l 100 -250 m 386 222 q 481 255 443 222 q 528 347 518 288 l 547 472 q 530 565 557 532 q 446 597 503 597 q 351 565 388 597 q 306 472 315 532 l 286 347 q 302 255 276 288 q 386 222 328 222 m 397 896 l 240 1090 l 424 1090 l 508 993 l 617 1090 l 810 1090 l 592 896 l 397 896 z "},"ĝ":{"ha":833,"x_min":54,"x_max":801,"o":"m 100 -250 l 126 -83 l 342 -83 q 436 -54 400 -83 q 481 26 472 -25 l 485 56 l 511 201 l 463 201 l 519 250 q 440 97 503 151 q 283 42 378 42 q 111 122 168 42 q 76 340 54 203 l 99 479 q 155 638 113 571 q 260 741 197 704 q 400 778 324 778 q 540 723 494 778 q 569 569 585 668 l 528 618 l 576 618 l 593 764 l 801 764 l 683 19 q 567 -178 664 -106 q 322 -250 469 -250 l 100 -250 m 386 222 q 481 255 443 222 q 528 347 518 288 l 547 472 q 530 565 557 532 q 446 597 503 597 q 351 565 388 597 q 306 472 315 532 l 286 347 q 302 255 276 288 q 386 222 328 222 m 208 896 l 426 1090 l 621 1090 l 778 896 l 594 896 l 510 993 l 401 896 l 208 896 z "},"ģ":{"ha":833,"x_min":54,"x_max":801,"o":"m 100 -250 l 126 -83 l 342 -83 q 436 -54 400 -83 q 481 26 472 -25 l 485 56 l 511 201 l 463 201 l 519 250 q 440 97 503 151 q 283 42 378 42 q 111 122 168 42 q 76 340 54 203 l 99 479 q 155 638 113 571 q 260 741 197 704 q 400 778 324 778 q 540 723 494 778 q 569 569 585 668 l 528 618 l 576 618 l 593 764 l 801 764 l 683 19 q 567 -178 664 -106 q 322 -250 469 -250 l 100 -250 m 386 222 q 481 255 443 222 q 528 347 518 288 l 547 472 q 530 565 557 532 q 446 597 503 597 q 351 565 388 597 q 306 472 315 532 l 286 347 q 302 255 276 288 q 386 222 328 222 m 743 1222 l 581 896 l 336 896 l 568 1222 l 743 1222 z "},"ġ":{"ha":833,"x_min":54,"x_max":801,"o":"m 100 -250 l 126 -83 l 342 -83 q 436 -54 400 -83 q 481 26 472 -25 l 485 56 l 511 201 l 463 201 l 519 250 q 440 97 503 151 q 283 42 378 42 q 111 122 168 42 q 76 340 54 203 l 99 479 q 155 638 113 571 q 260 741 197 704 q 400 778 324 778 q 540 723 494 778 q 569 569 585 668 l 528 618 l 576 618 l 593 764 l 801 764 l 683 19 q 567 -178 664 -106 q 322 -250 469 -250 l 100 -250 m 386 222 q 481 255 443 222 q 528 347 518 288 l 547 472 q 530 565 557 532 q 446 597 503 597 q 351 565 388 597 q 306 472 315 532 l 286 347 q 302 255 276 288 q 386 222 328 222 m 492 885 q 406 914 435 885 q 383 993 376 943 q 431 1072 392 1043 q 526 1101 469 1101 q 613 1072 583 1101 q 633 993 642 1043 q 588 914 626 943 q 492 885 549 885 z "},"h":{"ha":833,"x_min":31,"x_max":782,"o":"m 31 0 l 192 1014 l 400 1014 l 360 764 l 329 618 l 390 618 l 322 569 q 402 722 338 667 q 561 778 467 778 q 727 700 672 778 q 761 493 782 622 l 683 0 l 475 0 l 550 472 q 533 565 560 532 q 450 597 507 597 q 359 565 394 597 q 314 472 324 532 l 239 0 l 31 0 z "},"ħ":{"ha":833,"x_min":31,"x_max":768,"o":"m 61 771 l 81 896 l 172 896 l 192 1014 l 400 1014 l 381 896 l 581 896 l 561 771 l 361 771 l 347 681 l 317 535 l 321 535 q 406 652 346 610 q 547 694 465 694 q 713 617 658 694 q 749 410 768 539 l 683 0 l 475 0 l 536 389 q 520 481 546 449 q 438 514 494 514 q 346 481 382 514 q 300 389 310 449 l 239 0 l 31 0 l 153 771 l 61 771 z "},"ĥ":{"ha":833,"x_min":4,"x_max":782,"o":"m 31 0 l 192 1014 l 400 1014 l 360 764 l 329 618 l 390 618 l 322 569 q 402 722 338 667 q 561 778 467 778 q 727 700 672 778 q 761 493 782 622 l 683 0 l 475 0 l 550 472 q 533 565 560 532 q 450 597 507 597 q 359 565 394 597 q 314 472 324 532 l 239 0 l 31 0 m 4 1118 l 222 1313 l 417 1313 l 574 1118 l 390 1118 l 306 1215 l 197 1118 l 4 1118 z "},"i":{"ha":833,"x_min":36,"x_max":747,"o":"m 36 0 l 67 189 l 331 189 l 392 576 l 163 576 l 192 764 l 615 764 l 525 189 l 747 189 l 717 0 l 36 0 m 524 885 q 438 914 467 885 q 415 993 408 943 q 463 1072 424 1043 q 558 1101 501 1101 q 644 1072 615 1101 q 665 993 674 1043 q 619 914 658 943 q 524 885 581 885 z "},"ı":{"ha":833,"x_min":36,"x_max":747,"o":"m 36 0 l 67 189 l 331 189 l 392 576 l 163 576 l 192 764 l 615 764 l 525 189 l 747 189 l 717 0 l 36 0 z "},"í":{"ha":833,"x_min":36,"x_max":807,"o":"m 36 0 l 67 189 l 331 189 l 392 576 l 163 576 l 192 764 l 615 764 l 525 189 l 747 189 l 717 0 l 36 0 m 399 896 l 575 1090 l 807 1090 l 614 896 l 399 896 z "},"ĭ":{"ha":833,"x_min":36,"x_max":813,"o":"m 36 0 l 67 189 l 331 189 l 392 576 l 163 576 l 192 764 l 615 764 l 525 189 l 747 189 l 717 0 l 36 0 m 524 882 q 347 940 410 882 q 299 1090 285 997 l 456 1090 q 473 1027 450 1051 q 539 1003 496 1003 q 614 1027 583 1003 q 650 1090 644 1051 l 813 1090 q 719 940 799 997 q 524 882 639 882 z "},"î":{"ha":833,"x_min":36,"x_max":810,"o":"m 36 0 l 67 189 l 331 189 l 392 576 l 163 576 l 192 764 l 615 764 l 525 189 l 747 189 l 717 0 l 36 0 m 240 896 l 458 1090 l 653 1090 l 810 896 l 626 896 l 542 993 l 433 896 l 240 896 z "},"ï":{"ha":833,"x_min":36,"x_max":829,"o":"m 36 0 l 67 189 l 331 189 l 392 576 l 163 576 l 192 764 l 615 764 l 525 189 l 747 189 l 717 0 l 36 0 m 693 885 q 617 914 642 885 q 599 993 592 943 q 642 1072 607 1043 q 728 1101 676 1101 q 804 1072 779 1101 q 821 993 829 1043 q 779 914 814 943 q 693 885 744 885 m 354 885 q 278 914 303 885 q 260 993 253 943 q 303 1072 268 1043 q 389 1101 338 1101 q 465 1072 440 1101 q 482 993 490 1043 q 440 914 475 943 q 354 885 406 885 z "},"ị":{"ha":833,"x_min":36,"x_max":747,"o":"m 36 0 l 67 189 l 331 189 l 392 576 l 163 576 l 192 764 l 615 764 l 525 189 l 747 189 l 717 0 l 36 0 m 524 885 q 438 914 467 885 q 415 993 408 943 q 463 1072 424 1043 q 558 1101 501 1101 q 644 1072 615 1101 q 665 993 674 1043 q 619 914 658 943 q 524 885 581 885 m 332 -324 q 246 -294 275 -324 q 224 -215 217 -265 q 271 -136 232 -165 q 367 -107 310 -107 q 453 -136 424 -107 q 474 -215 482 -165 q 428 -294 467 -265 q 332 -324 389 -324 z "},"ì":{"ha":833,"x_min":36,"x_max":747,"o":"m 36 0 l 67 189 l 331 189 l 392 576 l 163 576 l 192 764 l 615 764 l 525 189 l 747 189 l 717 0 l 36 0 m 442 896 l 310 1090 l 531 1090 l 646 896 l 442 896 z "},"ỉ":{"ha":833,"x_min":36,"x_max":747,"o":"m 36 0 l 67 189 l 331 189 l 392 576 l 163 576 l 192 764 l 615 764 l 525 189 l 747 189 l 717 0 l 36 0 m 431 896 l 511 976 q 531 999 525 990 q 539 1017 538 1008 q 506 1040 543 1040 l 403 1040 l 421 1158 l 567 1158 q 667 1126 632 1158 q 693 1039 703 1093 q 679 994 690 1017 q 650 954 668 972 l 592 896 l 431 896 z "},"ī":{"ha":833,"x_min":36,"x_max":801,"o":"m 36 0 l 67 189 l 331 189 l 392 576 l 163 576 l 192 764 l 615 764 l 525 189 l 747 189 l 717 0 l 36 0 m 278 910 l 301 1063 l 801 1063 l 778 910 l 278 910 z "},"į":{"ha":833,"x_min":36,"x_max":747,"o":"m 328 -312 q 201 -270 243 -312 q 171 -160 160 -228 q 227 -63 178 -111 q 353 15 276 -15 l 472 15 l 421 -25 q 372 -74 390 -50 q 350 -115 353 -97 q 361 -151 347 -136 q 406 -167 375 -167 l 501 -167 l 478 -312 l 328 -312 m 36 0 l 67 189 l 331 189 l 392 576 l 163 576 l 192 764 l 615 764 l 525 189 l 747 189 l 717 0 l 36 0 m 524 885 q 438 914 467 885 q 415 993 408 943 q 463 1072 424 1043 q 558 1101 501 1101 q 644 1072 615 1101 q 665 993 674 1043 q 619 914 658 943 q 524 885 581 885 z "},"ĩ":{"ha":833,"x_min":36,"x_max":807,"o":"m 36 0 l 67 189 l 331 189 l 392 576 l 163 576 l 192 764 l 615 764 l 525 189 l 747 189 l 717 0 l 36 0 m 621 882 q 551 894 576 882 q 510 924 525 907 q 481 953 494 940 q 446 965 467 965 q 414 953 428 965 q 397 919 400 940 l 392 889 l 274 889 l 282 938 q 343 1057 293 1010 q 461 1104 393 1104 q 531 1092 506 1104 q 571 1063 556 1079 q 600 1033 586 1046 q 635 1021 614 1021 q 667 1031 654 1021 q 683 1060 681 1042 l 689 1097 l 807 1097 l 800 1049 q 740 929 789 976 q 621 882 690 882 z "},"j":{"ha":833,"x_min":10,"x_max":778,"o":"m 10 -250 l 42 -56 l 264 -56 q 356 -24 321 -56 q 400 63 392 7 l 481 569 l 182 569 l 213 764 l 719 764 l 607 56 q 544 -108 593 -39 q 419 -213 494 -176 q 247 -250 343 -250 l 10 -250 m 628 885 q 542 914 571 885 q 519 993 513 943 q 567 1072 528 1043 q 663 1101 606 1101 q 749 1072 719 1101 q 769 993 778 1043 q 724 914 763 943 q 628 885 685 885 z "},"ȷ":{"ha":833,"x_min":10,"x_max":719,"o":"m 10 -250 l 42 -56 l 264 -56 q 356 -24 321 -56 q 400 63 392 7 l 481 569 l 182 569 l 213 764 l 719 764 l 607 56 q 544 -108 593 -39 q 419 -213 494 -176 q 247 -250 343 -250 l 10 -250 z "},"ĵ":{"ha":833,"x_min":10,"x_max":831,"o":"m 10 -250 l 42 -56 l 264 -56 q 356 -24 321 -56 q 400 63 392 7 l 481 569 l 182 569 l 213 764 l 719 764 l 607 56 q 544 -108 593 -39 q 419 -213 494 -176 q 247 -250 343 -250 l 10 -250 m 261 896 l 479 1090 l 674 1090 l 831 896 l 647 896 l 563 993 l 454 896 l 261 896 z "},"k":{"ha":833,"x_min":35,"x_max":858,"o":"m 35 0 l 196 1014 l 404 1014 l 318 475 l 417 475 l 622 764 l 858 764 l 583 381 l 742 0 l 515 0 l 399 300 l 290 300 l 243 0 l 35 0 z "},"ķ":{"ha":833,"x_min":35,"x_max":858,"o":"m 35 0 l 196 1014 l 404 1014 l 318 475 l 417 475 l 622 764 l 858 764 l 583 381 l 742 0 l 515 0 l 399 300 l 290 300 l 243 0 l 35 0 m 129 -333 l 293 -132 l 501 -132 l 310 -333 l 129 -333 z "},"ĸ":{"ha":833,"x_min":35,"x_max":858,"o":"m 35 0 l 156 764 l 364 764 l 318 475 l 417 475 l 622 764 l 858 764 l 585 383 l 742 0 l 511 0 l 397 300 l 290 300 l 243 0 l 35 0 z "},"l":{"ha":833,"x_min":104,"x_max":753,"o":"m 481 0 q 297 74 358 0 q 253 271 235 149 l 340 826 l 104 826 l 135 1014 l 579 1014 l 461 271 q 474 210 456 233 q 531 188 493 188 l 753 188 l 724 0 l 481 0 z "},"ĺ":{"ha":833,"x_min":104,"x_max":774,"o":"m 481 0 q 297 74 358 0 q 253 271 235 149 l 340 826 l 104 826 l 135 1014 l 579 1014 l 461 271 q 474 210 456 233 q 531 188 493 188 l 753 188 l 724 0 l 481 0 m 365 1125 l 542 1319 l 774 1319 l 581 1125 l 365 1125 z "},"ľ":{"ha":833,"x_min":104,"x_max":926,"o":"m 481 0 q 297 74 358 0 q 253 271 235 149 l 340 826 l 104 826 l 135 1014 l 579 1014 l 461 271 q 474 210 456 233 q 531 188 493 188 l 753 188 l 724 0 l 481 0 m 678 764 l 732 1014 l 926 1014 l 858 764 l 678 764 z "},"ļ":{"ha":833,"x_min":104,"x_max":753,"o":"m 481 0 q 297 74 358 0 q 253 271 235 149 l 340 826 l 104 826 l 135 1014 l 579 1014 l 461 271 q 474 210 456 233 q 531 188 493 188 l 753 188 l 724 0 l 481 0 m 163 -333 l 326 -132 l 535 -132 l 343 -333 l 163 -333 z "},"ŀ":{"ha":833,"x_min":76,"x_max":900,"o":"m 453 0 q 269 74 331 0 q 225 271 207 149 l 313 826 l 76 826 l 107 1014 l 551 1014 l 433 271 q 447 210 428 233 q 503 188 465 188 l 725 188 l 696 0 l 453 0 z "},"ł":{"ha":833,"x_min":104,"x_max":753,"o":"m 139 319 l 139 514 l 667 778 l 667 583 l 139 319 m 481 0 q 297 74 358 0 q 253 271 235 149 l 340 826 l 104 826 l 135 1014 l 579 1014 l 461 271 q 474 210 456 233 q 531 188 493 188 l 753 188 l 724 0 l 481 0 z "},"m":{"ha":833,"x_min":-3,"x_max":822,"o":"m -3 0 l 118 764 l 282 764 l 264 653 l 297 653 l 268 633 q 323 738 279 699 q 422 778 367 778 q 507 726 482 778 q 518 590 532 675 l 503 653 l 542 653 l 526 633 q 580 738 538 699 q 683 778 622 778 q 788 726 753 778 q 808 583 822 674 l 715 0 l 536 0 l 626 569 q 621 619 632 601 q 583 636 610 636 q 540 619 557 636 q 518 569 524 601 l 428 0 l 285 0 l 375 569 q 369 619 381 601 q 332 636 358 636 q 289 619 306 636 q 267 569 272 601 l 176 0 l -3 0 z "},"n":{"ha":833,"x_min":31,"x_max":782,"o":"m 31 0 l 151 764 l 353 764 l 329 618 l 390 618 l 322 569 q 402 722 338 667 q 561 778 467 778 q 727 700 672 778 q 761 493 782 622 l 683 0 l 475 0 l 550 472 q 533 565 560 532 q 450 597 507 597 q 359 565 394 597 q 314 472 324 532 l 239 0 l 31 0 z "},"ń":{"ha":833,"x_min":31,"x_max":782,"o":"m 31 0 l 151 764 l 353 764 l 329 618 l 390 618 l 322 569 q 402 722 338 667 q 561 778 467 778 q 727 700 672 778 q 761 493 782 622 l 683 0 l 475 0 l 550 472 q 533 565 560 532 q 450 597 507 597 q 359 565 394 597 q 314 472 324 532 l 239 0 l 31 0 m 329 896 l 506 1090 l 738 1090 l 544 896 l 329 896 z "},"ŉ":{"ha":833,"x_min":-135,"x_max":782,"o":"m 31 0 l 151 764 l 353 764 l 329 618 l 390 618 l 322 569 q 402 722 338 667 q 561 778 467 778 q 727 700 672 778 q 761 493 782 622 l 683 0 l 475 0 l 550 472 q 533 565 560 532 q 450 597 507 597 q 359 565 394 597 q 314 472 324 532 l 239 0 l 31 0 m -135 896 l 29 1097 l 238 1097 l 46 896 l -135 896 z "},"ň":{"ha":833,"x_min":31,"x_max":814,"o":"m 31 0 l 151 764 l 353 764 l 329 618 l 390 618 l 322 569 q 402 722 338 667 q 561 778 467 778 q 727 700 672 778 q 761 493 782 622 l 683 0 l 475 0 l 550 472 q 533 565 560 532 q 450 597 507 597 q 359 565 394 597 q 314 472 324 532 l 239 0 l 31 0 m 401 896 l 244 1090 l 428 1090 l 513 993 l 621 1090 l 814 1090 l 596 896 l 401 896 z "},"ņ":{"ha":833,"x_min":31,"x_max":782,"o":"m 31 0 l 151 764 l 353 764 l 329 618 l 390 618 l 322 569 q 402 722 338 667 q 561 778 467 778 q 727 700 672 778 q 761 493 782 622 l 683 0 l 475 0 l 550 472 q 533 565 560 532 q 450 597 507 597 q 359 565 394 597 q 314 472 324 532 l 239 0 l 31 0 m 129 -333 l 293 -132 l 501 -132 l 310 -333 l 129 -333 z "},"ŋ":{"ha":833,"x_min":31,"x_max":782,"o":"m 240 -250 l 272 -49 l 356 -49 q 442 -21 408 -49 q 483 57 476 7 l 550 472 q 533 565 560 532 q 450 597 507 597 q 359 565 394 597 q 314 472 324 532 l 239 0 l 31 0 l 151 764 l 353 764 l 329 618 l 390 618 l 322 569 q 402 722 338 667 q 561 778 467 778 q 727 700 672 778 q 761 493 782 622 l 689 35 q 623 -113 676 -49 q 489 -214 569 -178 q 310 -250 408 -250 l 240 -250 z "},"ñ":{"ha":833,"x_min":31,"x_max":782,"o":"m 31 0 l 151 764 l 353 764 l 329 618 l 390 618 l 322 569 q 402 722 338 667 q 561 778 467 778 q 727 700 672 778 q 761 493 782 622 l 683 0 l 475 0 l 550 472 q 533 565 560 532 q 450 597 507 597 q 359 565 394 597 q 314 472 324 532 l 239 0 l 31 0 m 593 882 q 523 894 549 882 q 482 924 497 907 q 453 953 467 940 q 418 965 439 965 q 386 953 400 965 q 369 919 372 940 l 364 889 l 246 889 l 254 938 q 315 1057 265 1010 q 433 1104 365 1104 q 503 1092 478 1104 q 543 1063 528 1079 q 572 1033 558 1046 q 607 1021 586 1021 q 640 1031 626 1021 q 656 1060 653 1042 l 661 1097 l 779 1097 l 772 1049 q 712 929 761 976 q 593 882 663 882 z "},"o":{"ha":833,"x_min":54,"x_max":779,"o":"m 353 -14 q 183 24 251 -14 q 84 131 114 63 q 68 292 54 200 l 97 472 q 164 633 113 564 q 297 740 215 701 q 479 778 378 778 q 651 740 582 778 q 749 633 719 701 q 764 472 779 564 l 735 292 q 669 131 721 200 q 536 24 617 63 q 353 -14 456 -14 m 382 167 q 480 199 443 167 q 526 292 517 232 l 556 472 q 538 565 565 533 q 450 597 511 597 q 353 565 390 597 q 306 472 315 533 l 276 292 q 294 199 267 232 q 382 167 322 167 z "},"ó":{"ha":833,"x_min":54,"x_max":779,"o":"m 353 -14 q 183 24 251 -14 q 84 131 114 63 q 68 292 54 200 l 97 472 q 164 633 113 564 q 297 740 215 701 q 479 778 378 778 q 651 740 582 778 q 749 633 719 701 q 764 472 779 564 l 735 292 q 669 131 721 200 q 536 24 617 63 q 353 -14 456 -14 m 382 167 q 480 199 443 167 q 526 292 517 232 l 556 472 q 538 565 565 533 q 450 597 511 597 q 353 565 390 597 q 306 472 315 533 l 276 292 q 294 199 267 232 q 382 167 322 167 m 371 896 l 547 1090 l 779 1090 l 586 896 l 371 896 z "},"ŏ":{"ha":833,"x_min":54,"x_max":785,"o":"m 353 -14 q 183 24 251 -14 q 84 131 114 63 q 68 292 54 200 l 97 472 q 164 633 113 564 q 297 740 215 701 q 479 778 378 778 q 651 740 582 778 q 749 633 719 701 q 764 472 779 564 l 735 292 q 669 131 721 200 q 536 24 617 63 q 353 -14 456 -14 m 382 167 q 480 199 443 167 q 526 292 517 232 l 556 472 q 538 565 565 533 q 450 597 511 597 q 353 565 390 597 q 306 472 315 533 l 276 292 q 294 199 267 232 q 382 167 322 167 m 496 882 q 319 940 382 882 q 271 1090 257 997 l 428 1090 q 445 1027 422 1051 q 511 1003 468 1003 q 586 1027 556 1003 q 622 1090 617 1051 l 785 1090 q 691 940 771 997 q 496 882 611 882 z "},"ô":{"ha":833,"x_min":54,"x_max":782,"o":"m 353 -14 q 183 24 251 -14 q 84 131 114 63 q 68 292 54 200 l 97 472 q 164 633 113 564 q 297 740 215 701 q 479 778 378 778 q 651 740 582 778 q 749 633 719 701 q 764 472 779 564 l 735 292 q 669 131 721 200 q 536 24 617 63 q 353 -14 456 -14 m 382 167 q 480 199 443 167 q 526 292 517 232 l 556 472 q 538 565 565 533 q 450 597 511 597 q 353 565 390 597 q 306 472 315 533 l 276 292 q 294 199 267 232 q 382 167 322 167 m 213 896 l 431 1090 l 625 1090 l 782 896 l 599 896 l 514 993 l 406 896 l 213 896 z "},"ố":{"ha":833,"x_min":54,"x_max":1090,"o":"m 353 -14 q 183 24 251 -14 q 84 131 114 63 q 68 292 54 200 l 97 472 q 164 633 113 564 q 297 740 215 701 q 479 778 378 778 q 651 740 582 778 q 749 633 719 701 q 764 472 779 564 l 735 292 q 669 131 721 200 q 536 24 617 63 q 353 -14 456 -14 m 382 167 q 480 199 443 167 q 526 292 517 232 l 556 472 q 538 565 565 533 q 450 597 511 597 q 353 565 390 597 q 306 472 315 533 l 276 292 q 294 199 267 232 q 382 167 322 167 m 689 1049 l 886 1243 l 1090 1243 l 879 1049 l 689 1049 m 213 896 l 431 1090 l 625 1090 l 782 896 l 597 896 l 513 993 l 404 896 l 213 896 z "},"ộ":{"ha":833,"x_min":54,"x_max":782,"o":"m 213 896 l 431 1090 l 625 1090 l 782 896 l 599 896 l 514 993 l 406 896 l 213 896 m 353 -14 q 183 24 251 -14 q 84 131 114 63 q 68 292 54 200 l 97 472 q 164 633 113 564 q 297 740 215 701 q 479 778 378 778 q 651 740 582 778 q 749 633 719 701 q 764 472 779 564 l 735 292 q 669 131 721 200 q 536 24 617 63 q 353 -14 456 -14 m 382 167 q 480 199 443 167 q 526 292 517 232 l 556 472 q 538 565 565 533 q 450 597 511 597 q 353 565 390 597 q 306 472 315 533 l 276 292 q 294 199 267 232 q 382 167 322 167 m 318 -324 q 232 -294 261 -324 q 210 -215 203 -265 q 257 -136 218 -165 q 353 -107 296 -107 q 439 -136 410 -107 q 460 -215 468 -165 q 414 -294 453 -265 q 318 -324 375 -324 z "},"ồ":{"ha":833,"x_min":54,"x_max":938,"o":"m 353 -14 q 183 24 251 -14 q 84 131 114 63 q 68 292 54 200 l 97 472 q 164 633 113 564 q 297 740 215 701 q 479 778 378 778 q 651 740 582 778 q 749 633 719 701 q 764 472 779 564 l 735 292 q 669 131 721 200 q 536 24 617 63 q 353 -14 456 -14 m 382 167 q 480 199 443 167 q 526 292 517 232 l 556 472 q 538 565 565 533 q 450 597 511 597 q 353 565 390 597 q 306 472 315 533 l 276 292 q 294 199 267 232 q 382 167 322 167 m 753 1049 l 603 1243 l 801 1243 l 938 1049 l 753 1049 m 213 896 l 431 1090 l 625 1090 l 782 896 l 597 896 l 513 993 l 404 896 l 213 896 z "},"ổ":{"ha":833,"x_min":54,"x_max":976,"o":"m 353 -14 q 183 24 251 -14 q 84 131 114 63 q 68 292 54 200 l 97 472 q 164 633 113 564 q 297 740 215 701 q 479 778 378 778 q 651 740 582 778 q 749 633 719 701 q 764 472 779 564 l 735 292 q 669 131 721 200 q 536 24 617 63 q 353 -14 456 -14 m 382 167 q 480 199 443 167 q 526 292 517 232 l 556 472 q 538 565 565 533 q 450 597 511 597 q 353 565 390 597 q 306 472 315 533 l 276 292 q 294 199 267 232 q 382 167 322 167 m 707 1049 l 788 1129 q 814 1169 813 1154 q 781 1193 818 1193 l 676 1193 l 696 1311 l 842 1311 q 942 1278 907 1311 q 968 1192 976 1246 q 924 1107 960 1143 l 867 1049 l 707 1049 m 213 896 l 431 1090 l 625 1090 l 782 896 l 597 896 l 513 993 l 404 896 l 213 896 z "},"ỗ":{"ha":833,"x_min":54,"x_max":818,"o":"m 353 -14 q 183 24 251 -14 q 84 131 114 63 q 68 292 54 200 l 97 472 q 164 633 113 564 q 297 740 215 701 q 479 778 378 778 q 651 740 582 778 q 749 633 719 701 q 764 472 779 564 l 735 292 q 669 131 721 200 q 536 24 617 63 q 353 -14 456 -14 m 382 167 q 480 199 443 167 q 526 292 517 232 l 556 472 q 538 565 565 533 q 450 597 511 597 q 353 565 390 597 q 306 472 315 533 l 276 292 q 294 199 267 232 q 382 167 322 167 m 635 1147 q 565 1160 590 1147 q 524 1188 539 1172 q 494 1217 508 1204 q 460 1229 481 1229 q 411 1183 421 1229 l 406 1153 l 288 1153 l 293 1188 q 354 1303 304 1260 q 472 1347 404 1347 q 542 1335 517 1347 q 582 1306 567 1322 q 611 1278 597 1290 q 646 1265 625 1265 q 694 1304 688 1265 l 700 1339 l 818 1339 l 813 1307 q 752 1191 800 1235 q 635 1147 704 1147 m 213 896 l 431 1090 l 625 1090 l 782 896 l 597 896 l 513 993 l 404 896 l 213 896 z "},"ö":{"ha":833,"x_min":54,"x_max":801,"o":"m 353 -14 q 183 24 251 -14 q 84 131 114 63 q 68 292 54 200 l 97 472 q 164 633 113 564 q 297 740 215 701 q 479 778 378 778 q 651 740 582 778 q 749 633 719 701 q 764 472 779 564 l 735 292 q 669 131 721 200 q 536 24 617 63 q 353 -14 456 -14 m 382 167 q 480 199 443 167 q 526 292 517 232 l 556 472 q 538 565 565 533 q 450 597 511 597 q 353 565 390 597 q 306 472 315 533 l 276 292 q 294 199 267 232 q 382 167 322 167 m 665 885 q 589 914 614 885 q 571 993 564 943 q 614 1072 579 1043 q 700 1101 649 1101 q 776 1072 751 1101 q 793 993 801 1043 q 751 914 786 943 q 665 885 717 885 m 326 885 q 250 914 275 885 q 232 993 225 943 q 275 1072 240 1043 q 361 1101 310 1101 q 438 1072 413 1101 q 454 993 463 1043 q 413 914 447 943 q 326 885 378 885 z "},"ọ":{"ha":833,"x_min":54,"x_max":779,"o":"m 353 -14 q 183 24 251 -14 q 84 131 114 63 q 68 292 54 200 l 97 472 q 164 633 113 564 q 297 740 215 701 q 479 778 378 778 q 651 740 582 778 q 749 633 719 701 q 764 472 779 564 l 735 292 q 669 131 721 200 q 536 24 617 63 q 353 -14 456 -14 m 382 167 q 480 199 443 167 q 526 292 517 232 l 556 472 q 538 565 565 533 q 450 597 511 597 q 353 565 390 597 q 306 472 315 533 l 276 292 q 294 199 267 232 q 382 167 322 167 m 318 -324 q 232 -294 261 -324 q 210 -215 203 -265 q 257 -136 218 -165 q 353 -107 296 -107 q 439 -136 410 -107 q 460 -215 468 -165 q 414 -294 453 -265 q 318 -324 375 -324 z "},"ò":{"ha":833,"x_min":54,"x_max":779,"o":"m 353 -14 q 183 24 251 -14 q 84 131 114 63 q 68 292 54 200 l 97 472 q 164 633 113 564 q 297 740 215 701 q 479 778 378 778 q 651 740 582 778 q 749 633 719 701 q 764 472 779 564 l 735 292 q 669 131 721 200 q 536 24 617 63 q 353 -14 456 -14 m 382 167 q 480 199 443 167 q 526 292 517 232 l 556 472 q 538 565 565 533 q 450 597 511 597 q 353 565 390 597 q 306 472 315 533 l 276 292 q 294 199 267 232 q 382 167 322 167 m 414 896 l 282 1090 l 503 1090 l 618 896 l 414 896 z "},"ỏ":{"ha":833,"x_min":54,"x_max":779,"o":"m 353 -14 q 183 24 251 -14 q 84 131 114 63 q 68 292 54 200 l 97 472 q 164 633 113 564 q 297 740 215 701 q 479 778 378 778 q 651 740 582 778 q 749 633 719 701 q 764 472 779 564 l 735 292 q 669 131 721 200 q 536 24 617 63 q 353 -14 456 -14 m 382 167 q 480 199 443 167 q 526 292 517 232 l 556 472 q 538 565 565 533 q 450 597 511 597 q 353 565 390 597 q 306 472 315 533 l 276 292 q 294 199 267 232 q 382 167 322 167 m 410 896 l 490 976 q 510 999 504 990 q 518 1017 517 1008 q 485 1040 522 1040 l 382 1040 l 400 1158 l 546 1158 q 647 1126 611 1158 q 672 1039 682 1093 q 658 994 669 1017 q 629 954 647 972 l 571 896 l 410 896 z "},"ơ":{"ha":833,"x_min":54,"x_max":885,"o":"m 540 597 l 563 736 l 646 736 q 684 749 669 736 q 701 785 699 763 l 718 889 l 885 889 l 868 785 q 792 649 856 700 q 638 597 728 597 l 540 597 m 353 -14 q 183 24 251 -14 q 84 131 114 63 q 68 292 54 200 l 97 472 q 164 633 113 564 q 297 740 215 701 q 479 778 378 778 q 651 740 582 778 q 749 633 719 701 q 764 472 779 564 l 735 292 q 669 131 721 200 q 536 24 617 63 q 353 -14 456 -14 m 382 167 q 480 199 443 167 q 526 292 517 232 l 556 472 q 538 565 565 533 q 450 597 511 597 q 353 565 390 597 q 306 472 315 533 l 276 292 q 294 199 267 232 q 382 167 322 167 z "},"ớ":{"ha":833,"x_min":54,"x_max":885,"o":"m 540 597 l 563 736 l 646 736 q 684 749 669 736 q 701 785 699 763 l 718 889 l 885 889 l 868 785 q 792 649 856 700 q 638 597 728 597 l 540 597 m 353 -14 q 183 24 251 -14 q 84 131 114 63 q 68 292 54 200 l 97 472 q 164 633 113 564 q 297 740 215 701 q 479 778 378 778 q 651 740 582 778 q 749 633 719 701 q 764 472 779 564 l 735 292 q 669 131 721 200 q 536 24 617 63 q 353 -14 456 -14 m 382 167 q 480 199 443 167 q 526 292 517 232 l 556 472 q 538 565 565 533 q 450 597 511 597 q 353 565 390 597 q 306 472 315 533 l 276 292 q 294 199 267 232 q 382 167 322 167 m 357 896 l 533 1090 l 765 1090 l 572 896 l 357 896 z "},"ợ":{"ha":833,"x_min":54,"x_max":885,"o":"m 540 597 l 563 736 l 646 736 q 684 749 669 736 q 701 785 699 763 l 718 889 l 885 889 l 868 785 q 792 649 856 700 q 638 597 728 597 l 540 597 m 353 -14 q 183 24 251 -14 q 84 131 114 63 q 68 292 54 200 l 97 472 q 164 633 113 564 q 297 740 215 701 q 479 778 378 778 q 651 740 582 778 q 749 633 719 701 q 764 472 779 564 l 735 292 q 669 131 721 200 q 536 24 617 63 q 353 -14 456 -14 m 382 167 q 480 199 443 167 q 526 292 517 232 l 556 472 q 538 565 565 533 q 450 597 511 597 q 353 565 390 597 q 306 472 315 533 l 276 292 q 294 199 267 232 q 382 167 322 167 m 318 -324 q 232 -294 261 -324 q 210 -215 203 -265 q 257 -136 218 -165 q 353 -107 296 -107 q 439 -136 410 -107 q 460 -215 468 -165 q 414 -294 453 -265 q 318 -324 375 -324 z "},"ờ":{"ha":833,"x_min":54,"x_max":885,"o":"m 540 597 l 563 736 l 646 736 q 684 749 669 736 q 701 785 699 763 l 718 889 l 885 889 l 868 785 q 792 649 856 700 q 638 597 728 597 l 540 597 m 353 -14 q 183 24 251 -14 q 84 131 114 63 q 68 292 54 200 l 97 472 q 164 633 113 564 q 297 740 215 701 q 479 778 378 778 q 651 740 582 778 q 749 633 719 701 q 764 472 779 564 l 735 292 q 669 131 721 200 q 536 24 617 63 q 353 -14 456 -14 m 382 167 q 480 199 443 167 q 526 292 517 232 l 556 472 q 538 565 565 533 q 450 597 511 597 q 353 565 390 597 q 306 472 315 533 l 276 292 q 294 199 267 232 q 382 167 322 167 m 400 896 l 268 1090 l 489 1090 l 604 896 l 400 896 z "},"ở":{"ha":833,"x_min":54,"x_max":885,"o":"m 540 597 l 563 736 l 646 736 q 684 749 669 736 q 701 785 699 763 l 718 889 l 885 889 l 868 785 q 792 649 856 700 q 638 597 728 597 l 540 597 m 353 -14 q 183 24 251 -14 q 84 131 114 63 q 68 292 54 200 l 97 472 q 164 633 113 564 q 297 740 215 701 q 479 778 378 778 q 651 740 582 778 q 749 633 719 701 q 764 472 779 564 l 735 292 q 669 131 721 200 q 536 24 617 63 q 353 -14 456 -14 m 382 167 q 480 199 443 167 q 526 292 517 232 l 556 472 q 538 565 565 533 q 450 597 511 597 q 353 565 390 597 q 306 472 315 533 l 276 292 q 294 199 267 232 q 382 167 322 167 m 410 896 l 490 976 q 510 999 504 990 q 518 1017 517 1008 q 485 1040 522 1040 l 382 1040 l 400 1158 l 546 1158 q 647 1126 611 1158 q 672 1039 682 1093 q 658 994 669 1017 q 629 954 647 972 l 571 896 l 410 896 z "},"ỡ":{"ha":833,"x_min":54,"x_max":885,"o":"m 540 597 l 563 736 l 646 736 q 684 749 669 736 q 701 785 699 763 l 718 889 l 885 889 l 868 785 q 792 649 856 700 q 638 597 728 597 l 540 597 m 353 -14 q 183 24 251 -14 q 84 131 114 63 q 68 292 54 200 l 97 472 q 164 633 113 564 q 297 740 215 701 q 479 778 378 778 q 651 740 582 778 q 749 633 719 701 q 764 472 779 564 l 735 292 q 669 131 721 200 q 536 24 617 63 q 353 -14 456 -14 m 382 167 q 480 199 443 167 q 526 292 517 232 l 556 472 q 538 565 565 533 q 450 597 511 597 q 353 565 390 597 q 306 472 315 533 l 276 292 q 294 199 267 232 q 382 167 322 167 m 579 882 q 509 894 535 882 q 468 924 483 907 q 439 953 453 940 q 404 965 425 965 q 372 953 386 965 q 356 919 358 940 l 350 889 l 232 889 l 240 938 q 301 1057 251 1010 q 419 1104 351 1104 q 489 1092 464 1104 q 529 1063 514 1079 q 558 1033 544 1046 q 593 1021 572 1021 q 626 1031 613 1021 q 642 1060 639 1042 l 647 1097 l 765 1097 l 758 1049 q 698 929 747 976 q 579 882 649 882 z "},"ő":{"ha":833,"x_min":54,"x_max":907,"o":"m 353 -14 q 183 24 251 -14 q 84 131 114 63 q 68 292 54 200 l 97 472 q 164 633 113 564 q 297 740 215 701 q 479 778 378 778 q 651 740 582 778 q 749 633 719 701 q 764 472 779 564 l 735 292 q 669 131 721 200 q 536 24 617 63 q 353 -14 456 -14 m 382 167 q 480 199 443 167 q 526 292 517 232 l 556 472 q 538 565 565 533 q 450 597 511 597 q 353 565 390 597 q 306 472 315 533 l 276 292 q 294 199 267 232 q 382 167 322 167 m 528 896 l 704 1090 l 907 1090 l 717 896 l 528 896 m 222 896 l 399 1090 l 601 1090 l 411 896 l 222 896 z "},"ō":{"ha":833,"x_min":54,"x_max":779,"o":"m 353 -14 q 183 24 251 -14 q 84 131 114 63 q 68 292 54 200 l 97 472 q 164 633 113 564 q 297 740 215 701 q 479 778 378 778 q 651 740 582 778 q 749 633 719 701 q 764 472 779 564 l 735 292 q 669 131 721 200 q 536 24 617 63 q 353 -14 456 -14 m 382 167 q 480 199 443 167 q 526 292 517 232 l 556 472 q 538 565 565 533 q 450 597 511 597 q 353 565 390 597 q 306 472 315 533 l 276 292 q 294 199 267 232 q 382 167 322 167 m 250 910 l 274 1063 l 774 1063 l 750 910 l 250 910 z "},"ǫ":{"ha":833,"x_min":54,"x_max":779,"o":"m 388 -312 q 261 -270 303 -312 q 231 -160 219 -228 q 292 -60 238 -111 q 450 43 346 -8 q 431 17 449 31 q 390 -5 413 4 q 353 -14 368 -14 q 183 24 251 -14 q 84 131 114 63 q 68 292 54 200 l 97 472 q 164 633 113 564 q 297 740 215 701 q 479 778 378 778 q 651 740 582 778 q 749 633 719 701 q 764 472 779 564 l 735 292 q 677 149 722 214 q 569 43 632 83 l 481 -25 q 431 -73 450 -49 q 410 -115 413 -97 q 421 -151 407 -136 q 465 -167 435 -167 l 561 -167 l 538 -312 l 388 -312 m 382 167 q 480 199 443 167 q 526 292 517 232 l 556 472 q 538 565 565 533 q 450 597 511 597 q 353 565 390 597 q 306 472 315 533 l 276 292 q 294 199 267 232 q 382 167 322 167 z "},"ø":{"ha":833,"x_min":-33,"x_max":867,"o":"m -33 -42 l 707 819 l 867 819 l 126 -42 l -33 -42 m 353 -14 q 183 24 251 -14 q 84 131 114 63 q 68 292 54 200 l 97 472 q 164 633 113 564 q 297 740 215 701 q 479 778 378 778 q 651 740 582 778 q 749 633 719 701 q 764 472 779 564 l 735 292 q 669 131 721 200 q 536 24 617 63 q 353 -14 456 -14 m 382 167 q 489 200 447 167 q 540 292 531 233 l 569 472 q 547 564 579 531 q 450 597 515 597 q 343 564 385 597 q 292 472 301 531 l 263 292 q 285 200 253 233 q 382 167 317 167 z "},"ǿ":{"ha":833,"x_min":-33,"x_max":867,"o":"m -33 -42 l 707 819 l 867 819 l 126 -42 l -33 -42 m 353 -14 q 183 24 251 -14 q 84 131 114 63 q 68 292 54 200 l 97 472 q 164 633 113 564 q 297 740 215 701 q 479 778 378 778 q 651 740 582 778 q 749 633 719 701 q 764 472 779 564 l 735 292 q 669 131 721 200 q 536 24 617 63 q 353 -14 456 -14 m 382 167 q 489 200 447 167 q 540 292 531 233 l 569 472 q 547 564 579 531 q 450 597 515 597 q 343 564 385 597 q 292 472 301 531 l 263 292 q 285 200 253 233 q 382 167 317 167 m 371 896 l 547 1090 l 779 1090 l 586 896 l 371 896 z "},"õ":{"ha":833,"x_min":54,"x_max":779,"o":"m 353 -14 q 183 24 251 -14 q 84 131 114 63 q 68 292 54 200 l 97 472 q 164 633 113 564 q 297 740 215 701 q 479 778 378 778 q 651 740 582 778 q 749 633 719 701 q 764 472 779 564 l 735 292 q 669 131 721 200 q 536 24 617 63 q 353 -14 456 -14 m 382 167 q 480 199 443 167 q 526 292 517 232 l 556 472 q 538 565 565 533 q 450 597 511 597 q 353 565 390 597 q 306 472 315 533 l 276 292 q 294 199 267 232 q 382 167 322 167 m 593 882 q 523 894 549 882 q 482 924 497 907 q 453 953 467 940 q 418 965 439 965 q 386 953 400 965 q 369 919 372 940 l 364 889 l 246 889 l 254 938 q 315 1057 265 1010 q 433 1104 365 1104 q 503 1092 478 1104 q 543 1063 528 1079 q 572 1033 558 1046 q 607 1021 586 1021 q 640 1031 626 1021 q 656 1060 653 1042 l 661 1097 l 779 1097 l 772 1049 q 712 929 761 976 q 593 882 663 882 z "},"œ":{"ha":833,"x_min":4,"x_max":829,"o":"m 186 -14 q 50 44 96 -14 q 18 194 4 101 l 78 569 q 158 721 93 664 q 313 778 222 778 q 395 761 364 778 q 442 720 426 744 q 457 674 457 696 l 468 674 q 497 720 475 696 q 556 761 518 744 q 646 778 593 778 q 783 721 736 778 q 814 569 829 664 l 779 347 l 490 347 l 465 194 q 474 140 460 160 q 519 121 489 121 q 569 140 550 121 q 594 194 589 160 l 754 194 q 675 44 740 101 q 519 -14 610 -14 q 435 3 467 -14 q 389 44 403 19 q 375 90 375 68 l 364 90 q 334 44 357 68 q 274 3 311 19 q 186 -14 238 -14 m 232 121 q 282 140 263 121 q 307 194 301 160 l 367 569 q 358 624 372 606 q 314 643 344 643 q 263 624 283 643 q 238 569 243 604 l 178 194 q 187 140 172 160 q 232 121 201 121 m 507 458 l 636 458 l 654 569 q 646 624 660 606 q 601 643 632 643 q 551 624 571 643 q 525 569 531 604 l 507 458 z "},"p":{"ha":833,"x_min":-10,"x_max":786,"o":"m -10 -250 l 151 764 l 353 764 l 329 618 l 378 618 l 322 569 q 401 723 338 668 q 558 778 464 778 q 730 697 674 778 q 765 479 786 615 l 733 285 q 677 127 719 194 q 572 23 635 60 q 432 -14 510 -14 q 292 41 338 -14 q 263 194 247 96 l 304 146 l 256 146 l 232 -42 l 199 -250 l -10 -250 m 386 167 q 481 199 444 167 q 526 292 517 232 l 556 472 q 539 565 565 533 q 454 597 513 597 q 360 565 397 597 q 314 472 324 532 l 285 292 q 302 199 275 232 q 386 167 329 167 z "},"þ":{"ha":833,"x_min":-10,"x_max":786,"o":"m -10 -250 l 42 69 l 243 69 l 192 -250 l -10 -250 m 432 -14 q 292 41 338 -14 q 263 194 247 96 l 304 146 l 256 146 l 232 0 l 31 0 l 192 1014 l 400 1014 l 367 806 l 329 618 l 378 618 l 322 569 q 401 723 338 668 q 558 778 464 778 q 730 697 674 778 q 765 479 786 615 l 733 285 q 677 126 719 193 q 572 22 635 58 q 432 -14 510 -14 m 386 167 q 481 199 444 167 q 526 292 517 232 l 556 472 q 539 565 565 532 q 454 597 513 597 q 360 565 397 597 q 314 472 324 532 l 285 292 q 302 199 275 232 q 386 167 329 167 z "},"q":{"ha":833,"x_min":46,"x_max":801,"o":"m 432 -250 l 465 -42 l 503 146 l 454 146 l 507 194 q 430 41 492 96 q 274 -14 368 -14 q 102 67 158 -14 q 67 285 46 149 l 99 479 q 155 638 113 571 q 260 741 197 704 q 400 778 324 778 q 538 723 494 778 q 567 569 582 668 l 528 618 l 576 618 l 600 764 l 801 764 l 640 -250 l 432 -250 m 378 167 q 472 199 435 167 q 518 292 508 232 l 547 472 q 530 565 557 532 q 446 597 503 597 q 351 565 388 597 q 306 472 315 533 l 276 292 q 293 199 267 232 q 378 167 319 167 z "},"r":{"ha":833,"x_min":53,"x_max":829,"o":"m 53 0 l 174 764 l 368 764 l 344 618 l 397 618 l 324 529 q 410 715 343 653 q 588 778 478 778 q 772 701 714 778 q 807 486 829 625 l 797 424 l 575 424 l 583 472 q 565 569 593 535 q 479 604 536 604 q 383 569 419 604 q 336 472 346 535 l 261 0 l 53 0 z "},"ŕ":{"ha":833,"x_min":53,"x_max":829,"o":"m 53 0 l 174 764 l 368 764 l 344 618 l 397 618 l 324 529 q 410 715 343 653 q 588 778 478 778 q 772 701 714 778 q 807 486 829 625 l 797 424 l 575 424 l 583 472 q 565 569 593 535 q 479 604 536 604 q 383 569 419 604 q 336 472 346 535 l 261 0 l 53 0 m 399 896 l 575 1090 l 807 1090 l 614 896 l 399 896 z "},"ř":{"ha":833,"x_min":53,"x_max":842,"o":"m 53 0 l 174 764 l 368 764 l 344 618 l 397 618 l 324 529 q 410 715 343 653 q 588 778 478 778 q 772 701 714 778 q 807 486 829 625 l 797 424 l 575 424 l 583 472 q 565 569 593 535 q 479 604 536 604 q 383 569 419 604 q 336 472 346 535 l 261 0 l 53 0 m 429 896 l 272 1090 l 456 1090 l 540 993 l 649 1090 l 842 1090 l 624 896 l 429 896 z "},"ŗ":{"ha":833,"x_min":-100,"x_max":829,"o":"m 53 0 l 174 764 l 368 764 l 344 618 l 397 618 l 324 529 q 410 715 343 653 q 588 778 478 778 q 772 701 714 778 q 807 486 829 625 l 797 424 l 575 424 l 583 472 q 565 569 593 535 q 479 604 536 604 q 383 569 419 604 q 336 472 346 535 l 261 0 l 53 0 m -100 -333 l 64 -132 l 272 -132 l 81 -333 l -100 -333 z "},"s":{"ha":833,"x_min":26,"x_max":794,"o":"m 321 -14 q 103 51 179 -14 q 43 222 26 117 l 251 222 q 273 169 246 189 q 347 149 300 149 l 408 149 q 499 169 465 149 q 538 228 532 190 q 521 283 543 263 q 444 311 499 304 l 357 322 q 159 390 218 340 q 117 544 100 439 q 221 717 135 656 q 454 778 307 778 l 507 778 q 721 717 647 778 q 778 553 794 656 l 569 553 q 549 598 574 581 q 481 615 525 615 l 428 615 q 350 598 376 615 q 318 546 324 581 q 330 495 313 514 q 394 469 347 476 l 489 457 q 693 387 631 439 q 739 228 756 335 q 630 49 721 111 q 382 -14 539 -14 l 321 -14 z "},"ś":{"ha":833,"x_min":26,"x_max":794,"o":"m 321 -14 q 103 51 179 -14 q 43 222 26 117 l 251 222 q 273 169 246 189 q 347 149 300 149 l 408 149 q 499 169 465 149 q 538 228 532 190 q 521 283 543 263 q 444 311 499 304 l 357 322 q 159 390 218 340 q 117 544 100 439 q 221 717 135 656 q 454 778 307 778 l 507 778 q 721 717 647 778 q 778 553 794 656 l 569 553 q 549 598 574 581 q 481 615 525 615 l 428 615 q 350 598 376 615 q 318 546 324 581 q 330 495 313 514 q 394 469 347 476 l 489 457 q 693 387 631 439 q 739 228 756 335 q 630 49 721 111 q 382 -14 539 -14 l 321 -14 m 385 896 l 561 1090 l 793 1090 l 600 896 l 385 896 z "},"š":{"ha":833,"x_min":26,"x_max":828,"o":"m 321 -14 q 103 51 179 -14 q 43 222 26 117 l 251 222 q 273 169 246 189 q 347 149 300 149 l 408 149 q 499 169 465 149 q 538 228 532 190 q 521 283 543 263 q 444 311 499 304 l 357 322 q 159 390 218 340 q 117 544 100 439 q 221 717 135 656 q 454 778 307 778 l 507 778 q 721 717 647 778 q 778 553 794 656 l 569 553 q 549 598 574 581 q 481 615 525 615 l 428 615 q 350 598 376 615 q 318 546 324 581 q 330 495 313 514 q 394 469 347 476 l 489 457 q 693 387 631 439 q 739 228 756 335 q 630 49 721 111 q 382 -14 539 -14 l 321 -14 m 415 896 l 258 1090 l 442 1090 l 526 993 l 635 1090 l 828 1090 l 610 896 l 415 896 z "},"ş":{"ha":833,"x_min":26,"x_max":794,"o":"m 278 -312 l 278 -215 l 389 -215 q 444 -199 424 -215 q 465 -165 465 -182 q 423 -115 465 -133 q 304 -96 381 -96 l 353 22 l 454 22 l 428 -54 q 516 -72 471 -57 q 593 -114 561 -86 q 625 -185 625 -142 q 572 -274 625 -236 q 431 -312 518 -312 l 278 -312 m 321 -14 q 103 51 179 -14 q 43 222 26 117 l 251 222 q 273 169 246 189 q 347 149 300 149 l 408 149 q 499 169 465 149 q 538 228 532 190 q 521 283 543 263 q 444 311 499 304 l 357 322 q 159 390 218 340 q 117 544 100 439 q 221 717 135 656 q 454 778 307 778 l 507 778 q 721 717 647 778 q 778 553 794 656 l 569 553 q 549 598 574 581 q 481 615 525 615 l 428 615 q 350 598 376 615 q 318 546 324 581 q 330 495 313 514 q 394 469 347 476 l 489 457 q 693 387 631 439 q 739 228 756 335 q 630 49 721 111 q 382 -14 539 -14 l 321 -14 z "},"ŝ":{"ha":833,"x_min":26,"x_max":796,"o":"m 321 -14 q 103 51 179 -14 q 43 222 26 117 l 251 222 q 273 169 246 189 q 347 149 300 149 l 408 149 q 499 169 465 149 q 538 228 532 190 q 521 283 543 263 q 444 311 499 304 l 357 322 q 159 390 218 340 q 117 544 100 439 q 221 717 135 656 q 454 778 307 778 l 507 778 q 721 717 647 778 q 778 553 794 656 l 569 553 q 549 598 574 581 q 481 615 525 615 l 428 615 q 350 598 376 615 q 318 546 324 581 q 330 495 313 514 q 394 469 347 476 l 489 457 q 693 387 631 439 q 739 228 756 335 q 630 49 721 111 q 382 -14 539 -14 l 321 -14 m 226 896 l 444 1090 l 639 1090 l 796 896 l 613 896 l 528 993 l 419 896 l 226 896 z "},"ș":{"ha":833,"x_min":26,"x_max":794,"o":"m 321 -14 q 103 51 179 -14 q 43 222 26 117 l 251 222 q 273 169 246 189 q 347 149 300 149 l 408 149 q 499 169 465 149 q 538 228 532 190 q 521 283 543 263 q 444 311 499 304 l 357 322 q 159 390 218 340 q 117 544 100 439 q 221 717 135 656 q 454 778 307 778 l 507 778 q 721 717 647 778 q 778 553 794 656 l 569 553 q 549 598 574 581 q 481 615 525 615 l 428 615 q 350 598 376 615 q 318 546 324 581 q 330 495 313 514 q 394 469 347 476 l 489 457 q 693 387 631 439 q 739 228 756 335 q 630 49 721 111 q 382 -14 539 -14 l 321 -14 m 129 -333 l 293 -132 l 501 -132 l 310 -333 l 129 -333 z "},"ß":{"ha":833,"x_min":-183,"x_max":832,"o":"m -183 -250 l -157 -83 l -129 -83 q -24 -53 -65 -83 q 26 26 18 -24 l 136 717 q 203 880 151 810 q 339 989 256 950 q 529 1028 422 1028 q 696 994 626 1028 q 799 899 765 960 q 818 757 832 839 q 767 633 807 685 q 661 555 726 582 q 508 528 596 528 l 513 549 q 660 518 600 550 q 748 428 721 486 q 763 290 775 369 q 695 138 749 204 q 559 36 642 72 q 372 0 476 0 l 300 0 l 328 174 l 393 174 q 503 209 460 174 q 556 307 546 244 q 533 406 567 369 q 435 442 500 442 l 369 442 l 394 594 l 457 594 q 554 628 515 594 q 603 718 593 661 q 581 817 613 781 q 483 854 549 854 q 377 817 419 854 q 324 717 335 781 l 213 19 q 96 -178 193 -106 q -149 -250 -1 -250 l -183 -250 z "},"ſ":{"ha":833,"x_min":-83,"x_max":858,"o":"m -83 -250 l -57 -83 l 79 -83 q 170 -54 135 -83 q 214 26 206 -25 l 333 778 q 386 902 344 849 q 492 985 428 956 q 635 1014 556 1014 l 858 1014 l 829 833 l 613 833 q 565 816 585 833 q 540 771 544 799 l 421 19 q 304 -178 401 -106 q 60 -250 207 -250 l -83 -250 z "},"t":{"ha":833,"x_min":79,"x_max":803,"o":"m 439 0 q 267 67 322 0 q 229 250 211 133 l 281 576 l 79 576 l 108 764 l 310 764 l 343 972 l 551 972 l 518 764 l 803 764 l 774 576 l 489 576 l 438 250 q 489 188 426 188 l 697 188 l 668 0 l 439 0 z "},"ŧ":{"ha":833,"x_min":79,"x_max":803,"o":"m 85 306 l 110 465 l 693 465 l 668 306 l 85 306 m 439 0 q 267 67 322 0 q 229 250 211 133 l 281 576 l 79 576 l 108 764 l 310 764 l 343 972 l 551 972 l 518 764 l 803 764 l 774 576 l 489 576 l 438 250 q 489 188 426 188 l 697 188 l 668 0 l 439 0 z "},"ť":{"ha":833,"x_min":79,"x_max":921,"o":"m 597 861 l 743 1076 l 921 1076 l 761 861 l 597 861 m 439 0 q 267 67 322 0 q 229 250 211 133 l 281 576 l 79 576 l 108 764 l 310 764 l 343 972 l 551 972 l 518 764 l 803 764 l 774 576 l 489 576 l 438 250 q 489 188 426 188 l 697 188 l 668 0 l 439 0 z "},"ţ":{"ha":833,"x_min":79,"x_max":803,"o":"m 347 -312 l 347 -215 l 458 -215 q 514 -199 493 -215 q 535 -165 535 -182 q 492 -115 535 -133 q 374 -96 450 -96 l 422 22 l 524 22 l 497 -54 q 585 -72 540 -57 q 663 -114 631 -86 q 694 -185 694 -142 q 641 -274 694 -236 q 500 -312 588 -312 l 347 -312 m 439 0 q 267 67 322 0 q 229 250 211 133 l 281 576 l 79 576 l 108 764 l 310 764 l 343 972 l 551 972 l 518 764 l 803 764 l 774 576 l 489 576 l 438 250 q 489 188 426 188 l 697 188 l 668 0 l 439 0 z "},"ț":{"ha":833,"x_min":79,"x_max":803,"o":"m 439 0 q 267 67 322 0 q 229 250 211 133 l 281 576 l 79 576 l 108 764 l 310 764 l 343 972 l 551 972 l 518 764 l 803 764 l 774 576 l 489 576 l 438 250 q 489 188 426 188 l 697 188 l 668 0 l 439 0 m 129 -333 l 293 -132 l 501 -132 l 310 -333 l 129 -333 z "},"u":{"ha":833,"x_min":53,"x_max":804,"o":"m 353 -14 q 126 69 199 -14 q 75 297 53 153 l 149 764 l 357 764 l 283 299 q 299 201 274 235 q 382 167 324 167 q 476 201 439 167 q 522 299 513 235 l 596 764 l 804 764 l 731 297 q 665 131 715 200 q 534 24 614 61 q 353 -14 454 -14 z "},"ú":{"ha":833,"x_min":53,"x_max":804,"o":"m 353 -14 q 126 69 199 -14 q 75 297 53 153 l 149 764 l 357 764 l 283 299 q 299 201 274 235 q 382 167 324 167 q 476 201 439 167 q 522 299 513 235 l 596 764 l 804 764 l 731 297 q 665 131 715 200 q 534 24 614 61 q 353 -14 454 -14 m 371 896 l 547 1090 l 779 1090 l 586 896 l 371 896 z "},"ŭ":{"ha":833,"x_min":53,"x_max":804,"o":"m 353 -14 q 126 69 199 -14 q 75 297 53 153 l 149 764 l 357 764 l 283 299 q 299 201 274 235 q 382 167 324 167 q 476 201 439 167 q 522 299 513 235 l 596 764 l 804 764 l 731 297 q 665 131 715 200 q 534 24 614 61 q 353 -14 454 -14 m 496 882 q 319 940 382 882 q 271 1090 257 997 l 428 1090 q 445 1027 422 1051 q 511 1003 468 1003 q 586 1027 556 1003 q 622 1090 617 1051 l 785 1090 q 691 940 771 997 q 496 882 611 882 z "},"û":{"ha":833,"x_min":53,"x_max":804,"o":"m 353 -14 q 126 69 199 -14 q 75 297 53 153 l 149 764 l 357 764 l 283 299 q 299 201 274 235 q 382 167 324 167 q 476 201 439 167 q 522 299 513 235 l 596 764 l 804 764 l 731 297 q 665 131 715 200 q 534 24 614 61 q 353 -14 454 -14 m 213 896 l 431 1090 l 625 1090 l 782 896 l 599 896 l 514 993 l 406 896 l 213 896 z "},"ü":{"ha":833,"x_min":53,"x_max":804,"o":"m 353 -14 q 126 69 199 -14 q 75 297 53 153 l 149 764 l 357 764 l 283 299 q 299 201 274 235 q 382 167 324 167 q 476 201 439 167 q 522 299 513 235 l 596 764 l 804 764 l 731 297 q 665 131 715 200 q 534 24 614 61 q 353 -14 454 -14 m 665 885 q 589 914 614 885 q 571 993 564 943 q 614 1072 579 1043 q 700 1101 649 1101 q 776 1072 751 1101 q 793 993 801 1043 q 751 914 786 943 q 665 885 717 885 m 326 885 q 250 914 275 885 q 232 993 225 943 q 275 1072 240 1043 q 361 1101 310 1101 q 438 1072 413 1101 q 454 993 463 1043 q 413 914 447 943 q 326 885 378 885 z "},"ụ":{"ha":833,"x_min":53,"x_max":804,"o":"m 353 -14 q 126 69 199 -14 q 75 297 53 153 l 149 764 l 357 764 l 283 299 q 299 201 274 235 q 382 167 324 167 q 476 201 439 167 q 522 299 513 235 l 596 764 l 804 764 l 731 297 q 665 131 715 200 q 534 24 614 61 q 353 -14 454 -14 m 304 -324 q 218 -294 247 -324 q 196 -215 189 -265 q 243 -136 204 -165 q 339 -107 282 -107 q 425 -136 396 -107 q 446 -215 454 -165 q 400 -294 439 -265 q 304 -324 361 -324 z "},"ù":{"ha":833,"x_min":53,"x_max":804,"o":"m 353 -14 q 126 69 199 -14 q 75 297 53 153 l 149 764 l 357 764 l 283 299 q 299 201 274 235 q 382 167 324 167 q 476 201 439 167 q 522 299 513 235 l 596 764 l 804 764 l 731 297 q 665 131 715 200 q 534 24 614 61 q 353 -14 454 -14 m 414 896 l 282 1090 l 503 1090 l 618 896 l 414 896 z "},"ủ":{"ha":833,"x_min":53,"x_max":804,"o":"m 353 -14 q 126 69 199 -14 q 75 297 53 153 l 149 764 l 357 764 l 283 299 q 299 201 274 235 q 382 167 324 167 q 476 201 439 167 q 522 299 513 235 l 596 764 l 804 764 l 731 297 q 665 131 715 200 q 534 24 614 61 q 353 -14 454 -14 m 410 896 l 490 976 q 510 999 504 990 q 518 1017 517 1008 q 485 1040 522 1040 l 382 1040 l 400 1158 l 546 1158 q 647 1126 611 1158 q 672 1039 682 1093 q 658 994 669 1017 q 629 954 647 972 l 571 896 l 410 896 z "},"ư":{"ha":833,"x_min":51,"x_max":967,"o":"m 74 290 l 149 764 l 357 764 l 282 286 q 291 197 272 228 q 354 167 310 167 q 427 197 399 167 q 465 286 456 228 l 540 764 l 726 764 q 765 777 750 764 q 783 813 779 790 l 800 917 l 967 917 l 950 813 q 876 676 936 728 q 726 625 817 625 l 674 290 q 612 127 658 196 q 492 22 565 58 q 325 -14 419 -14 q 118 67 185 -14 q 74 290 51 147 z "},"ứ":{"ha":833,"x_min":51,"x_max":967,"o":"m 74 290 l 149 764 l 357 764 l 282 286 q 291 197 272 228 q 354 167 310 167 q 427 197 399 167 q 465 286 456 228 l 540 764 l 726 764 q 765 777 750 764 q 783 813 779 790 l 800 917 l 967 917 l 950 813 q 876 676 936 728 q 726 625 817 625 l 674 290 q 612 127 658 196 q 492 22 565 58 q 325 -14 419 -14 q 118 67 185 -14 q 74 290 51 147 m 343 896 l 519 1090 l 751 1090 l 558 896 l 343 896 z "},"ự":{"ha":833,"x_min":51,"x_max":967,"o":"m 74 290 l 149 764 l 357 764 l 282 286 q 291 197 272 228 q 354 167 310 167 q 427 197 399 167 q 465 286 456 228 l 540 764 l 726 764 q 765 777 750 764 q 783 813 779 790 l 800 917 l 967 917 l 950 813 q 876 676 936 728 q 726 625 817 625 l 674 290 q 612 127 658 196 q 492 22 565 58 q 325 -14 419 -14 q 118 67 185 -14 q 74 290 51 147 m 276 -324 q 190 -294 219 -324 q 168 -215 161 -265 q 215 -136 176 -165 q 311 -107 254 -107 q 397 -136 368 -107 q 418 -215 426 -165 q 372 -294 411 -265 q 276 -324 333 -324 z "},"ừ":{"ha":833,"x_min":51,"x_max":967,"o":"m 74 290 l 149 764 l 357 764 l 282 286 q 291 197 272 228 q 354 167 310 167 q 427 197 399 167 q 465 286 456 228 l 540 764 l 726 764 q 765 777 750 764 q 783 813 779 790 l 800 917 l 967 917 l 950 813 q 876 676 936 728 q 726 625 817 625 l 674 290 q 612 127 658 196 q 492 22 565 58 q 325 -14 419 -14 q 118 67 185 -14 q 74 290 51 147 m 386 896 l 254 1090 l 475 1090 l 590 896 l 386 896 z "},"ử":{"ha":833,"x_min":51,"x_max":967,"o":"m 74 290 l 149 764 l 357 764 l 282 286 q 291 197 272 228 q 354 167 310 167 q 427 197 399 167 q 465 286 456 228 l 540 764 l 726 764 q 765 777 750 764 q 783 813 779 790 l 800 917 l 967 917 l 950 813 q 876 676 936 728 q 726 625 817 625 l 674 290 q 612 127 658 196 q 492 22 565 58 q 325 -14 419 -14 q 118 67 185 -14 q 74 290 51 147 m 410 896 l 490 976 q 510 999 504 990 q 518 1017 517 1008 q 485 1040 522 1040 l 382 1040 l 400 1158 l 546 1158 q 647 1126 611 1158 q 672 1039 682 1093 q 658 994 669 1017 q 629 954 647 972 l 571 896 l 410 896 z "},"ữ":{"ha":833,"x_min":51,"x_max":967,"o":"m 74 290 l 149 764 l 357 764 l 282 286 q 291 197 272 228 q 354 167 310 167 q 427 197 399 167 q 465 286 456 228 l 540 764 l 726 764 q 765 777 750 764 q 783 813 779 790 l 800 917 l 967 917 l 950 813 q 876 676 936 728 q 726 625 817 625 l 674 290 q 612 127 658 196 q 492 22 565 58 q 325 -14 419 -14 q 118 67 185 -14 q 74 290 51 147 m 565 882 q 495 894 521 882 q 454 924 469 907 q 425 953 439 940 q 390 965 411 965 q 358 953 372 965 q 342 919 344 940 l 336 889 l 218 889 l 226 938 q 288 1057 238 1010 q 406 1104 338 1104 q 475 1092 450 1104 q 515 1063 500 1079 q 544 1033 531 1046 q 579 1021 558 1021 q 612 1031 599 1021 q 628 1060 625 1042 l 633 1097 l 751 1097 l 744 1049 q 684 929 733 976 q 565 882 635 882 z "},"ű":{"ha":833,"x_min":53,"x_max":907,"o":"m 353 -14 q 126 69 199 -14 q 75 297 53 153 l 149 764 l 357 764 l 283 299 q 299 201 274 235 q 382 167 324 167 q 476 201 439 167 q 522 299 513 235 l 596 764 l 804 764 l 731 297 q 665 131 715 200 q 534 24 614 61 q 353 -14 454 -14 m 528 896 l 704 1090 l 907 1090 l 717 896 l 528 896 m 222 896 l 399 1090 l 601 1090 l 411 896 l 222 896 z "},"ū":{"ha":833,"x_min":53,"x_max":804,"o":"m 353 -14 q 126 69 199 -14 q 75 297 53 153 l 149 764 l 357 764 l 283 299 q 299 201 274 235 q 382 167 324 167 q 476 201 439 167 q 522 299 513 235 l 596 764 l 804 764 l 731 297 q 665 131 715 200 q 534 24 614 61 q 353 -14 454 -14 m 250 910 l 274 1063 l 774 1063 l 750 910 l 250 910 z "},"ų":{"ha":833,"x_min":51,"x_max":804,"o":"m 388 -312 q 261 -270 303 -312 q 231 -160 219 -228 q 292 -60 238 -111 q 450 43 346 -8 q 431 17 449 31 q 390 -5 413 4 q 353 -14 368 -14 q 126 70 200 -14 q 74 292 51 154 l 149 764 l 357 764 l 282 292 q 297 199 272 232 q 382 167 322 167 q 477 199 443 167 q 521 292 511 232 l 596 764 l 804 764 l 729 292 q 674 149 717 214 q 569 43 632 83 l 481 -25 q 431 -73 450 -49 q 410 -115 413 -97 q 421 -151 407 -136 q 465 -167 435 -167 l 561 -167 l 538 -312 l 388 -312 z "},"ů":{"ha":833,"x_min":53,"x_max":804,"o":"m 353 -14 q 126 69 199 -14 q 75 297 53 153 l 149 764 l 357 764 l 283 299 q 299 201 274 235 q 382 167 324 167 q 476 201 439 167 q 522 299 513 235 l 596 764 l 804 764 l 731 297 q 665 131 715 200 q 534 24 614 61 q 353 -14 454 -14 m 488 832 q 354 881 400 832 q 321 1008 308 929 q 394 1136 333 1088 q 543 1185 456 1185 q 676 1136 631 1185 q 710 1008 722 1088 q 636 881 697 929 q 488 832 575 832 m 503 929 q 567 951 540 929 q 599 1008 593 974 q 585 1066 604 1044 q 528 1088 565 1088 q 464 1066 490 1088 q 432 1008 438 1044 q 446 951 426 974 q 503 929 465 929 z "},"ũ":{"ha":833,"x_min":53,"x_max":804,"o":"m 353 -14 q 126 69 199 -14 q 75 297 53 153 l 149 764 l 357 764 l 283 299 q 299 201 274 235 q 382 167 324 167 q 476 201 439 167 q 522 299 513 235 l 596 764 l 804 764 l 731 297 q 665 131 715 200 q 534 24 614 61 q 353 -14 454 -14 m 593 882 q 523 894 549 882 q 482 924 497 907 q 453 953 467 940 q 418 965 439 965 q 386 953 400 965 q 369 919 372 940 l 364 889 l 246 889 l 254 938 q 315 1057 265 1010 q 433 1104 365 1104 q 503 1092 478 1104 q 543 1063 528 1079 q 572 1033 558 1046 q 607 1021 586 1021 q 640 1031 626 1021 q 656 1060 653 1042 l 661 1097 l 779 1097 l 772 1049 q 712 929 761 976 q 593 882 663 882 z "},"v":{"ha":833,"x_min":97,"x_max":856,"o":"m 226 0 l 97 764 l 308 764 l 368 335 q 378 250 374 296 q 385 176 383 204 q 412 250 396 204 q 444 333 428 296 l 639 764 l 856 764 l 488 0 l 226 0 z "},"w":{"ha":833,"x_min":64,"x_max":879,"o":"m 64 0 l 74 764 l 238 764 l 228 347 q 224 243 226 301 q 218 147 221 185 q 244 242 228 185 q 274 347 260 300 l 403 764 l 550 764 l 546 347 q 544 242 546 300 q 540 146 542 183 q 564 244 549 185 q 593 347 579 303 l 717 764 l 879 764 l 646 0 l 438 0 l 446 431 q 448 524 447 469 q 450 614 449 578 q 424 524 439 578 q 397 431 408 469 l 274 0 l 64 0 z "},"ẃ":{"ha":833,"x_min":64,"x_max":879,"o":"m 64 0 l 74 764 l 238 764 l 228 347 q 224 243 226 301 q 218 147 221 185 q 244 242 228 185 q 274 347 260 300 l 403 764 l 550 764 l 546 347 q 544 242 546 300 q 540 146 542 183 q 564 244 549 185 q 593 347 579 303 l 717 764 l 879 764 l 646 0 l 438 0 l 446 431 q 448 524 447 469 q 450 614 449 578 q 424 524 439 578 q 397 431 408 469 l 274 0 l 64 0 m 371 896 l 547 1090 l 779 1090 l 586 896 l 371 896 z "},"ŵ":{"ha":833,"x_min":64,"x_max":879,"o":"m 64 0 l 74 764 l 238 764 l 228 347 q 224 243 226 301 q 218 147 221 185 q 244 242 228 185 q 274 347 260 300 l 403 764 l 550 764 l 546 347 q 544 242 546 300 q 540 146 542 183 q 564 244 549 185 q 593 347 579 303 l 717 764 l 879 764 l 646 0 l 438 0 l 446 431 q 448 524 447 469 q 450 614 449 578 q 424 524 439 578 q 397 431 408 469 l 274 0 l 64 0 m 213 896 l 431 1090 l 625 1090 l 782 896 l 599 896 l 514 993 l 406 896 l 213 896 z "},"ẅ":{"ha":833,"x_min":64,"x_max":879,"o":"m 64 0 l 74 764 l 238 764 l 228 347 q 224 243 226 301 q 218 147 221 185 q 244 242 228 185 q 274 347 260 300 l 403 764 l 550 764 l 546 347 q 544 242 546 300 q 540 146 542 183 q 564 244 549 185 q 593 347 579 303 l 717 764 l 879 764 l 646 0 l 438 0 l 446 431 q 448 524 447 469 q 450 614 449 578 q 424 524 439 578 q 397 431 408 469 l 274 0 l 64 0 m 665 885 q 589 914 614 885 q 571 993 564 943 q 614 1072 579 1043 q 700 1101 649 1101 q 776 1072 751 1101 q 793 993 801 1043 q 751 914 786 943 q 665 885 717 885 m 326 885 q 250 914 275 885 q 232 993 225 943 q 275 1072 240 1043 q 361 1101 310 1101 q 438 1072 413 1101 q 454 993 463 1043 q 413 914 447 943 q 326 885 378 885 z "},"ẁ":{"ha":833,"x_min":64,"x_max":879,"o":"m 64 0 l 74 764 l 238 764 l 228 347 q 224 243 226 301 q 218 147 221 185 q 244 242 228 185 q 274 347 260 300 l 403 764 l 550 764 l 546 347 q 544 242 546 300 q 540 146 542 183 q 564 244 549 185 q 593 347 579 303 l 717 764 l 879 764 l 646 0 l 438 0 l 446 431 q 448 524 447 469 q 450 614 449 578 q 424 524 439 578 q 397 431 408 469 l 274 0 l 64 0 m 414 896 l 282 1090 l 503 1090 l 618 896 l 414 896 z "},"x":{"ha":833,"x_min":-25,"x_max":839,"o":"m -25 0 l 301 400 l 114 764 l 340 764 l 411 611 q 426 571 419 593 q 436 535 433 549 q 456 571 443 549 q 483 611 469 593 l 601 764 l 839 764 l 536 392 l 736 0 l 510 0 l 428 181 q 411 222 419 200 q 400 257 403 243 q 381 221 393 243 q 354 181 369 199 l 213 0 l -25 0 z "},"y":{"ha":833,"x_min":51,"x_max":792,"o":"m 93 -250 l 119 -83 l 335 -83 q 430 -54 393 -83 q 474 26 467 -25 l 478 56 l 504 215 l 443 215 l 511 264 q 431 111 496 167 q 272 56 367 56 q 106 133 161 56 q 72 340 51 211 l 139 764 l 347 764 l 283 361 q 301 269 274 301 q 383 236 328 236 q 474 269 439 236 q 519 361 510 301 l 583 764 l 792 764 l 676 19 q 560 -178 657 -106 q 315 -250 463 -250 l 93 -250 z "},"ý":{"ha":833,"x_min":51,"x_max":792,"o":"m 93 -250 l 119 -83 l 335 -83 q 430 -54 393 -83 q 474 26 467 -25 l 478 56 l 504 215 l 443 215 l 511 264 q 431 111 496 167 q 272 56 367 56 q 106 133 161 56 q 72 340 51 211 l 139 764 l 347 764 l 283 361 q 301 269 274 301 q 383 236 328 236 q 474 269 439 236 q 519 361 510 301 l 583 764 l 792 764 l 676 19 q 560 -178 657 -106 q 315 -250 463 -250 l 93 -250 m 371 896 l 547 1090 l 779 1090 l 586 896 l 371 896 z "},"ŷ":{"ha":833,"x_min":51,"x_max":792,"o":"m 93 -250 l 119 -83 l 335 -83 q 430 -54 393 -83 q 474 26 467 -25 l 478 56 l 504 215 l 443 215 l 511 264 q 431 111 496 167 q 272 56 367 56 q 106 133 161 56 q 72 340 51 211 l 139 764 l 347 764 l 283 361 q 301 269 274 301 q 383 236 328 236 q 474 269 439 236 q 519 361 510 301 l 583 764 l 792 764 l 676 19 q 560 -178 657 -106 q 315 -250 463 -250 l 93 -250 m 213 896 l 431 1090 l 625 1090 l 782 896 l 599 896 l 514 993 l 406 896 l 213 896 z "},"ÿ":{"ha":833,"x_min":51,"x_max":801,"o":"m 93 -250 l 119 -83 l 335 -83 q 430 -54 393 -83 q 474 26 467 -25 l 478 56 l 504 215 l 443 215 l 511 264 q 431 111 496 167 q 272 56 367 56 q 106 133 161 56 q 72 340 51 211 l 139 764 l 347 764 l 283 361 q 301 269 274 301 q 383 236 328 236 q 474 269 439 236 q 519 361 510 301 l 583 764 l 792 764 l 676 19 q 560 -178 657 -106 q 315 -250 463 -250 l 93 -250 m 665 885 q 589 914 614 885 q 571 993 564 943 q 614 1072 579 1043 q 700 1101 649 1101 q 776 1072 751 1101 q 793 993 801 1043 q 751 914 786 943 q 665 885 717 885 m 326 885 q 250 914 275 885 q 232 993 225 943 q 275 1072 240 1043 q 361 1101 310 1101 q 438 1072 413 1101 q 454 993 463 1043 q 413 914 447 943 q 326 885 378 885 z "},"ỵ":{"ha":833,"x_min":51,"x_max":810,"o":"m 93 -250 l 119 -83 l 335 -83 q 430 -54 393 -83 q 474 26 467 -25 l 478 56 l 504 215 l 443 215 l 511 264 q 431 111 496 167 q 272 56 367 56 q 106 133 161 56 q 72 340 51 211 l 139 764 l 347 764 l 283 361 q 301 269 274 301 q 383 236 328 236 q 474 269 439 236 q 519 361 510 301 l 583 764 l 792 764 l 676 19 q 560 -178 657 -106 q 315 -250 463 -250 l 93 -250 m 660 -379 q 574 -350 603 -379 q 551 -271 544 -321 q 599 -192 560 -221 q 694 -162 638 -162 q 781 -192 751 -162 q 801 -271 810 -221 q 756 -350 794 -321 q 660 -379 717 -379 z "},"ỳ":{"ha":833,"x_min":51,"x_max":792,"o":"m 93 -250 l 119 -83 l 335 -83 q 430 -54 393 -83 q 474 26 467 -25 l 478 56 l 504 215 l 443 215 l 511 264 q 431 111 496 167 q 272 56 367 56 q 106 133 161 56 q 72 340 51 211 l 139 764 l 347 764 l 283 361 q 301 269 274 301 q 383 236 328 236 q 474 269 439 236 q 519 361 510 301 l 583 764 l 792 764 l 676 19 q 560 -178 657 -106 q 315 -250 463 -250 l 93 -250 m 414 896 l 282 1090 l 503 1090 l 618 896 l 414 896 z "},"ỷ":{"ha":833,"x_min":51,"x_max":792,"o":"m 93 -250 l 119 -83 l 335 -83 q 430 -54 393 -83 q 474 26 467 -25 l 478 56 l 504 215 l 443 215 l 511 264 q 431 111 496 167 q 272 56 367 56 q 106 133 161 56 q 72 340 51 211 l 139 764 l 347 764 l 283 361 q 301 269 274 301 q 383 236 328 236 q 474 269 439 236 q 519 361 510 301 l 583 764 l 792 764 l 676 19 q 560 -178 657 -106 q 315 -250 463 -250 l 93 -250 m 431 896 l 511 976 q 531 999 525 990 q 539 1017 538 1008 q 506 1040 543 1040 l 403 1040 l 421 1158 l 567 1158 q 667 1126 632 1158 q 693 1039 703 1093 q 679 994 690 1017 q 650 954 668 972 l 592 896 l 431 896 z "},"ȳ":{"ha":833,"x_min":51,"x_max":792,"o":"m 93 -250 l 119 -83 l 335 -83 q 430 -54 393 -83 q 474 26 467 -25 l 478 56 l 504 215 l 443 215 l 511 264 q 431 111 496 167 q 272 56 367 56 q 106 133 161 56 q 72 340 51 211 l 139 764 l 347 764 l 283 361 q 301 269 274 301 q 383 236 328 236 q 474 269 439 236 q 519 361 510 301 l 583 764 l 792 764 l 676 19 q 560 -178 657 -106 q 315 -250 463 -250 l 93 -250 m 250 910 l 274 1063 l 774 1063 l 750 910 l 250 910 z "},"ỹ":{"ha":833,"x_min":51,"x_max":792,"o":"m 93 -250 l 119 -83 l 335 -83 q 430 -54 393 -83 q 474 26 467 -25 l 478 56 l 504 215 l 443 215 l 511 264 q 431 111 496 167 q 272 56 367 56 q 106 133 161 56 q 72 340 51 211 l 139 764 l 347 764 l 283 361 q 301 269 274 301 q 383 236 328 236 q 474 269 439 236 q 519 361 510 301 l 583 764 l 792 764 l 676 19 q 560 -178 657 -106 q 315 -250 463 -250 l 93 -250 m 593 882 q 523 894 549 882 q 482 924 497 907 q 453 953 467 940 q 418 965 439 965 q 386 953 400 965 q 369 919 372 940 l 364 889 l 246 889 l 254 938 q 315 1057 265 1010 q 433 1104 365 1104 q 503 1092 478 1104 q 543 1063 528 1079 q 572 1033 558 1046 q 607 1021 586 1021 q 640 1031 626 1021 q 656 1060 653 1042 l 661 1097 l 779 1097 l 772 1049 q 712 929 761 976 q 593 882 663 882 z "},"z":{"ha":833,"x_min":36,"x_max":781,"o":"m 36 0 l 65 181 l 501 583 l 143 583 l 171 764 l 781 764 l 753 583 l 317 181 l 704 181 l 675 0 l 36 0 z "},"ź":{"ha":833,"x_min":36,"x_max":781,"o":"m 36 0 l 65 181 l 501 583 l 143 583 l 171 764 l 781 764 l 753 583 l 317 181 l 704 181 l 675 0 l 36 0 m 371 896 l 547 1090 l 779 1090 l 586 896 l 371 896 z "},"ž":{"ha":833,"x_min":36,"x_max":814,"o":"m 36 0 l 65 181 l 501 583 l 143 583 l 171 764 l 781 764 l 753 583 l 317 181 l 704 181 l 675 0 l 36 0 m 401 896 l 244 1090 l 428 1090 l 513 993 l 621 1090 l 814 1090 l 596 896 l 401 896 z "},"ż":{"ha":833,"x_min":36,"x_max":781,"o":"m 36 0 l 65 181 l 501 583 l 143 583 l 171 764 l 781 764 l 753 583 l 317 181 l 704 181 l 675 0 l 36 0 m 496 885 q 410 914 439 885 q 388 993 381 943 q 435 1072 396 1043 q 531 1101 474 1101 q 617 1072 588 1101 q 638 993 646 1043 q 592 914 631 943 q 496 885 553 885 z "},"ª":{"ha":833,"x_min":278,"x_max":689,"o":"m 529 632 l 542 708 l 538 708 l 568 903 q 556 933 571 922 q 513 944 540 944 q 467 935 486 944 q 444 910 449 925 l 333 910 q 405 995 353 963 q 525 1028 457 1028 q 646 994 603 1028 q 679 903 689 960 l 636 632 l 529 632 m 404 625 q 310 658 343 625 q 286 747 278 692 q 344 835 294 801 q 465 868 393 868 l 578 868 l 567 799 l 454 799 q 417 786 432 799 q 399 750 401 774 q 409 715 394 729 q 449 701 424 701 q 515 721 488 701 q 547 771 542 740 l 563 771 l 553 708 l 538 708 q 480 647 515 669 q 404 625 444 625 z "},"º":{"ha":833,"x_min":283,"x_max":692,"o":"m 454 625 q 326 673 369 625 q 293 793 283 721 l 304 861 q 375 982 317 936 q 518 1028 433 1028 q 647 982 603 1028 q 679 861 692 936 l 668 793 q 599 673 658 721 q 454 625 539 625 m 469 722 q 528 742 504 722 q 557 793 553 761 l 568 861 q 556 912 574 893 q 503 931 538 931 q 444 912 468 931 q 415 861 421 893 l 404 793 q 417 742 400 761 q 469 722 435 722 z "},"А":{"ha":833,"x_min":-26,"x_max":738,"o":"m -26 0 l 383 1014 l 647 1014 l 738 0 l 531 0 l 518 229 l 276 229 l 192 0 l -26 0 m 338 396 l 508 396 l 499 640 q 494 745 497 693 q 489 826 490 797 q 463 746 479 797 q 428 642 447 694 l 338 396 z "},"Б":{"ha":833,"x_min":31,"x_max":833,"o":"m 31 0 l 192 1014 l 833 1014 l 801 819 l 361 819 l 329 617 l 465 617 q 643 578 571 617 q 748 472 715 540 q 765 310 781 403 q 697 147 751 217 q 558 39 642 78 q 369 0 474 0 l 31 0 m 260 174 l 397 174 q 504 210 461 174 q 557 307 547 246 q 536 406 568 369 q 440 443 504 443 l 303 443 l 260 174 z "},"В":{"ha":833,"x_min":31,"x_max":833,"o":"m 31 0 l 192 1014 l 518 1014 q 753 944 672 1014 q 814 754 833 874 q 765 638 804 688 q 669 560 725 588 q 551 532 613 532 l 550 528 q 670 503 618 529 q 749 424 722 476 q 763 293 775 371 q 696 138 749 204 q 560 36 643 72 q 369 0 476 0 l 31 0 m 258 168 l 388 168 q 501 204 456 168 q 556 304 546 240 q 532 405 565 368 q 431 442 499 442 l 301 442 l 258 168 m 328 606 l 450 606 q 551 638 511 606 q 600 726 590 671 q 578 815 608 783 q 488 846 549 846 l 365 846 l 328 606 z "},"Г":{"ha":833,"x_min":71,"x_max":850,"o":"m 71 0 l 232 1014 l 850 1014 l 818 819 l 408 819 l 279 0 l 71 0 z "},"Ѓ":{"ha":833,"x_min":71,"x_max":850,"o":"m 71 0 l 232 1014 l 850 1014 l 818 819 l 408 819 l 279 0 l 71 0 m 414 1125 l 590 1319 l 822 1319 l 629 1125 l 414 1125 z "},"Ґ":{"ha":833,"x_min":71,"x_max":871,"o":"m 71 0 l 232 1014 l 649 1014 l 669 1146 l 871 1146 l 818 819 l 408 819 l 279 0 l 71 0 z "},"Д":{"ha":833,"x_min":-61,"x_max":819,"o":"m -61 -194 l -3 178 l 40 178 q 84 247 60 203 q 130 348 108 290 q 163 472 151 406 l 257 1014 l 819 1014 l 686 178 l 769 178 l 711 -194 l 517 -194 l 547 0 l 164 0 l 133 -194 l -61 -194 m 244 178 l 492 178 l 596 836 l 419 836 l 357 474 q 326 351 346 410 q 284 249 306 293 q 244 178 263 204 z "},"Е":{"ha":833,"x_min":50,"x_max":836,"o":"m 50 0 l 211 1014 l 836 1014 l 807 836 l 386 836 l 350 608 l 722 608 l 694 431 l 322 431 l 282 178 l 703 178 l 675 0 l 50 0 z "},"Ё":{"ha":833,"x_min":50,"x_max":865,"o":"m 50 0 l 211 1014 l 836 1014 l 807 836 l 386 836 l 350 608 l 722 608 l 694 431 l 322 431 l 282 178 l 703 178 l 675 0 l 50 0 m 729 1114 q 653 1143 678 1114 q 635 1222 628 1172 q 678 1301 643 1272 q 764 1331 713 1331 q 840 1301 815 1331 q 857 1222 865 1272 q 815 1143 850 1172 q 729 1114 781 1114 m 390 1114 q 314 1143 339 1114 q 296 1222 289 1172 q 339 1301 304 1272 q 425 1331 374 1331 q 501 1301 476 1331 q 518 1222 526 1272 q 476 1143 511 1172 q 390 1114 442 1114 z "},"Ж":{"ha":833,"x_min":-47,"x_max":906,"o":"m -47 0 l 165 517 l 122 1014 l 285 1014 l 319 551 l 369 551 l 443 1014 l 585 1014 l 511 551 l 554 551 l 739 1014 l 906 1014 l 703 513 l 758 0 l 597 0 l 553 476 l 499 476 l 431 0 l 289 0 l 357 476 l 313 476 l 124 0 l -47 0 z "},"З":{"ha":833,"x_min":24,"x_max":842,"o":"m 353 -14 q 109 63 194 -14 q 38 271 24 140 l 246 271 q 280 194 243 222 q 382 167 317 167 q 498 203 450 167 q 556 296 546 240 q 530 389 565 354 q 422 424 494 424 l 276 424 l 307 611 l 453 611 q 534 628 499 611 q 592 673 569 644 q 619 736 614 701 q 593 818 628 789 q 490 847 558 847 q 390 819 433 847 q 329 743 346 792 l 121 743 q 200 894 143 831 q 341 993 257 958 q 526 1028 425 1028 q 760 963 679 1028 q 822 783 842 897 q 769 653 811 710 q 662 566 728 597 q 510 535 596 535 l 513 556 q 662 525 601 557 q 749 434 722 493 q 764 297 776 375 q 694 134 750 204 q 550 25 638 64 q 353 -14 463 -14 z "},"И":{"ha":833,"x_min":22,"x_max":850,"o":"m 22 0 l 183 1014 l 367 1014 l 296 569 q 276 460 289 522 q 248 336 263 397 q 222 229 233 275 l 604 1014 l 850 1014 l 689 0 l 506 0 l 572 417 q 594 532 581 465 q 624 667 608 599 q 651 785 639 735 l 268 0 l 22 0 z "},"Й":{"ha":833,"x_min":22,"x_max":850,"o":"m 22 0 l 183 1014 l 367 1014 l 296 569 q 276 460 289 522 q 248 336 263 397 q 222 229 233 275 l 604 1014 l 850 1014 l 689 0 l 506 0 l 572 417 q 594 532 581 465 q 624 667 608 599 q 651 785 639 735 l 268 0 l 22 0 m 532 1111 q 356 1169 418 1111 q 308 1319 294 1226 l 465 1319 q 482 1256 460 1281 q 547 1232 504 1232 q 622 1256 592 1232 q 658 1319 653 1281 l 821 1319 q 727 1169 807 1226 q 532 1111 647 1111 z "},"К":{"ha":833,"x_min":29,"x_max":890,"o":"m 29 0 l 190 1014 l 399 1014 l 336 621 l 431 621 l 664 1014 l 890 1014 l 596 517 l 738 0 l 517 0 l 411 429 l 306 429 l 238 0 l 29 0 z "},"Ќ":{"ha":833,"x_min":29,"x_max":890,"o":"m 407 1125 l 583 1319 l 815 1319 l 622 1125 l 407 1125 m 29 0 l 190 1014 l 399 1014 l 336 621 l 431 621 l 664 1014 l 890 1014 l 596 517 l 738 0 l 517 0 l 411 429 l 306 429 l 238 0 l 29 0 z "},"Л":{"ha":833,"x_min":-42,"x_max":842,"o":"m -42 -7 l -11 181 l 31 181 q 97 219 67 181 q 136 319 126 258 l 256 1014 l 842 1014 l 681 0 l 472 0 l 601 819 l 428 819 l 343 319 q 281 146 326 219 q 166 33 235 72 q 14 -7 97 -7 l -42 -7 z "},"М":{"ha":833,"x_min":-3,"x_max":875,"o":"m -3 0 l 158 1014 l 389 1014 l 431 694 q 440 607 438 644 q 440 554 442 569 q 458 607 444 569 q 493 694 471 644 l 636 1014 l 875 1014 l 714 0 l 524 0 l 568 278 q 597 438 581 354 q 633 606 614 522 q 669 762 651 689 q 701 889 688 835 l 513 431 l 336 431 l 286 889 q 281 766 285 838 q 271 612 278 694 q 254 443 264 529 q 232 278 244 357 l 188 0 l -3 0 z "},"Н":{"ha":833,"x_min":31,"x_max":842,"o":"m 31 0 l 192 1014 l 400 1014 l 338 625 l 571 625 l 633 1014 l 842 1014 l 681 0 l 472 0 l 540 431 l 307 431 l 239 0 l 31 0 z "},"О":{"ha":833,"x_min":54,"x_max":818,"o":"m 353 -14 q 183 24 251 -14 q 84 131 114 63 q 68 292 54 200 l 136 722 q 203 883 151 814 q 335 990 254 951 q 518 1028 417 1028 q 690 990 621 1028 q 788 883 758 951 q 803 722 818 814 l 735 292 q 669 131 721 200 q 536 24 617 63 q 353 -14 456 -14 m 382 167 q 481 199 444 167 q 526 292 517 232 l 594 722 q 580 815 606 783 q 490 847 554 847 q 391 815 426 847 q 344 722 356 783 l 276 292 q 293 199 267 232 q 382 167 319 167 z "},"П":{"ha":833,"x_min":31,"x_max":842,"o":"m 31 0 l 192 1014 l 842 1014 l 681 0 l 472 0 l 601 819 l 368 819 l 239 0 l 31 0 z "},"Р":{"ha":833,"x_min":31,"x_max":856,"o":"m 31 0 l 192 1014 l 538 1014 q 717 974 644 1014 q 823 861 790 933 q 840 692 856 789 q 769 523 825 596 q 628 410 714 450 q 435 369 542 369 l 297 369 l 239 0 l 31 0 m 328 557 l 465 557 q 577 594 532 557 q 632 692 622 631 q 608 790 642 753 q 507 826 574 826 l 369 826 l 328 557 z "},"С":{"ha":833,"x_min":54,"x_max":829,"o":"m 358 -14 q 186 24 257 -14 q 85 131 115 63 q 68 292 54 200 l 136 722 q 204 883 151 815 q 340 990 257 951 q 524 1028 422 1028 q 696 990 626 1028 q 797 883 765 951 q 814 722 829 815 l 606 722 q 588 815 617 783 q 496 847 558 847 q 394 815 433 847 q 344 722 356 783 l 276 292 q 296 199 267 232 q 388 167 325 167 q 489 199 450 167 q 538 292 528 232 l 746 292 q 678 131 732 200 q 543 24 625 63 q 358 -14 461 -14 z "},"Т":{"ha":833,"x_min":124,"x_max":878,"o":"m 251 0 l 381 819 l 124 819 l 156 1014 l 878 1014 l 846 819 l 589 819 l 460 0 l 251 0 z "},"У":{"ha":833,"x_min":135,"x_max":899,"o":"m 163 0 l 299 260 l 135 1014 l 357 1014 l 425 601 q 433 525 431 568 q 436 454 436 482 q 458 526 443 482 q 486 601 472 569 l 678 1014 l 899 1014 l 381 0 l 163 0 z "},"Ў":{"ha":833,"x_min":135,"x_max":899,"o":"m 163 0 l 299 260 l 135 1014 l 357 1014 l 425 601 q 433 525 431 568 q 436 454 436 482 q 458 526 443 482 q 486 601 472 569 l 678 1014 l 899 1014 l 381 0 l 163 0 m 532 1111 q 356 1169 418 1111 q 308 1319 294 1226 l 465 1319 q 482 1256 460 1281 q 547 1232 504 1232 q 622 1256 592 1232 q 658 1319 653 1281 l 821 1319 q 727 1169 807 1226 q 532 1111 647 1111 z "},"Ф":{"ha":833,"x_min":25,"x_max":851,"o":"m 267 -35 l 282 63 q 136 101 196 63 q 51 208 76 139 q 39 367 25 276 l 86 668 q 149 828 101 760 q 267 934 196 896 q 426 972 339 972 l 442 1069 l 608 1069 l 593 972 q 740 934 681 972 q 825 828 799 896 q 836 668 851 760 l 789 367 q 727 208 775 276 q 608 101 679 139 q 449 63 536 63 l 433 -35 l 267 -35 m 315 224 l 410 813 q 342 794 374 813 q 290 744 311 776 q 263 668 269 711 l 215 367 q 233 263 206 303 q 315 224 260 224 m 465 224 q 533 242 503 224 q 585 292 564 260 q 613 367 606 324 l 660 668 q 643 773 671 733 q 560 813 615 813 l 465 224 z "},"Х":{"ha":833,"x_min":-33,"x_max":888,"o":"m -33 0 l 322 529 l 146 1014 l 368 1014 l 438 792 q 455 736 447 761 q 464 700 463 711 q 481 736 469 711 q 513 792 493 761 l 657 1014 l 888 1014 l 556 518 l 744 0 l 522 0 l 440 250 q 423 307 431 281 q 413 347 415 333 q 393 307 407 333 q 360 250 379 281 l 197 0 l -33 0 z "},"Ч":{"ha":833,"x_min":92,"x_max":836,"o":"m 467 0 l 528 382 q 469 373 510 378 q 372 368 428 368 q 162 449 232 368 q 114 668 92 531 l 169 1014 l 378 1014 l 325 681 q 349 590 315 624 q 450 556 383 556 q 516 560 488 556 q 557 569 544 565 l 628 1014 l 836 1014 l 675 0 l 467 0 z "},"Ц":{"ha":833,"x_min":31,"x_max":799,"o":"m 517 -194 l 547 0 l 31 0 l 192 1014 l 400 1014 l 269 194 l 460 194 l 590 1014 l 799 1014 l 668 194 l 772 194 l 711 -194 l 517 -194 z "},"Ш":{"ha":833,"x_min":-6,"x_max":878,"o":"m -6 0 l 156 1014 l 326 1014 l 188 139 l 306 139 l 444 1014 l 589 1014 l 450 139 l 568 139 l 707 1014 l 878 1014 l 717 0 l -6 0 z "},"Щ":{"ha":833,"x_min":-7,"x_max":825,"o":"m 543 -194 l 574 0 l -7 0 l 154 1014 l 311 1014 l 172 139 l 282 139 l 421 1014 l 558 1014 l 419 139 l 529 139 l 668 1014 l 825 1014 l 686 139 l 776 139 l 724 -194 l 543 -194 z "},"Џ":{"ha":833,"x_min":31,"x_max":842,"o":"m 224 -174 l 251 0 l 31 0 l 192 1014 l 400 1014 l 269 194 l 503 194 l 633 1014 l 842 1014 l 681 0 l 460 0 l 432 -174 l 224 -174 z "},"Ь":{"ha":833,"x_min":31,"x_max":794,"o":"m 31 0 l 192 1014 l 400 1014 l 336 618 l 467 618 q 652 580 576 618 q 761 473 728 542 q 779 310 794 404 q 710 147 765 217 q 567 38 654 76 q 369 0 479 0 l 31 0 m 268 181 l 399 181 q 515 215 468 181 q 571 308 561 250 q 544 403 581 368 q 439 438 508 438 l 308 438 l 268 181 z "},"Ъ":{"ha":833,"x_min":67,"x_max":794,"o":"m 92 0 l 226 847 l 67 847 l 93 1014 l 461 1014 l 397 618 l 467 618 q 652 580 576 618 q 761 473 728 542 q 779 310 794 404 q 710 147 765 217 q 567 38 654 76 q 369 0 479 0 l 92 0 m 329 181 l 399 181 q 515 215 468 181 q 571 308 561 250 q 544 403 581 368 q 439 438 508 438 l 369 438 l 329 181 z "},"Ы":{"ha":833,"x_min":-6,"x_max":878,"o":"m -6 0 l 156 1014 l 329 1014 l 265 618 l 300 618 q 483 547 424 618 q 522 353 542 476 l 508 264 q 408 71 489 142 q 203 0 326 0 l -6 0 m 193 160 l 228 160 q 303 187 274 160 q 342 265 333 214 l 356 350 q 342 431 364 403 q 275 458 321 458 l 240 458 l 193 160 m 543 0 l 704 1014 l 878 1014 l 717 0 l 543 0 z "},"Љ":{"ha":833,"x_min":-76,"x_max":835,"o":"m -76 -7 l -51 153 l -24 153 q 42 189 14 153 q 81 285 71 225 l 207 1014 l 649 1014 l 585 618 l 592 618 q 774 550 714 618 q 815 360 835 482 l 799 257 q 699 68 781 136 q 494 0 617 0 l 321 0 l 457 861 l 346 861 l 247 285 q 193 132 233 197 q 94 30 153 67 q -35 -7 36 -7 l -76 -7 m 511 153 l 518 153 q 594 180 564 153 q 632 258 625 207 l 649 357 q 635 438 657 410 q 568 465 614 465 l 561 465 l 511 153 z "},"Њ":{"ha":833,"x_min":-6,"x_max":838,"o":"m -6 0 l 156 1014 l 322 1014 l 261 632 l 421 632 l 482 1014 l 649 1014 l 588 632 l 594 632 q 778 563 718 632 q 818 374 838 494 l 799 257 q 699 69 781 138 q 494 0 618 0 l 321 0 l 397 479 l 238 479 l 161 0 l -6 0 m 511 153 l 518 153 q 595 181 565 153 q 632 258 625 208 l 650 371 q 638 451 658 424 q 571 479 617 479 l 564 479 l 511 153 z "},"Ѕ":{"ha":833,"x_min":26,"x_max":829,"o":"m 353 -14 q 110 65 193 -14 q 49 278 26 144 l 257 278 q 283 197 249 226 q 386 167 318 167 q 493 196 451 167 q 543 276 535 225 q 528 357 550 324 q 460 401 507 390 l 361 425 q 176 538 236 456 q 135 735 117 619 q 200 890 149 824 q 332 992 251 956 q 515 1028 413 1028 q 750 951 671 1028 q 808 743 829 874 l 600 743 q 578 819 607 792 q 485 847 549 847 q 388 820 425 847 q 344 743 351 793 q 356 663 336 696 q 419 619 375 631 l 524 594 q 711 484 651 564 q 753 286 771 404 q 683 127 738 194 q 545 23 629 60 q 353 -14 461 -14 z "},"Є":{"ha":833,"x_min":54,"x_max":829,"o":"m 358 -14 q 186 24 257 -14 q 85 131 115 63 q 68 292 54 200 l 136 722 q 204 883 151 815 q 340 990 257 951 q 524 1028 422 1028 q 696 990 626 1028 q 797 883 765 951 q 814 722 829 815 l 606 722 q 588 815 617 783 q 496 847 558 847 q 394 815 433 847 q 344 722 356 783 l 326 604 l 611 604 l 582 417 l 297 417 l 276 292 q 296 199 267 232 q 388 167 325 167 q 489 199 450 167 q 538 292 528 232 l 746 292 q 678 131 732 200 q 543 24 625 63 q 358 -14 461 -14 z "},"Э":{"ha":833,"x_min":43,"x_max":818,"o":"m 347 -14 q 175 24 246 -14 q 74 131 104 63 q 57 292 43 200 l 265 292 q 285 199 256 232 q 376 167 314 167 q 478 199 439 167 q 526 292 517 232 l 547 417 l 263 417 l 292 604 l 576 604 l 594 722 q 576 815 606 783 q 485 847 547 847 q 383 815 422 847 q 333 722 344 783 l 125 722 q 193 883 140 815 q 328 990 246 951 q 513 1028 411 1028 q 685 990 615 1028 q 786 883 754 951 q 803 722 818 815 l 735 292 q 667 131 721 200 q 532 24 614 63 q 347 -14 450 -14 z "},"І":{"ha":833,"x_min":50,"x_max":822,"o":"m 50 0 l 79 181 l 281 181 l 383 833 l 182 833 l 211 1014 l 822 1014 l 793 833 l 592 833 l 489 181 l 690 181 l 661 0 l 50 0 z "},"Ї":{"ha":833,"x_min":50,"x_max":838,"o":"m 50 0 l 79 181 l 281 181 l 383 833 l 182 833 l 211 1014 l 822 1014 l 793 833 l 592 833 l 489 181 l 690 181 l 661 0 l 50 0 m 701 1114 q 625 1143 650 1114 q 607 1222 600 1172 q 650 1301 615 1272 q 736 1331 685 1331 q 813 1301 788 1331 q 829 1222 838 1272 q 788 1143 822 1172 q 701 1114 753 1114 m 363 1114 q 286 1143 311 1114 q 268 1222 261 1172 q 311 1301 276 1272 q 397 1331 346 1331 q 474 1301 449 1331 q 490 1222 499 1272 q 449 1143 483 1172 q 363 1114 414 1114 z "},"Ј":{"ha":833,"x_min":-8,"x_max":822,"o":"m 311 -15 q 72 72 151 -15 q 15 306 -8 158 l 224 306 q 245 203 214 242 q 340 165 276 165 q 448 202 404 165 q 501 303 492 239 l 582 819 l 353 819 l 385 1014 l 822 1014 l 710 303 q 640 134 694 206 q 502 24 586 63 q 311 -15 418 -15 z "},"Ћ":{"ha":833,"x_min":68,"x_max":821,"o":"m 78 0 l 207 819 l 68 819 l 100 1014 l 600 1014 l 568 819 l 415 819 l 379 583 l 401 603 q 606 688 499 688 q 767 610 714 688 q 800 403 821 532 l 738 0 l 529 0 l 590 396 q 582 478 599 450 q 524 507 565 507 q 468 493 497 507 q 403 449 439 479 l 350 403 l 286 0 l 78 0 z "},"Ю":{"ha":833,"x_min":-6,"x_max":872,"o":"m 481 -14 q 332 54 381 -14 q 301 236 283 122 l 335 447 l 236 447 l 165 0 l -6 0 l 156 1014 l 326 1014 l 260 593 l 358 593 l 388 779 q 476 960 406 893 q 646 1028 546 1028 q 816 961 760 1028 q 854 779 872 894 l 768 236 q 672 54 750 122 q 481 -14 594 -14 m 506 139 q 565 161 542 139 q 594 222 589 183 l 685 793 q 674 853 692 831 q 622 875 657 875 q 564 853 588 875 q 533 793 540 831 l 443 222 q 454 161 438 183 q 506 139 471 139 z "},"Я":{"ha":833,"x_min":-10,"x_max":842,"o":"m -10 0 l 303 503 l 301 400 q 185 454 232 411 q 120 563 139 497 q 113 706 101 628 q 183 869 128 800 q 324 976 238 939 q 517 1014 410 1014 l 842 1014 l 681 0 l 474 0 l 535 383 l 438 383 l 207 0 l -10 0 m 444 564 l 563 564 l 606 833 l 488 833 q 375 797 419 833 q 319 696 331 761 q 343 599 310 633 q 444 564 376 564 z "},"Ђ":{"ha":833,"x_min":68,"x_max":821,"o":"m 294 -250 l 326 -49 l 410 -49 q 497 -21 463 -49 q 538 57 531 7 l 590 396 q 582 478 599 450 q 524 507 565 507 q 468 493 497 507 q 403 449 439 479 l 350 403 l 286 0 l 78 0 l 207 819 l 68 819 l 100 1014 l 600 1014 l 568 819 l 415 819 l 379 583 l 401 603 q 606 688 499 688 q 767 610 714 688 q 800 403 821 532 l 743 35 q 677 -113 731 -49 q 543 -214 624 -178 q 364 -250 463 -250 l 294 -250 z "},"Ү":{"ha":833,"x_min":121,"x_max":913,"o":"m 251 0 l 308 361 l 121 1014 l 333 1014 l 413 708 q 431 611 424 663 q 439 528 438 560 q 471 611 450 560 q 518 708 492 663 l 690 1014 l 913 1014 l 517 361 l 460 0 l 251 0 z "},"Ө":{"ha":833,"x_min":47,"x_max":825,"o":"m 353 -14 q 121 72 194 -14 q 69 299 47 157 l 136 717 q 201 881 151 811 q 332 989 251 950 q 518 1028 413 1028 q 751 942 676 1028 q 803 717 825 857 l 736 299 q 671 135 722 206 q 538 26 619 65 q 353 -14 457 -14 m 382 167 q 492 206 451 167 q 543 306 533 244 l 563 431 l 285 431 l 265 306 q 284 206 256 244 q 382 167 313 167 m 313 604 l 590 604 l 607 708 q 588 809 617 771 q 490 847 560 847 q 380 809 421 847 q 329 708 339 771 l 313 604 z "},"а":{"ha":833,"x_min":44,"x_max":801,"o":"m 274 -14 q 101 67 158 -14 q 67 285 44 147 l 99 479 q 156 638 114 571 q 260 741 197 704 q 400 778 324 778 q 540 723 494 778 q 569 569 585 668 l 528 618 l 576 618 l 594 764 l 801 764 l 681 0 l 479 0 l 503 146 l 454 146 l 510 194 q 431 41 494 96 q 274 -14 368 -14 m 378 167 q 472 199 435 167 q 518 292 508 232 l 547 472 q 530 565 557 532 q 446 597 503 597 q 351 565 388 597 q 306 472 315 532 l 276 292 q 293 199 267 232 q 378 167 319 167 z "},"б":{"ha":833,"x_min":46,"x_max":808,"o":"m 353 -14 q 124 70 201 -11 q 68 292 46 151 l 122 632 q 270 915 151 815 q 579 1014 389 1014 l 808 1014 l 776 813 l 547 813 q 401 767 456 813 q 331 632 346 721 l 315 535 l 335 535 l 315 515 q 385 640 326 593 q 542 686 444 686 q 718 607 663 686 q 750 388 774 528 l 735 292 q 669 128 721 199 q 536 22 617 58 q 353 -14 456 -15 m 382 167 q 480 199 443 167 q 526 292 517 232 l 542 388 q 524 481 551 449 q 436 513 497 513 q 339 481 376 513 q 292 388 301 449 l 276 292 q 294 199 267 232 q 382 167 322 167 z "}}}
